<svg xmlns="http://www.w3.org/2000/svg" version="1.1" xmlns:xlink="http://www.w3.org/1999/xlink" xmlns:svgjs="http://svgjs.dev/svgjs" width="1500" height="196" viewBox="0 0 1500 196"><g transform="matrix(1,0,0,1,-0.9090909025294422,-0.7969764465958633)"><svg viewBox="0 0 396 52" data-background-color="#f8f8f8" preserveAspectRatio="xMidYMid meet" height="196" width="1500" xmlns="http://www.w3.org/2000/svg" xmlns:xlink="http://www.w3.org/1999/xlink"><g id="tight-bounds" transform="matrix(1,0,0,1,0.23999999826776275,0.21144273072951592)"><svg viewBox="0 0 395.52 51.577114538541" height="51.577114538541" width="395.52"><g><svg viewBox="0 0 496.07810582941056 64.69022371669188" height="51.577114538541" width="395.52"><g><rect width="5.804807099584229" height="64.69022371669188" x="79.55746862620273" y="0" fill="#000000" opacity="1" stroke-width="0" stroke="transparent" fill-opacity="1" class="rect-yte-0" data-fill-palette-color="primary" rx="1%" id="yte-0" data-palette-color="#000000"></rect></g><g transform="matrix(1,0,0,1,100.5581058294106,0.1609209545191277)"><svg viewBox="0 0 395.52 64.36838180765362" height="64.36838180765362" width="395.52"><g id="textblocktransform"><svg viewBox="0 0 395.52 64.36838180765362" height="64.36838180765362" width="395.52" id="textblock"><g><svg viewBox="0 0 395.52 64.36838180765362" height="64.36838180765362" width="395.52"><g transform="matrix(1,0,0,1,0,0)"><svg width="395.52" viewBox="2.2 -38.38 240.29630136722298 39.11" height="64.36838180765362" data-palette-color="#000000"><path d="M18.6-5.98L18.6-5.98Q20.39-5.98 21.4-6.35 22.41-6.71 22.97-7.25 23.54-7.79 23.95-8.33L23.95-8.33Q24.34-8.81 24.6-9.06 24.85-9.3 25.32-9.4L25.32-9.4Q25.71-9.52 26.57-9.56 27.44-9.59 28.31-9.59 29.17-9.59 29.52-9.55L29.52-9.55Q30.03-9.52 30.22-9.35L30.22-9.35Q30.42-9.18 30.47-8.62L30.47-8.62Q30.54-7.84 30.55-6.76 30.57-5.69 30.52-4.91L30.52-4.91Q30.49-4.66 30.43-4.49 30.37-4.32 30.18-3.98L30.18-3.98Q29.93-3.59 29.22-2.84 28.52-2.1 27.15-1.31 25.78-0.51 23.62 0.05 21.46 0.61 18.31 0.61L18.31 0.61Q14.94 0.61 12.01-0.26 9.08-1.12 6.87-3.17 4.66-5.22 3.43-8.72 2.2-12.21 2.2-17.43L2.2-17.43Q2.2-23.24 4.21-27.31 6.23-31.37 9.94-33.5 13.65-35.62 18.73-35.62L18.73-35.62Q22.29-35.62 24.45-34.89 26.61-34.16 27.73-33.17 28.86-32.18 29.32-31.45L29.32-31.45Q29.49-31.18 29.57-30.97 29.64-30.76 29.66-30.32L29.66-30.32Q29.74-29.74 29.7-28.61 29.66-27.49 29.52-26.64L29.52-26.64Q29.42-26.1 29.2-25.93L29.2-25.93Q29.1-25.83 28.86-25.76 28.61-25.68 28.13-25.68L28.13-25.68Q27.34-25.68 26.37-25.74 25.39-25.81 24.9-25.88L24.9-25.88Q24.32-25.98 24.05-26.16 23.78-26.34 23.51-26.73L23.51-26.73Q23.07-27.37 22-28.2 20.92-29.03 18.46-29.03L18.46-29.03Q14.99-29.03 12.74-26.35 10.5-23.68 10.5-17.7L10.5-17.7Q10.5-11.74 12.85-8.86 15.21-5.98 18.6-5.98ZM43.63-1.83L38.52 0.51Q38.01 0.73 37.79 0.73L37.79 0.73Q37.57 0.73 37.33 0.56L37.33 0.56Q36.77 0.17 36.04-1.35 35.32-2.88 35.32-6.05L35.32-6.05 35.32-34.33Q35.32-34.91 35.57-35.23L35.57-35.23Q36.59-36.57 38.57-38.13L38.57-38.13Q38.91-38.38 39.18-38.38L39.18-38.38Q39.5-38.38 39.79-38.13L39.79-38.13Q40.84-37.33 41.56-36.62 42.28-35.91 42.8-35.23L42.8-35.23Q43.04-34.91 43.04-34.33L43.04-34.33 43.04-7.54Q43.04-5.93 43.31-4.8 43.58-3.66 43.94-2.98L43.94-2.98Q44.36-2.17 43.63-1.83L43.63-1.83ZM61.71 0.61L61.71 0.61Q55.56 0.61 51.97-2.66 48.38-5.93 48.38-12.4L48.38-12.4Q48.38-19.04 52.11-22.33 55.83-25.61 62.06-25.61L62.06-25.61Q68.06-25.61 71.67-22.38 75.29-19.14 75.29-12.84L75.29-12.84Q75.29-6.27 71.67-2.83 68.06 0.61 61.71 0.61ZM61.96-5.3L61.96-5.3Q64.64-5.3 66.01-6.97 67.38-8.64 67.38-12.7L67.38-12.7Q67.38-16.55 66-18.13 64.62-19.7 61.91-19.7L61.91-19.7Q59.3-19.7 57.8-18.01 56.29-16.31 56.29-12.5L56.29-12.5Q56.29-8.52 57.72-6.91 59.15-5.3 61.96-5.3ZM92.99-25.61L92.99-25.61Q95.89-25.61 97.21-25.13 98.53-24.66 98.87-24.39L98.87-24.39Q99.41-24.05 99.7-23.51L99.7-23.51Q99.87-23.24 100.09-22.58 100.31-21.92 100.41-21.14L100.41-21.14Q100.53-20.53 100.43-20.28 100.33-20.02 99.82-19.65L99.82-19.65Q99.24-19.26 98.54-18.96 97.84-18.65 97.4-18.53L97.4-18.53Q97.04-18.43 96.84-18.48 96.65-18.53 96.31-18.77L96.31-18.77Q95.92-19.04 95.21-19.37 94.5-19.7 93.25-19.7L93.25-19.7Q91.67-19.7 90.24-18.92 88.81-18.14 87.92-16.58 87.03-15.01 87.03-12.67L87.03-12.67Q87.03-9.16 88.87-7.23 90.72-5.3 93.82-5.3L93.82-5.3Q95.4-5.3 96.45-5.63 97.5-5.96 98.11-6.3L98.11-6.3Q98.6-6.57 98.86-6.43 99.11-6.3 99.26-5.96L99.26-5.96 101.04-1.93Q101.31-1.29 100.75-1.03L100.75-1.03Q99.85-0.56 97.77 0.02 95.7 0.61 92.64 0.61L92.64 0.61Q86.52 0.61 82.85-2.65 79.19-5.91 79.19-12.4L79.19-12.4Q79.19-16.55 80.88-19.51 82.56-22.46 85.66-24.04 88.76-25.61 92.99-25.61ZM112.73-10.21L112.73-1.29Q112.73-0.56 112.43-0.28 112.12 0 111.39 0L111.39 0 106.36 0Q105.63 0 105.32-0.28 105.02-0.56 105.02-1.29L105.02-1.29 105.02-34.33Q105.02-34.91 105.26-35.23L105.26-35.23Q106.29-36.57 108.27-38.13L108.27-38.13Q108.61-38.38 108.88-38.38L108.88-38.38Q109.19-38.38 109.49-38.13L109.49-38.13Q110.54-37.33 111.26-36.62 111.98-35.91 112.49-35.23L112.49-35.23Q112.73-34.91 112.73-34.33L112.73-34.33 112.73-15.16 113.03-15.16Q116.74-15.16 118.07-16.49 119.4-17.82 119.4-20.19L119.4-20.19 119.4-21.51Q119.4-22.09 119.64-22.41L119.64-22.41Q120.67-23.75 122.65-25.32L122.65-25.32Q122.99-25.56 123.26-25.56L123.26-25.56Q123.57-25.56 123.87-25.32L123.87-25.32Q124.92-24.51 125.64-23.8 126.36-23.1 126.87-22.41L126.87-22.41Q127.11-22.09 127.11-21.51L127.11-21.51 127.11-20.19Q127.11-18.8 126.56-17.11 126.02-15.43 124.57-14.14 123.13-12.84 120.47-12.62L120.47-12.62 120.47-12.5Q122.52-11.6 124.01-10.11 125.5-8.62 126.5-6.92 127.5-5.22 128.05-3.67 128.6-2.12 128.77-1.05L128.77-1.05Q128.95 0 128.07 0L128.07 0 121.65 0Q120.82 0 120.69-1L120.69-1Q120.52-2.15 119.95-3.7 119.37-5.25 118.41-6.74 117.45-8.23 116.09-9.22 114.74-10.21 113.03-10.21L113.03-10.21 112.73-10.21ZM143.4 0.59L143.4 0.59Q140.3 0.59 138.26 0.02 136.22-0.54 134.99-1.38 133.75-2.22 133.09-3.05L133.09-3.05Q132.87-3.37 132.7-3.66 132.53-3.96 132.46-4.32L132.46-4.32Q132.36-4.81 132.26-5.6 132.17-6.4 132.24-7.45L132.24-7.45Q132.26-7.89 132.41-8.06L132.41-8.06Q132.58-8.25 132.97-8.35L132.97-8.35Q133.68-8.52 134.81-8.65 135.95-8.79 136.44-8.79L136.44-8.79Q136.95-8.79 137.27-8.59 137.59-8.4 138.02-7.93L138.02-7.93Q138.51-7.42 139.71-6.63 140.91-5.83 143.4-5.83L143.4-5.83Q145.79-5.83 147.01-6.84 148.23-7.84 148.23-9.62L148.23-9.62Q148.23-10.57 147.66-11.41 147.08-12.26 145.57-13.1 144.05-13.94 141.25-14.87L141.25-14.87Q136.61-16.43 134.56-18.75 132.51-21.07 132.51-25.2L132.51-25.2Q132.51-28.61 134.17-30.91 135.83-33.2 138.76-34.38 141.69-35.55 145.52-35.55L145.52-35.55Q148.47-35.55 150.41-34.85 152.36-34.16 153.43-33.29 154.5-32.42 154.82-31.88L154.82-31.88Q155.02-31.57 155.08-31.41 155.14-31.25 155.16-30.98L155.16-30.98Q155.24-30.22 155.21-29.3 155.19-28.37 155.04-27.2L155.04-27.2Q154.97-26.81 154.77-26.66L154.77-26.66Q154.6-26.54 154.24-26.54L154.24-26.54Q151.87-26.49 150.57-26.78L150.57-26.78Q150.06-26.9 149.89-27.03 149.72-27.15 149.45-27.42L149.45-27.42Q149.06-27.88 148.22-28.5 147.38-29.13 145.52-29.13L145.52-29.13Q142.96-29.13 141.88-27.97 140.81-26.81 140.81-25.37L140.81-25.37Q140.81-23.66 142.39-22.69 143.98-21.73 147.4-20.51L147.4-20.51Q150.26-19.51 152.31-18.33 154.36-17.16 155.44-15.33 156.53-13.5 156.53-10.5L156.53-10.5Q156.53-6.76 154.81-4.3 153.09-1.83 150.12-0.62 147.16 0.59 143.4 0.59ZM169.74-16.46L169.74-1.29Q169.74-0.56 169.43-0.28 169.13 0 168.39 0L168.39 0 163.36 0Q162.63 0 162.33-0.28 162.02-0.56 162.02-1.29L162.02-1.29 162.02-34.33Q162.02-34.91 162.27-35.23L162.27-35.23Q163.29-36.57 165.27-38.13L165.27-38.13Q165.61-38.38 165.88-38.38L165.88-38.38Q166.2-38.38 166.49-38.13L166.49-38.13Q167.54-37.33 168.26-36.62 168.98-35.91 169.49-35.23L169.49-35.23Q169.74-34.91 169.74-34.33L169.74-34.33 169.74-22.49 169.83-22.49Q170.37-23.19 171.23-23.91 172.08-24.63 173.51-25.12 174.94-25.61 177.16-25.61L177.16-25.61Q179.4-25.61 181.48-24.68 183.55-23.75 184.87-21.56 186.19-19.36 186.19-15.55L186.19-15.55 186.19-1.29Q186.19-0.56 185.89-0.28 185.58 0 184.85 0L184.85 0 179.82 0Q179.09 0 178.78-0.28 178.48-0.56 178.48-1.29L178.48-1.29 178.48-14.21Q178.48-16.92 177.35-18.15 176.23-19.38 174.3-19.38L174.3-19.38Q172.4-19.38 171.35-18.55 170.3-17.72 169.74-16.46L169.74-16.46ZM191.66-33.2L191.66-33.2Q191.66-33.52 191.85-33.76 192.05-34.01 192.37-34.4L192.37-34.4Q193.05-35.18 193.95-36.05 194.86-36.91 195.78-37.72L195.78-37.72Q196.37-38.18 196.66-38.18L196.66-38.18Q196.96-38.18 197.57-37.72L197.57-37.72Q199.54-36.01 200.93-34.4L200.93-34.4Q201.25-34.03 201.46-33.78 201.67-33.52 201.67-33.2L201.67-33.2Q201.67-32.89 201.46-32.64 201.25-32.4 200.91-31.98L200.91-31.98Q200.25-31.23 199.37-30.36 198.49-29.49 197.57-28.71L197.57-28.71Q197.22-28.42 197.03-28.33 196.83-28.25 196.66-28.25L196.66-28.25Q196.49-28.25 196.31-28.33 196.13-28.42 195.73-28.71L195.73-28.71Q194.76-29.49 193.9-30.36 193.05-31.23 192.37-32.03L192.37-32.03Q192.05-32.42 191.85-32.65 191.66-32.89 191.66-33.2ZM200.5-23.71L200.5-1.29Q200.5-0.56 200.19-0.28 199.88 0 199.15 0L199.15 0 194.12 0Q193.39 0 193.09-0.28 192.78-0.56 192.78-1.29L192.78-1.29 192.78-23.71Q192.78-24.44 193.09-24.72 193.39-25 194.12-25L194.12-25 199.15-25Q199.88-25 200.19-24.72 200.5-24.44 200.5-23.71L200.5-23.71ZM216.83-19.31L216.83-1.29Q216.83-0.56 216.52-0.28 216.22 0 215.48 0L215.48 0 210.45 0Q209.72 0 209.42-0.28 209.11-0.56 209.11-1.29L209.11-1.29 209.11-19.31 206.23-19.31Q205.5-19.31 205.22-19.62 204.94-19.92 204.94-20.65L204.94-20.65 204.94-23.66Q204.94-24.39 205.22-24.69 205.5-25 206.23-25L206.23-25 209.11-25 209.11-28.1Q209.11-31.05 210.29-33.18 211.48-35.3 213.49-36.45 215.51-37.6 217.97-37.6L217.97-37.6Q219.12-37.6 219.72-37.5 220.32-37.4 220.61-37.21L220.61-37.21Q221.56-36.67 223.25-35.01L223.25-35.01Q223.52-34.72 223.52-34.42L223.52-34.42Q223.52-34.11 223.1-33.69L223.1-33.69Q222.37-32.93 221.71-32.41 221.05-31.88 220.63-31.62L220.63-31.62Q220.27-31.4 219.99-31.36 219.71-31.32 219.22-31.32L219.22-31.32Q216.83-31.32 216.83-27.66L216.83-27.66 216.83-25 221.24-25Q221.98-25 222.26-24.69 222.54-24.39 222.54-23.66L222.54-23.66 222.54-20.65Q222.54-19.92 222.26-19.62 221.98-19.31 221.24-19.31L221.24-19.31 216.83-19.31ZM236.11 0.61L236.11 0.61Q227.96 0.61 227.96-7.86L227.96-7.86 227.96-19.31 225.2-19.31Q224.46-19.31 224.18-19.62 223.9-19.92 223.9-20.65L223.9-20.65 223.9-23.66Q223.9-24.39 224.18-24.69 224.46-25 225.2-25L225.2-25 227.96-25 227.96-28.93Q227.96-29.52 228.2-29.83L228.2-29.83Q229.23-31.18 231.2-32.74L231.2-32.74Q231.54-32.98 231.81-32.98L231.81-32.98Q232.11-32.98 232.4-32.74L232.4-32.74Q233.45-31.93 234.17-31.23 234.89-30.52 235.4-29.83L235.4-29.83Q235.65-29.52 235.65-28.93L235.65-28.93 235.65-25 239.97-25Q240.7-25 240.98-24.69 241.26-24.39 241.26-23.66L241.26-23.66 241.26-20.65Q241.26-19.92 240.98-19.62 240.7-19.31 239.97-19.31L239.97-19.31 235.65-19.31 235.65-9.2Q235.65-5.3 238.48-5.3L238.48-5.3Q238.92-5.3 239.28-5.38 239.65-5.47 239.92-5.57L239.92-5.57Q240.43-5.76 240.64-5.71 240.85-5.66 241.02-5.18L241.02-5.18 242.43-1.39Q242.65-0.78 242.14-0.51L242.14-0.51Q241.77-0.34 240.37 0.13 238.97 0.61 236.11 0.61Z" opacity="1" transform="matrix(1,0,0,1,0,0)" fill="#000000" class="wordmark-text-0" data-fill-palette-color="primary" id="text-0"></path></svg></g></svg></g></svg></g></svg></g><g transform="matrix(1,0,0,1,0,0.1609209545191277)"><svg viewBox="0 0 64.3616385225791 64.36838180765362" height="64.36838180765362" width="64.3616385225791"><g><svg xmlns="http://www.w3.org/2000/svg" xmlns:xlink="http://www.w3.org/1999/xlink" version="1.1" x="0" y="0" viewBox="2.747797534462158 2.746655762766956 26.50377777953885 26.50655462819003" enable-background="new 0 0 32 32" xml:space="preserve" height="64.36838180765362" width="64.3616385225791" class="icon-icon-0" data-fill-palette-color="accent" id="icon-0"><path d="M17.501 16L17.001 8.124A1 1 0 0 0 15.001 8.124L14.535 15.467 11.531 17.427A1 1 0 0 0 11.166 18.792 1 1 0 0 0 12.531 19.159L15.836 17.482C15.89 17.49 15.944 17.5 16.001 17.5 16.83 17.501 17.501 16.83 17.501 16M19.439 21.956A0.997 0.997 0 0 0 19.073 23.323 0.999 0.999 0 1 0 20.804 22.323 1 1 0 0 0 19.439 21.956M20.438 8.313A0.985 0.985 0 0 0 19.084 8.679 1.017 1.017 0 0 0 19.439 10.046 1 1 0 1 0 20.438 8.313M22.323 20.806A1 1 0 0 0 23.687 20.441 0.995 0.995 0 0 0 23.323 19.087 1.017 1.017 0 0 0 21.956 19.441 1 1 0 0 0 22.323 20.806M23.322 12.928A1 1 0 1 0 22.32 11.199 1 1 0 0 0 23.322 12.928M24.878 16A1.001 1.001 0 1 0 22.876 16.002 1.001 1.001 0 0 0 24.878 16M10.046 12.562A1 1 0 1 0 8.314 11.562 1 1 0 0 0 10.046 12.562M7.125 16A1 1 0 1 0 9.125 16 1 1 0 0 0 7.126 16M9.68 20.806A1 1 0 0 0 10.047 19.439 0.99 0.99 0 0 0 8.68 19.085 0.99 0.99 0 0 0 8.315 20.44 1 1 0 0 0 9.68 20.806M12.562 10.045A1 1 0 1 0 11.563 8.313 1 1 0 0 0 12.562 10.045M15.001 23.878A1 1 0 1 0 17.001 23.878 1 1 0 0 0 15 23.879M11.196 22.323A1 1 0 0 0 11.562 23.688 1.01 1.01 0 0 0 12.927 23.323 1 1 0 1 0 11.196 22.323M29.174 14.587L25.904 13.401C26.195 14.506 26.314 15.675 26.213 16.879 25.721 22.518 20.764 26.688 15.123 26.212A10.26 10.26 0 0 1 5.79 15.122C6.284 9.481 11.239 5.31 16.879 5.787A10.17 10.17 0 0 1 23.072 8.621L21.435 9.998 28.456 12.546 27.144 5.182 25.38 6.673C23.247 4.522 20.387 3.076 17.13 2.796 9.847 2.17 3.426 7.573 2.797 14.865 2.172 22.156 7.574 28.575 14.863 29.204 22.156 29.829 28.576 24.428 29.205 17.138 29.279 16.271 29.262 15.419 29.174 14.587" fill="#ff851b" data-fill-palette-color="accent"></path></svg></g></svg></g></svg></g><defs></defs></svg><rect width="395.52" height="51.577114538541" fill="none" stroke="none" visibility="hidden"></rect></g></svg></g></svg>