<?xml version="1.0" encoding="iso-8859-1"?>
<!-- Uploaded to: SVG Repo, www.svgrepo.com, Generator: SVG Repo Mixer Tools -->
<svg height="800px" width="800px" version="1.1" id="Layer_1" xmlns="http://www.w3.org/2000/svg" xmlns:xlink="http://www.w3.org/1999/xlink" 
	 viewBox="0 0 512 512" xml:space="preserve">
<path style="fill:#F7B239;" d="M467.365,420.134c11.25,19.477-2.81,43.834-25.31,43.834H29.27c-22.501,0-36.56-24.358-25.31-43.834
	L210.358,62.648c11.238-19.489,39.358-19.489,50.608,0l83.49,144.623l-11.468,26.826l-21.295,5.937l-76.038-131.706L56.176,419.205
	h358.973l-86.847-150.409l9.449-33.112l23.314,0.349L467.365,420.134z"/>
<path style="fill:#CCCCCC;" d="M507.294,67.113c-3.131-3.131-7.238-4.702-11.334-4.702c-4.107,0-8.215,1.571-11.346,4.702
	L344.457,207.271l-32.763,32.763l-55.263,55.263c-9.429-2-19.643,0.667-26.965,7.988c-11.5,11.5-11.5,30.156,0,41.668
	c11.512,11.5,30.167,11.5,41.668,0c7.322-7.322,9.988-17.548,7.988-26.977l49.18-49.18l32.763-32.763l146.23-146.23
	C513.568,83.542,513.568,73.387,507.294,67.113z"/>
<path style="opacity:0.25;fill:#4D4D4D;enable-background:new    ;" d="M279.122,317.976c-1.143-5.381-3.81-10.512-7.988-14.691
	c-2.435-2.435-5.198-4.339-8.142-5.745c1.006,2.107,1.764,4.302,2.241,6.547c2,9.429-0.667,19.655-7.988,26.977
	c-9.062,9.063-22.558,10.951-33.509,5.731c1.405,2.945,3.293,5.718,5.731,8.159c11.512,11.5,30.167,11.5,41.668,0
	C278.455,337.631,281.122,327.405,279.122,317.976z"/>
</svg>