<?xml version="1.0" encoding="utf-8"?>
<!-- Generator: Adobe Illustrator 27.5.0, SVG Export Plug-In . SVG Version: 6.00 Build 0)  -->
<svg version="1.1" xmlns="http://www.w3.org/2000/svg" xmlns:xlink="http://www.w3.org/1999/xlink" x="0px" y="0px"
	 viewBox="0 0 750 500" style="enable-background:new 0 0 750 500;" xml:space="preserve">
<g id="BACKGROUND">
	<g>
		<g>
			<g>
				<g>
					<rect style="fill:#FFFFFF;" width="750" height="500"/>
				</g>
			</g>
		</g>
		<path style="fill:#DFF1F4;" d="M536.968,95.026c-24.464-0.146-47.623,5.378-68.242,15.333c-8.261,3.989-17.912,4.133-26.165,0.128
			C422.142,100.58,399.22,95.023,375,95.023s-47.142,5.557-67.561,15.464c-8.253,4.004-17.904,3.86-26.165-0.128
			c-20.619-9.955-43.778-15.479-68.242-15.333c-83.195,0.497-151.675,67.427-153.97,150.591
			c-2.417,87.593,67.869,159.36,154.916,159.36c24.217,0,47.135-5.556,67.552-15.46c8.165-3.961,17.752-3.961,25.917,0
			c20.417,9.905,43.336,15.46,67.552,15.46c24.217,0,47.135-5.556,67.552-15.46c8.165-3.961,17.752-3.961,25.917,0
			c20.417,9.905,43.336,15.46,67.552,15.46c87.048,0,157.334-71.767,154.916-159.36C688.643,162.452,620.163,95.523,536.968,95.026z
			"/>
	</g>
</g>
<g id="OBJECTS">
	<g>
		<path style="fill:none;stroke:#FFB692;stroke-width:9;stroke-miterlimit:10;" d="M314.161,270.762
			c-37.947,14.15-50.87,18.461-72.397-16.528"/>
		<path style="fill:#0180AB;" d="M249.696,277.056l-14.039-12.692c-3.765-3.754-3.774-9.849-0.021-13.614h0
			c3.754-3.765,9.849-3.774,13.614-0.02l14.039,12.692L249.696,277.056z"/>
		<g>
			<g>
				<path style="fill:#FFB692;" d="M308.739,276.121l-0.879-1.628c-2.463-4.561-1.134-10.054,2.968-12.268l0,0
					c4.102-2.215,3.378,4.44,11.886,4.248l0.879,1.629c2.463,4.561,1.134,10.054-2.968,12.268l0,0
					C316.523,282.584,311.202,280.682,308.739,276.121z"/>
			</g>
			<path style="fill:#FFB692;" d="M314.048,266.423L314.048,266.423c-0.802-1.036-0.611-2.54,0.425-3.343l12.103-7.62
				c1.036-0.802,2.54-0.611,3.343,0.426l0,0c0.802,1.036,0.611,2.54-0.426,3.342l-12.103,7.62
				C316.355,267.651,314.85,267.459,314.048,266.423z"/>
			<path style="fill:#FFB692;" d="M318.036,269.28L318.036,269.28c-0.732-1.087-0.443-2.575,0.643-3.308l12.576-6.811
				c1.087-0.733,2.575-0.443,3.308,0.643l0,0c0.733,1.087,0.443,2.575-0.644,3.307l-12.576,6.812
				C320.258,270.656,318.769,270.367,318.036,269.28z"/>
			<path style="fill:#FFB692;" d="M319.811,273.395L319.811,273.395c-0.663-1.13-0.282-2.598,0.848-3.261l12.976-6.014
				c1.13-0.663,2.598-0.281,3.261,0.849l0,0c0.663,1.13,0.282,2.598-0.849,3.261l-12.976,6.014
				C321.942,274.907,320.475,274.525,319.811,273.395z"/>
			<path style="fill:#FFB692;" d="M317.215,279.532L317.215,279.532c-0.613-1.158-0.167-2.607,0.991-3.221l13.228-5.437
				c1.158-0.613,2.608-0.167,3.221,0.991l0,0c0.613,1.158,0.167,2.607-0.991,3.22l-13.228,5.437
				C319.277,281.136,317.828,280.69,317.215,279.532z"/>
			<path style="fill:#FFB692;" d="M307.727,265.382l5.764-11.43c0,0,4.971,3.419,2.647,7.617c-2.324,4.198-4.542,8.244-4.542,8.244
				L307.727,265.382z"/>
			<path style="fill:#D88D87;" d="M327.672,260.375c-0.664,0.525-1.352,1.012-2.046,1.489c-0.688,0.487-1.407,0.925-2.109,1.389
				c-0.713,0.448-1.436,0.878-2.162,1.304c-0.735,0.412-1.472,0.821-2.24,1.18c0.658-0.535,1.348-1.019,2.038-1.501
				c0.7-0.468,1.403-0.931,2.116-1.377c0.724-0.429,1.432-0.885,2.17-1.292C326.172,261.151,326.91,260.744,327.672,260.375z"/>
			<path style="fill:#D88D87;" d="M333.73,263.215c-0.875,0.578-1.771,1.118-2.672,1.647c-0.896,0.539-1.82,1.027-2.728,1.543
				c-0.918,0.498-1.846,0.979-2.776,1.455c-0.938,0.461-1.878,0.92-2.846,1.326c0.869-0.589,1.767-1.125,2.665-1.66
				c0.907-0.519,1.816-1.034,2.735-1.53c0.929-0.479,1.842-0.986,2.783-1.442C331.826,264.088,332.767,263.632,333.73,263.215z"/>
			<path style="fill:#D88D87;" d="M335.465,268.501c-0.899,0.522-1.817,1.003-2.74,1.474c-0.918,0.481-1.861,0.91-2.79,1.367
				c-0.938,0.439-1.884,0.86-2.832,1.276c-0.956,0.401-1.912,0.799-2.894,1.143c0.894-0.533,1.813-1.011,2.734-1.487
				c0.927-0.461,1.857-0.917,2.796-1.354c0.947-0.419,1.881-0.867,2.838-1.263C333.53,269.251,334.488,268.856,335.465,268.501z"/>
		</g>
	</g>
	<g>
		<g>
			<g>
				<g>
					<path style="fill:none;stroke:#25576B;stroke-miterlimit:10;" d="M678.5,420.168c0,0,16.826-6.779,14.404-29.331"/>
					<path style="fill:#EDCB3A;" d="M695.153,389.111c0.301,1.384-0.577,2.749-1.961,3.05c-1.384,0.301-2.749-0.577-3.05-1.961
						c-0.3-1.384,0.577-2.749,1.961-3.05C693.487,386.85,694.852,387.728,695.153,389.111z"/>
				</g>
				<g>
					<path style="fill:none;stroke:#25576B;stroke-miterlimit:10;" d="M679.938,419.362c0,0,18.084,1.429,25.965-19.84"/>
					<path style="fill:#EDCB3A;" d="M708.684,398.98c-0.347,1.373-1.742,2.204-3.114,1.856c-1.373-0.347-2.204-1.742-1.856-3.114
						c0.347-1.373,1.742-2.204,3.114-1.856C708.201,396.213,709.032,397.607,708.684,398.98z"/>
				</g>
				<g>
					<path style="fill:#5F7A2A;" d="M708.679,419.514L708.679,419.514L708.679,419.514c-8.887,23.952-35.508,36.165-59.461,27.279
						l0,0C658.105,422.84,684.726,410.627,708.679,419.514z"/>
					<path style="fill:#709632;" d="M686.01,393.235L686.01,393.235L686.01,393.235c4.908,25.072-11.438,49.375-36.51,54.283v0
						C644.592,422.447,660.938,398.143,686.01,393.235z"/>
				</g>
			</g>
		</g>
		<g>
			<g>
				<path style="fill:#DC804D;" d="M115.195,446.556c-39.492-15.879-32.571-35.014-22.393-51.707
					c10.178-16.693-15.878-43.157-12.621-59.035c3.257-15.878,49.671-32.164,58.628,13.435c8.957,45.6,67.585,18.321,56.185,75.321
					L115.195,446.556z"/>
				<g>
					<g>
						<path style="fill:none;stroke:#DC804D;stroke-miterlimit:10;" d="M104.963,438.299c0,0-34.419-4.347-54.348-66.367"/>
						<path style="fill:#E59F01;" d="M58.449,392.817L58.449,392.817c-9.499,5.701-21.821,2.623-27.523-6.876v0
							C40.425,380.239,52.747,383.318,58.449,392.817z"/>
						<path style="fill:#E59F01;" d="M51.711,376.128L51.711,376.128c-9.664-5.417-13.106-17.643-7.689-27.307l0,0
							C53.686,354.239,57.129,366.465,51.711,376.128z"/>
						<path style="fill:#E59F01;" d="M68.249,409.832L68.249,409.832c-6.892,8.674-19.511,10.118-28.185,3.225h0
							C46.957,404.383,59.576,402.939,68.249,409.832z"/>
						<path style="fill:#E59F01;" d="M79.934,424.775L79.934,424.775c-5.91,9.371-18.297,12.177-27.668,6.267l0,0
							C58.175,421.672,70.563,418.866,79.934,424.775z"/>
						<path style="fill:#E59F01;" d="M90.257,397.27L90.257,397.27c4.879,9.947,0.771,21.965-9.175,26.844l0,0
							C76.202,414.168,80.31,402.15,90.257,397.27z"/>
						<path style="fill:#E59F01;" d="M80.816,384.513L80.816,384.513c3.502,10.511-2.18,21.87-12.69,25.372h0
							C64.624,399.375,70.305,388.015,80.816,384.513z"/>
						<path style="fill:#E59F01;" d="M68.489,366.071L68.489,366.071c4.668,10.047,0.307,21.976-9.74,26.644l0,0
							C54.081,382.668,58.442,370.739,68.489,366.071z"/>
					</g>
				</g>
				<path style="fill:none;stroke:#E59F01;stroke-miterlimit:10;" d="M147.359,432.306c-16.286-62.699-29.314-88.756-45.192-98.935"
					/>
			</g>
			<g>
				<path style="fill:#DC804D;" d="M267.071,376.896c6.827,27.987-10.326,56.209-38.312,63.036l0,0v0
					C221.931,411.946,239.084,383.723,267.071,376.896L267.071,376.896L267.071,376.896z"/>
				<path style="fill:#E59F01;" d="M95.351,449.635h229.81c0,0-30.361-38.96-93.432-31.776c0,0-27.419-25.959-74.25-24.215
					C99.627,395.799,95.351,449.635,95.351,449.635z"/>
				<path style="fill:#EDCB3A;" d="M191.816,363.133c-6.827,27.987,10.326,56.209,38.312,63.036l0,0l0,0
					C236.956,398.182,219.803,369.96,191.816,363.133L191.816,363.133L191.816,363.133z"/>
			</g>
		</g>
		<g>
			<g>
				<path style="fill:#5F7A2A;" d="M634.805,446.556c39.492-15.879,32.571-35.014,22.393-51.707
					c-10.178-16.693,15.878-43.157,12.621-59.035c-3.257-15.878-49.671-32.164-58.628,13.435
					c-8.957,45.6-67.585,18.321-56.185,75.321L634.805,446.556z"/>
				<path style="fill:none;stroke:#9DC11E;stroke-width:2;stroke-miterlimit:10;" d="M602.641,432.306
					c16.286-62.699,29.314-88.756,45.192-98.935"/>
			</g>
			<g>
				<path style="fill:#709632;" d="M482.929,376.896c-6.827,27.987,10.326,56.209,38.312,63.036l0,0v0
					C528.069,411.946,510.916,383.723,482.929,376.896L482.929,376.896L482.929,376.896z"/>
				<path style="fill:#9DC11E;" d="M654.649,449.635h-229.81c0,0,30.361-38.96,93.432-31.776c0,0,24.09-35.003,70.91-33.003
					C651.699,387.528,654.649,449.635,654.649,449.635z"/>
				<path style="fill:#5F7A2A;" d="M558.184,363.133c6.827,27.987-10.326,56.209-38.312,63.036l0,0l0,0
					C513.044,398.182,530.197,369.96,558.184,363.133L558.184,363.133L558.184,363.133z"/>
			</g>
		</g>
	</g>
	<rect x="59.639" y="448.695" style="fill:#3E5C70;" width="630.722" height="3.161"/>
	<g>
		<g>
			<circle style="fill:#A6C7C9;" cx="375" cy="140.054" r="75.07"/>
			<g>
				<circle style="fill:#E59F01;" cx="375" cy="128.549" r="75.07"/>
				
					<ellipse transform="matrix(0.231 -0.973 0.973 0.231 163.3171 463.7208)" style="fill:#DC804D;" cx="375" cy="128.549" rx="68.47" ry="68.47"/>
				<g>
					<circle style="fill:#DFF1F4;" cx="375" cy="128.549" r="64.247"/>
					
						<ellipse transform="matrix(0.2298 -0.9732 0.9732 0.2298 163.7324 463.9828)" style="fill:#FFFFFF;" cx="375" cy="128.549" rx="60.02" ry="60.02"/>
					<path style="fill:#C3E1E5;" d="M426.898,98.387L375,128.549h59.219l0.799,0.057c0-0.019,0.001-0.038,0.001-0.057
						C435.02,117.553,432.06,107.25,426.898,98.387z"/>
					<g>
						<path style="fill:#1D3244;" d="M377.014,69.33c0,1.112-0.902,2.014-2.014,2.014s-2.014-0.902-2.014-2.014
							s0.902-2.014,2.014-2.014S377.014,68.217,377.014,69.33z"/>
						<path style="fill:#1D3244;" d="M347.214,77.213c0,1.112-0.901,2.014-2.014,2.014c-1.112,0-2.014-0.901-2.014-2.014
							c0-1.112,0.902-2.014,2.014-2.014C346.312,75.199,347.214,76.1,347.214,77.213z"/>
						<circle style="fill:#1D3244;" cx="323.731" cy="98.801" r="2.014"/>
						<path style="fill:#1D3244;" d="M318.052,128.549c0,1.112-0.901,2.014-2.014,2.014c-1.112,0-2.014-0.902-2.014-2.014
							c0-1.112,0.902-2.014,2.014-2.014C317.15,126.535,318.052,127.437,318.052,128.549z"/>
						<path style="fill:#1D3244;" d="M325.935,158.289c0,1.112-0.902,2.014-2.014,2.014c-1.112,0-2.014-0.902-2.014-2.014
							c0-1.112,0.901-2.014,2.014-2.014C325.033,156.276,325.935,157.177,325.935,158.289z"/>
						<path style="fill:#1D3244;" d="M347.553,179.609c0,1.112-0.902,2.014-2.014,2.014s-2.014-0.902-2.014-2.014
							c0-1.112,0.902-2.014,2.014-2.014S347.553,178.497,347.553,179.609z"/>
						<path style="fill:#1D3244;" d="M377.014,187.768c0,1.112-0.902,2.014-2.014,2.014s-2.014-0.902-2.014-2.014
							c0-1.112,0.902-2.014,2.014-2.014S377.014,186.656,377.014,187.768z"/>
						<circle style="fill:#1D3244;" cx="405.133" cy="179.609" r="2.014"/>
						<path style="fill:#1D3244;" d="M428.526,158.289c0,1.112-0.902,2.014-2.014,2.014c-1.112,0-2.014-0.902-2.014-2.014
							c0-1.112,0.902-2.014,2.014-2.014C427.624,156.276,428.526,157.177,428.526,158.289z"/>
						<path style="fill:#1D3244;" d="M436.233,128.549c0,1.112-0.902,2.014-2.014,2.014s-2.014-0.902-2.014-2.014
							c0-1.112,0.902-2.014,2.014-2.014S436.233,127.437,436.233,128.549z"/>
						<path style="fill:#1D3244;" d="M428.526,98.45c0,1.112-0.902,2.014-2.014,2.014c-1.112,0-2.014-0.901-2.014-2.014
							c0-1.112,0.902-2.014,2.014-2.014C427.624,96.437,428.526,97.338,428.526,98.45z"/>
						<path style="fill:#1D3244;" d="M407.052,77.213c0,1.112-0.902,2.014-2.014,2.014c-1.112,0-2.014-0.901-2.014-2.014
							c0-1.112,0.901-2.014,2.014-2.014C406.151,75.199,407.052,76.1,407.052,77.213z"/>
					</g>
					<path style="fill:#EDCB3A;" d="M375,77.541c-1.704,0-3.086,1.382-3.086,3.086v44.836c0,1.704,1.382,3.086,3.086,3.086
						c1.704,0,3.086-1.382,3.086-3.086V80.627C378.086,78.923,376.704,77.541,375,77.541z"/>
					<path style="fill:#EDCB3A;" d="M412.982,106.772c-0.434-0.765-1.405-1.034-2.17-0.6l-35.6,20.173
						c-0.765,0.434-1.034,1.405-0.6,2.17c0.434,0.765,1.405,1.034,2.17,0.6l35.6-20.173
						C413.146,108.509,413.415,107.537,412.982,106.772z"/>
					<path style="fill:#EAB43B;" d="M382.285,128.549c0,4.023-3.262,7.285-7.285,7.285c-4.023,0-7.285-3.262-7.285-7.285
						c0-4.023,3.262-7.285,7.285-7.285C379.023,121.264,382.285,124.526,382.285,128.549z"/>
					<circle style="fill:#EDCB3A;" cx="375" cy="128.549" r="4.218"/>
					<g>
						<path style="fill:none;stroke:#E71C2E;stroke-width:3;stroke-miterlimit:10;" d="M415.909,91.285
							c8.079,8.864,13.316,20.364,14.27,33.058"/>
						<polygon style="fill:#E71C2E;" points="426.834,122.164 430.469,127.179 432.994,121.522 						"/>
					</g>
				</g>
			</g>
		</g>
		<g>
			<circle style="fill:#A6C7C9;" cx="375" cy="313.206" r="75.07"/>
			<g>
				<circle style="fill:#3EBCE5;" cx="375" cy="301.701" r="75.07"/>
				
					<ellipse transform="matrix(0.7071 -0.7071 0.7071 0.7071 -103.4998 353.5312)" style="fill:#0180AB;" cx="375" cy="301.701" rx="68.47" ry="68.47"/>
				<g>
					
						<ellipse transform="matrix(0.1587 -0.9873 0.9873 0.1587 17.6193 624.0787)" style="fill:#DFF1F4;" cx="375" cy="301.701" rx="64.247" ry="64.247"/>
					
						<ellipse transform="matrix(0.7071 -0.7071 0.7071 0.7071 -103.4998 353.5312)" style="fill:#FFFFFF;" cx="375" cy="301.701" rx="60.02" ry="60.02"/>
					<path style="fill:#C3E1E5;" d="M405.238,249.847L375,301.701l51.497-29.24l0.724-0.345c-0.009-0.017-0.018-0.034-0.028-0.05
						C421.763,262.504,414.103,255.005,405.238,249.847z"/>
					<g>
						<path style="fill:#1D3244;" d="M377.014,242.481c0,1.112-0.902,2.014-2.014,2.014s-2.014-0.901-2.014-2.014
							c0-1.112,0.902-2.014,2.014-2.014S377.014,241.369,377.014,242.481z"/>
						<path style="fill:#1D3244;" d="M347.214,250.364c0,1.112-0.901,2.014-2.014,2.014c-1.112,0-2.014-0.902-2.014-2.014
							c0-1.112,0.902-2.014,2.014-2.014C346.312,248.351,347.214,249.252,347.214,250.364z"/>
						<circle style="fill:#1D3244;" cx="323.731" cy="271.953" r="2.014"/>
						<path style="fill:#1D3244;" d="M318.052,301.701c0,1.112-0.901,2.014-2.014,2.014c-1.112,0-2.014-0.901-2.014-2.014
							c0-1.112,0.902-2.014,2.014-2.014C317.15,299.687,318.052,300.589,318.052,301.701z"/>
						<path style="fill:#1D3244;" d="M325.935,331.441c0,1.112-0.902,2.014-2.014,2.014c-1.112,0-2.014-0.902-2.014-2.014
							s0.901-2.014,2.014-2.014C325.033,329.427,325.935,330.329,325.935,331.441z"/>
						<path style="fill:#1D3244;" d="M347.553,352.761c0,1.112-0.902,2.014-2.014,2.014s-2.014-0.902-2.014-2.014
							c0-1.112,0.902-2.014,2.014-2.014S347.553,351.649,347.553,352.761z"/>
						<path style="fill:#1D3244;" d="M377.014,360.92c0,1.112-0.902,2.014-2.014,2.014s-2.014-0.901-2.014-2.014
							c0-1.112,0.902-2.014,2.014-2.014S377.014,359.808,377.014,360.92z"/>
						<path style="fill:#1D3244;" d="M407.146,352.761c0,1.112-0.902,2.014-2.014,2.014c-1.112,0-2.014-0.902-2.014-2.014
							c0-1.112,0.902-2.014,2.014-2.014C406.245,350.747,407.146,351.649,407.146,352.761z"/>
						<path style="fill:#1D3244;" d="M428.526,331.441c0,1.112-0.902,2.014-2.014,2.014c-1.112,0-2.014-0.902-2.014-2.014
							s0.902-2.014,2.014-2.014C427.624,329.427,428.526,330.329,428.526,331.441z"/>
						<path style="fill:#1D3244;" d="M436.233,301.701c0,1.112-0.902,2.014-2.014,2.014s-2.014-0.901-2.014-2.014
							c0-1.112,0.902-2.014,2.014-2.014S436.233,300.589,436.233,301.701z"/>
						<path style="fill:#1D3244;" d="M428.526,271.602c0,1.112-0.902,2.014-2.014,2.014c-1.112,0-2.014-0.902-2.014-2.014
							s0.902-2.014,2.014-2.014C427.624,269.589,428.526,270.49,428.526,271.602z"/>
						<path style="fill:#1D3244;" d="M407.052,250.364c0,1.112-0.902,2.014-2.014,2.014c-1.112,0-2.014-0.902-2.014-2.014
							c0-1.112,0.901-2.014,2.014-2.014C406.151,248.351,407.052,249.252,407.052,250.364z"/>
					</g>
					<path style="fill:#3EBCE5;" d="M375,250.693c-1.704,0-3.086,1.382-3.086,3.086v44.836c0,1.704,1.382,3.086,3.086,3.086
						c1.704,0,3.086-1.382,3.086-3.086v-44.836C378.086,252.075,376.704,250.693,375,250.693z"/>
					<path style="fill:#3EBCE5;" d="M412.982,279.924c-0.434-0.765-1.405-1.034-2.17-0.6l-35.6,20.173
						c-0.765,0.434-1.034,1.405-0.6,2.17s1.405,1.034,2.17,0.6l35.6-20.173C413.146,281.661,413.415,280.689,412.982,279.924z"/>
					<path style="fill:#0E5EA0;" d="M382.285,301.701c0,4.023-3.262,7.285-7.285,7.285c-4.023,0-7.285-3.262-7.285-7.285
						s3.262-7.285,7.285-7.285C379.023,294.416,382.285,297.677,382.285,301.701z"/>
					<circle style="fill:#0B4463;" cx="375" cy="301.701" r="4.218"/>
					<g>
						<path style="fill:none;stroke:#E71C2E;stroke-width:3;stroke-miterlimit:10;" d="M421.635,272.987
							c-6.555-10.044-16.373-17.998-28.422-22.105"/>
						<polygon style="fill:#E71C2E;" points="394.483,254.666 390.54,249.889 396.649,248.863 						"/>
					</g>
				</g>
			</g>
		</g>
	</g>
	<g>
		<g>
			<path style="fill:none;stroke:#FFB692;stroke-width:10;stroke-miterlimit:10;" d="M525.028,198.134
				c-32.78,20.516-38.406-5.807-56.15-35.815"/>
			<path style="fill:#E59F01;" d="M502.369,197.42l17.183-9.157c4.947-2.334,10.849-0.215,13.182,4.731v0
				c2.334,4.947,0.215,10.849-4.731,13.182l-17.183,9.157L502.369,197.42z"/>
			<g>
				<g>
					<path style="fill:#FFB692;" d="M472.839,167.663l1.352-1.134c3.788-3.175,4.543-8.51,1.688-11.916l0,0
						c-2.855-3.406-8.24-3.593-12.028-0.418l-1.352,1.134c-3.787,3.175-4.543,8.51-1.687,11.916l0,0
						C463.666,170.651,469.051,170.839,472.839,167.663z"/>
				</g>
				<path style="fill:#FFB692;" d="M470.798,154.933L470.798,154.933c1.075-0.636,1.435-2.036,0.799-3.112l-8.043-11.012
					c-0.636-1.076-2.036-1.435-3.112-0.799l0,0c-1.076,0.636-1.435,2.036-0.799,3.112l8.043,11.012
					C468.322,155.209,469.723,155.569,470.798,154.933z"/>
				<path style="fill:#FFB692;" d="M477.515,158.503l-1.085-12.157c0,0-5.608,1.281-5.026,5.818
					c0.582,4.538,1.124,8.904,1.124,8.904L477.515,158.503z"/>
				<path style="fill:#FFB692;" d="M455.62,156.244c0.9-0.666,2.138-0.559,2.921,0.192l-0.337-0.416
					c-0.744-1.004-0.53-2.434,0.474-3.177c0.822-0.608,1.923-0.566,2.706,0.016c-0.518-0.975-0.267-2.214,0.645-2.889
					c1.004-0.743,2.434-0.53,3.178,0.474l5.836,7.2c0.743,1.004,0.53,2.434-0.474,3.178c-0.822,0.608-1.923,0.566-2.705-0.016
					c0.517,0.975,0.267,2.214-0.646,2.889c-0.899,0.666-2.135,0.559-2.918-0.189l0.335,0.413c0.743,1.004,0.53,2.434-0.474,3.178
					c-1.004,0.744-2.435,0.53-3.178-0.474l-5.836-7.201C454.402,158.417,454.615,156.988,455.62,156.244z"/>
				<path style="fill:#D88D87;" d="M466.475,152.009c0.5,1.065,1.125,2.026,1.794,2.952c0.678,0.918,1.371,1.824,2.074,2.722
					l0.256,0.331c0.054,0.08,0.103,0.171,0.149,0.269c0.082,0.195,0.133,0.402,0.146,0.614c0.026,0.424-0.115,0.858-0.386,1.182
					c-0.536,0.668-1.581,0.837-2.342,0.329l-0.004-0.003l-1.612-0.938l0.872,1.574c0.407,0.734,0.195,1.747-0.484,2.238
					c-0.655,0.521-1.687,0.46-2.286-0.128l-0.008-0.007l-3.442-2.944l2.708,3.62l0.269,0.359c0.086,0.122,0.124,0.191,0.18,0.306
					c0.1,0.211,0.156,0.441,0.164,0.672c0.014,0.463-0.147,0.931-0.457,1.268c-0.614,0.705-1.811,0.738-2.494,0.079
					c-0.155-0.15-0.362-0.413-0.56-0.641l-0.594-0.7c-0.392-0.469-0.796-0.93-1.206-1.385c-0.824-0.907-1.686-1.783-2.632-2.588
					c0.592,1.092,1.267,2.114,1.981,3.104c0.359,0.494,0.724,0.982,1.101,1.461l0.559,0.723c0.193,0.24,0.347,0.473,0.613,0.765
					c0.521,0.544,1.273,0.866,2.034,0.853c0.761-0.008,1.515-0.347,2.028-0.912c0.522-0.56,0.792-1.34,0.723-2.095
					c-0.03-0.377-0.136-0.749-0.312-1.082c-0.079-0.158-0.208-0.347-0.311-0.464l-0.308-0.352l-0.734,0.676l0.012,0.01
					c0.472,0.449,1.104,0.718,1.752,0.753c0.647,0.04,1.311-0.161,1.827-0.557c0.521-0.391,0.89-0.979,1.023-1.613
					c0.137-0.634,0.044-1.315-0.262-1.889l-0.74,0.636l0.006,0.005c1.072,0.913,2.924,0.78,3.834-0.385
					c0.466-0.551,0.704-1.279,0.664-1.996c-0.017-0.359-0.107-0.715-0.264-1.04c-0.08-0.159-0.172-0.316-0.285-0.469l-0.279-0.338
					c-0.736-0.877-1.483-1.746-2.243-2.603C468.227,153.533,467.414,152.718,466.475,152.009z"/>
				<path style="fill:#D88D87;" d="M463.064,154.768c0.648,1.127,1.343,2.217,2.07,3.281c0.71,1.077,1.464,2.12,2.337,3.068
					l0.783-0.622c-0.727-1.064-1.572-2.035-2.461-2.97C464.921,156.576,464.016,155.654,463.064,154.768z"/>
				<path style="fill:#D88D87;" d="M459.592,157.957c0.694,1.117,1.44,2.191,2.209,3.245c0.765,1.057,1.556,2.092,2.451,3.04
					l0.764-0.646c-0.786-1.04-1.676-1.992-2.591-2.922C461.514,159.74,460.579,158.827,459.592,157.957z"/>
			</g>
		</g>
		<g>
			<g>
				
					<line style="fill:none;stroke:#252538;stroke-width:15;stroke-miterlimit:10;" x1="531.099" y1="282.266" x2="531.099" y2="448.492"/>
				<g>
					<path style="fill:#DC804D;" d="M520.911,422.69l0.094,10.753c0,0-13.428,0.19-16.753,15.251l36.909-0.033l-0.59-26.145
						L520.911,422.69z"/>
					<path style="fill:#FFFFFF;" d="M530.697,434.031c-0.045,2.333,1.384,4.253,3.192,4.287c1.808,0.035,3.309-1.829,3.353-4.162
						c0.044-2.333-1.384-4.253-3.192-4.287C532.243,429.834,530.742,431.698,530.697,434.031z"/>
				</g>
			</g>
			<path style="fill:#252538;" d="M536.005,254.208h13.94c10.283,0,18.695,8.413,18.695,18.695v0
				c0,10.283-8.413,18.695-18.695,18.695h-13.94c-10.283,0-18.696-8.413-18.696-18.695v0
				C517.309,262.621,525.722,254.208,536.005,254.208z"/>
			<g>
				
					<line style="fill:none;stroke:#252538;stroke-width:15;stroke-miterlimit:10;" x1="553.925" y1="282.266" x2="553.925" y2="448.492"/>
				<g>
					<path style="fill:#E59F01;" d="M543.737,422.69l0.094,10.753c0,0-13.428,0.19-16.753,15.251l36.909-0.033l-0.59-26.145
						L543.737,422.69z"/>
					<path style="fill:#FFFFFF;" d="M553.523,434.031c-0.045,2.333,1.385,4.253,3.192,4.287c1.808,0.035,3.309-1.829,3.354-4.162
						c0.044-2.333-1.385-4.253-3.192-4.287C555.069,429.834,553.568,431.698,553.523,434.031z"/>
				</g>
			</g>
		</g>
		<g>
			<path style="fill:#875330;" d="M576.149,214.573h-19.313c-11.973,0-21.679-9.706-21.679-21.679v-30.04
				c0-7.564,6.132-13.696,13.696-13.696l0,0c15.075,0,27.296,12.221,27.296,27.296V214.573z"/>
			<path style="fill:#875330;" d="M539.6,172.225h2.23c14.524,0,26.298-11.774,26.298-26.298l0,0
				c0-14.524-11.774-26.298-26.298-26.298h-2.23c-14.524,0-26.298,11.774-26.298,26.298l0,0
				C513.302,160.451,525.076,172.225,539.6,172.225z"/>
			<g>
				<g>
					<path style="fill:#E59F01;" d="M513.593,265.772c5.159,2.518,14.671,6.335,27.169,6.712c12.805,0.387,22.732-3.02,28.049-5.282
						c-1.943-8.494-3.886-16.988-5.828-25.483l4.548-35.402c0.235-9.061-4.065-16.523-13.127-16.758l-17.657-0.457
						c-11.682-0.303-17.755,3.787-18.057,15.469l2.013,37.291L513.593,265.772z"/>
				</g>
				<path style="fill:none;stroke:#A83B5D;stroke-miterlimit:10;" d="M568.149,167.614"/>
				<path style="fill:#FFB692;" d="M555.642,192.014c0.305,4.604-5.686,8.749-13.381,9.258c-7.695,0.51-14.18-2.809-14.485-7.413
					c-0.305-4.604,5.686-8.749,13.381-9.259C548.852,184.091,555.337,187.41,555.642,192.014z"/>
			</g>
			<g>
				<path style="fill:#D88D87;" d="M548.069,131.572h-13.735c-0.33,0-0.598-0.268-0.598-0.598l0,0c0-0.33,0.268-0.598,0.598-0.598
					h13.735c0.33,0,0.598,0.267,0.598,0.598l0,0C548.667,131.304,548.399,131.572,548.069,131.572z"/>
				<path style="fill:#D88D87;" d="M562.914,163.106H519.49c-1.878,0-3.4-1.522-3.4-3.4v-0.598c0-1.878,1.522-3.4,3.4-3.4h43.424
					c1.878,0,3.4,1.522,3.4,3.4v0.598C566.314,161.584,564.792,163.106,562.914,163.106z"/>
				<path style="fill:#AA635F;" d="M518.026,159.55v-0.285c0-0.895,0.725-1.62,1.62-1.62h43.111c0.895,0,1.62,0.725,1.62,1.62v0.285
					c0,0.895-0.725,1.62-1.62,1.62h-43.111C518.751,161.17,518.026,160.444,518.026,159.55z"/>
				<path style="fill:#FFB692;" d="M541.202,154.239L541.202,154.239c-6.329,0-11.461,5.131-11.461,11.461v31.022h22.921v-31.022
					C552.662,159.37,547.531,154.239,541.202,154.239z"/>
				<path style="fill:#D88D87;" d="M529.741,158.72v19.562c0,6.329,5.131,11.46,11.461,11.46l0,0c6.33,0,11.46-5.131,11.46-11.46
					V158.72"/>
				<path style="fill:#FFB692;" d="M541.202,185.018L541.202,185.018c-4.738,0-18.713-5.613-18.713-17.018l-1.937-21.459
					c0-10.934,8.864-19.798,19.797-19.798h1.705c10.934,0,19.797,8.864,19.797,19.798L559.915,168
					C559.915,179.405,547.941,185.018,541.202,185.018z"/>
				<g>
					<path style="fill:#34344F;" d="M536.028,169.862c2.03-0.485,4.854-1.304,7.48-2.56c1.727-0.826,3.458,1.315,2.67,3.335
						c-0.838,2.15-2.448,4.23-5.529,4.749c-2.525,0.425-4.202-0.117-5.313-0.976C533.764,173.192,534.219,170.295,536.028,169.862z"
						/>
					<path style="fill:#FF9292;" d="M540.649,175.386c3.081-0.519,4.691-2.599,5.529-4.749c0.118-0.303,0.174-0.608,0.187-0.906
						c-1.141-0.409-2.626-0.494-4.561,0.092c-2.989,0.904-4.307,3.168-4.849,5.403c-0.001,0.005-0.001,0.009-0.002,0.013
						C537.92,175.543,539.128,175.642,540.649,175.386z"/>
					<path style="fill:#FFABAB;" d="M538.965,172.97c0.347,0.499,1.513,0.322,2.606-0.397c1.092-0.719,1.696-1.707,1.35-2.207
						c-0.347-0.5-1.513-0.322-2.605,0.398C539.223,171.482,538.618,172.47,538.965,172.97z"/>
					<path style="fill:#FFFFFF;" d="M536.028,169.862c2.03-0.485,4.854-1.304,7.48-2.56c1.061-0.507,2.12,0.106,2.599,1.122
						c-1.478,1.545-3.814,2.885-6.608,3.623c-1.792,0.473-3.542,0.637-5.108,0.533C534.287,171.387,534.888,170.135,536.028,169.862
						z"/>
				</g>
				<g>
					<path style="fill:#D88D87;" d="M531.471,154.811h-4.563c-1.039,0-1.88,0.842-1.88,1.881c0,1.039,0.842,1.88,1.88,1.88h4.563
						c1.039,0,1.88-0.842,1.88-1.88C533.352,155.654,532.51,154.811,531.471,154.811z"/>
					<path style="fill:#D88D87;" d="M551.977,154.811h-4.563c-1.039,0-1.88,0.842-1.88,1.881c0,1.039,0.842,1.88,1.88,1.88h4.563
						c1.039,0,1.88-0.842,1.88-1.88C553.858,155.654,553.016,154.811,551.977,154.811z"/>
				</g>
				<g>
					<path style="fill:#442D1E;" d="M553.156,151.664l-4.189-1.319c-0.918-0.289-1.897,0.221-2.186,1.139
						c-0.289,0.918,0.221,1.897,1.139,2.186l4.189,1.32c0.918,0.289,1.897-0.221,2.186-1.139
						C554.584,152.932,554.074,151.954,553.156,151.664z"/>
					<path style="fill:#442D1E;" d="M530.955,150.345l-4.189,1.319c-0.918,0.289-1.428,1.268-1.139,2.186
						c0.289,0.918,1.268,1.428,2.186,1.139l4.189-1.32c0.918-0.289,1.428-1.268,1.139-2.186
						C532.852,150.566,531.873,150.056,530.955,150.345z"/>
				</g>
				<path style="fill:#D88D87;" d="M545.381,179.487c0.089,1.092-1.952,2.15-4.56,2.364c-2.608,0.214-4.794-0.497-4.884-1.589
					c-0.089-1.092,1.952-2.15,4.56-2.364C543.104,177.684,545.291,178.395,545.381,179.487z"/>
				<g>
					<path style="fill:#252538;" d="M529.176,155.529c-1.36,0-2.462,1.102-2.462,2.462c0,1.36,1.102,2.462,2.462,2.462
						c1.359,0,2.461-1.102,2.461-2.462C531.638,156.631,530.536,155.529,529.176,155.529z"/>
					<path style="fill:#252538;" d="M547.828,155.529c-1.359,0-2.462,1.102-2.462,2.462c0,1.36,1.102,2.462,2.462,2.462
						c1.36,0,2.462-1.102,2.462-2.462C550.29,156.631,549.188,155.529,547.828,155.529z"/>
					<polygon style="fill:#252538;" points="549.767,157.855 552.094,155.529 547.764,155.529 					"/>
					<polygon style="fill:#252538;" points="526.849,157.855 529.176,155.529 524.846,155.529 					"/>
				</g>
				<g>
					<g>
						<path style="fill:#D88D87;" d="M538.62,170.044h-0.237c-1.402,0-2.539-1.137-2.539-2.539v-10.373
							c0-1.402,1.136-2.539,2.539-2.539h0.237c1.402,0,2.539,1.137,2.539,2.539v10.372
							C541.159,168.907,540.023,170.044,538.62,170.044z"/>
					</g>
					<path style="fill:#F79C97;" d="M539.848,168.253h-0.064c-0.381,0-0.69-0.309-0.69-0.69v-10.489c0-0.381,0.309-0.69,0.69-0.69
						h0.065c0.381,0,0.69,0.309,0.69,0.69v10.489C540.538,167.944,540.229,168.253,539.848,168.253z"/>
				</g>
			</g>
			<path style="fill:#875330;" d="M533.032,120.456c2.099-0.54,4.3-0.827,6.568-0.827h2.23c14.524,0,26.298,11.774,26.298,26.298
				l0,0c0,0.439-0.012,0.875-0.033,1.308h-2.714C549.298,147.235,535.915,135.701,533.032,120.456z"/>
			<path style="fill:#875330;" d="M513.017,157.654h5.759c12.069,0,21.853-9.784,21.853-21.853v-5.938
				c0-7.625-6.181-13.806-13.806-13.806l0,0c-7.625,0-13.806,6.181-13.806,13.806V157.654z"/>
			<path style="fill:#A3653B;" d="M540.628,128.342v2.472c0,12.069-9.784,21.853-21.853,21.853h-5.759v-2.472h5.759
				C530.844,150.195,540.628,140.411,540.628,128.342z"/>
			<path style="fill:#A3653B;" d="M540.628,121.269v2.472c0,12.069-9.784,21.853-21.853,21.853h-5.759v-2.472h5.759
				C530.844,143.122,540.628,133.338,540.628,121.269z"/>
		</g>
		<g>
			<path style="fill:none;stroke:#FFB692;stroke-width:9;stroke-miterlimit:10;" d="M567.403,203.402
				c42.533,54.764-24.645,65.522-24.645,65.522"/>
			<path style="fill:#E59F01;" d="M569.5,221.286l-12.464-14.958c-3.292-4.368-2.42-10.578,1.948-13.87h0
				c4.368-3.292,10.578-2.42,13.87,1.948l12.464,14.958L569.5,221.286z"/>
			<g>
				<g>
					<path style="fill:#FFB692;" d="M556.215,267.04l-0.327-1.822c-0.917-5.102-5.38-8.569-9.968-7.744l0,0
						c-4.588,0.825,0.126,5.578-6.647,10.73l0.328,1.822c0.917,5.102,5.38,8.568,9.968,7.744l0,0
						C554.156,276.946,557.132,272.142,556.215,267.04z"/>
				</g>
				<path style="fill:#FFB692;" d="M546.019,262.766L546.019,262.766c-0.019-1.31-1.106-2.367-2.416-2.349l-14.214,1.585
					c-1.31,0.019-2.367,1.106-2.349,2.416l0,0c0.019,1.31,1.106,2.367,2.416,2.348l14.214-1.584
					C544.98,265.164,546.037,264.076,546.019,262.766z"/>
				<path style="fill:#FFB692;" d="M544.681,267.486L544.681,267.486c-0.104-1.306-1.258-2.29-2.565-2.185l-14.08,2.512
					c-1.306,0.104-2.29,1.259-2.185,2.565l0,0c0.104,1.306,1.258,2.29,2.565,2.185l14.08-2.512
					C543.802,269.947,544.786,268.792,544.681,267.486z"/>
				<path style="fill:#FFB692;" d="M545.858,271.81L545.858,271.81c-0.186-1.297-1.399-2.207-2.696-2.021l-13.896,3.385
					c-1.297,0.186-2.207,1.399-2.021,2.696l0,0c0.186,1.297,1.399,2.207,2.696,2.021l13.896-3.385
					C545.134,274.321,546.044,273.107,545.858,271.81z"/>
				<path style="fill:#FFB692;" d="M551.713,274.991L551.713,274.991c-0.243-1.288-1.495-2.143-2.782-1.901l-13.733,3.994
					c-1.288,0.243-2.143,1.495-1.9,2.783l0,0c0.243,1.288,1.494,2.143,2.782,1.9l13.733-3.994
					C551.1,277.531,551.956,276.278,551.713,274.991z"/>
				<path style="fill:#FFB692;" d="M550.313,258.012l-11.631-5.345c0,0-1.756,5.772,2.677,7.606
					c4.434,1.834,8.691,3.616,8.691,3.616L550.313,258.012z"/>
				<path style="fill:#D88D87;" d="M531.596,266.528c0.847-0.004,1.688-0.052,2.528-0.111c0.841-0.048,1.676-0.154,2.515-0.228
					c0.836-0.094,1.67-0.208,2.504-0.328c0.831-0.136,1.663-0.275,2.487-0.474c-0.848-0.008-1.689,0.043-2.53,0.097
					c-0.839,0.07-1.677,0.146-2.513,0.242c-0.834,0.116-1.671,0.201-2.502,0.342C533.252,266.199,532.422,266.341,531.596,266.528z"
					/>
				<path style="fill:#D88D87;" d="M528.629,272.525c1.045-0.093,2.081-0.23,3.116-0.378c1.037-0.137,2.063-0.331,3.095-0.494
					c1.029-0.183,2.054-0.385,3.078-0.593c1.021-0.224,2.042-0.451,3.052-0.737c-1.047,0.081-2.083,0.221-3.119,0.364
					c-1.033,0.159-2.065,0.324-3.093,0.508c-1.025,0.204-2.055,0.377-3.075,0.607C530.661,272.02,529.641,272.251,528.629,272.525z"
					/>
				<path style="fill:#D88D87;" d="M530.566,277.74c1.028-0.152,2.046-0.348,3.061-0.555c1.018-0.196,2.022-0.448,3.034-0.669
					c1.007-0.241,2.009-0.501,3.01-0.767c0.997-0.282,1.994-0.567,2.976-0.91c-1.031,0.14-2.048,0.34-3.065,0.541
					c-1.013,0.218-2.024,0.441-3.03,0.684c-1.002,0.262-2.011,0.494-3.007,0.781C532.547,277.12,531.551,277.408,530.566,277.74z"/>
			</g>
		</g>
	</g>
	<g>
		<path style="fill:#252538;" d="M237.921,312.388h-14.203c-10.477,0-19.048,8.572-19.048,19.048v0
			c0,10.477,8.572,19.048,19.048,19.048h14.203c10.477,0,19.049-8.572,19.049-19.048v0
			C256.969,320.96,248.398,312.388,237.921,312.388z"/>
		<g>
			<path style="fill:#3EBCE5;" d="M254.919,321.702c0.012,2.088-1.164,4.014-3.048,4.914c-4.17,1.993-10.225,4.174-17.742,4.702
				c-10.58,0.742-19.078-2.142-24.152-4.476c-1.912-0.879-3.127-2.801-3.138-4.905c-0.102-18.974-0.203-36.361-0.305-55.221
				c-0.059-10.893,8.725-19.774,19.618-19.832l9.939-0.053c10.173-0.054,18.463,8.148,18.517,18.321L254.919,321.702z"/>
		</g>
		<g>
			<path style="fill:#FFB692;" d="M218.234,248.393c-0.709,4.158,4.35,8.49,11.301,9.676c6.95,1.186,13.16-1.224,13.869-5.382
				c0.709-4.158-4.35-8.49-11.301-9.676C225.153,241.824,218.943,244.234,218.234,248.393z"/>
		</g>
		<path style="fill:#FFB692;" d="M230.422,186.195l-0.929,0.005c-5.954,0.031-10.741,7.596-10.691,16.897l0.244,46.107l22.49-0.119
			l-0.244-46.107C241.243,193.678,236.376,186.164,230.422,186.195z"/>
		<path style="fill:#D88D87;" d="M230.422,190.113l-0.929,0.005c-5.954,0.031-10.744,7.047-10.698,15.669l0.167,31.501
			c0.033,6.21,5.094,11.218,11.305,11.185l0,0c6.21-0.033,11.219-5.094,11.186-11.305l-0.167-31.501
			C241.24,197.045,236.376,190.081,230.422,190.113z"/>
		<path style="fill:#D88D87;" d="M235.284,227.981c-0.177,1.054-2.361,1.567-4.879,1.146c-2.518-0.421-4.416-1.617-4.24-2.672
			c0.176-1.054,2.361-1.567,4.879-1.146C233.562,225.731,235.46,226.927,235.284,227.981z"/>
		<g>
			<path style="fill:#D88D87;" d="M207.954,217.002h47.189c2.064,0,3.738-1.674,3.738-3.738l0,0c0-2.064-1.674-3.738-3.738-3.738
				h-47.189c-2.065,0-3.738,1.674-3.738,3.738l0,0C204.216,215.329,205.89,217.002,207.954,217.002z"/>
			<path style="fill:#AA635F;" d="M256.924,213.264L256.924,213.264c0-0.984-0.797-1.781-1.781-1.781h-47.189
				c-0.984,0-1.781,0.797-1.781,1.781l0,0c0,0.984,0.797,1.781,1.781,1.781h47.189C256.127,215.045,256.924,214.248,256.924,213.264
				z"/>
			<path style="fill:#FFB692;" d="M231.549,245.281L231.549,245.281c11.524,0,20.866-9.342,20.866-20.866v-19.808
				c0-11.048-8.956-20.005-20.005-20.005h-1.723c-11.048,0-20.005,8.956-20.005,20.005v19.808
				C210.683,235.938,220.025,245.281,231.549,245.281z"/>
			<g>
				<path style="fill:#D88D87;" d="M240.957,208.729h4.61c1.049,0,1.9,0.851,1.9,1.9s-0.851,1.9-1.9,1.9h-4.61
					c-1.049,0-1.9-0.851-1.9-1.9S239.908,208.729,240.957,208.729z"/>
				<path style="fill:#D88D87;" d="M220.236,208.729h4.611c1.049,0,1.9,0.851,1.9,1.9s-0.851,1.9-1.9,1.9h-4.611
					c-1.049,0-1.9-0.851-1.9-1.9S219.187,208.729,220.236,208.729z"/>
			</g>
			<g>
				<path style="fill:#252538;" d="M242.154,208.266c1.349,0,2.442,1.093,2.442,2.442c0,1.349-1.093,2.442-2.442,2.442
					c-1.349,0-2.442-1.093-2.442-2.442C239.712,209.359,240.805,208.266,242.154,208.266z"/>
				<path style="fill:#252538;" d="M223.65,208.266c1.349,0,2.442,1.093,2.442,2.442c0,1.349-1.093,2.442-2.442,2.442
					c-1.349,0-2.442-1.093-2.442-2.442C221.208,209.359,222.301,208.266,223.65,208.266z"/>
			</g>
			<g>
				<path style="fill:#252538;" d="M219.568,203.747l4.233-1.333c0.928-0.292,1.917,0.223,2.209,1.15
					c0.292,0.928-0.223,1.917-1.151,2.209l-4.233,1.333c-0.928,0.292-1.917-0.223-2.209-1.151
					C218.126,205.028,218.641,204.039,219.568,203.747z"/>
				<path style="fill:#252538;" d="M242.002,202.414l4.233,1.333c0.928,0.292,1.443,1.281,1.15,2.209
					c-0.292,0.928-1.281,1.443-2.209,1.151l-4.233-1.333c-0.928-0.292-1.443-1.281-1.151-2.209
					C240.085,202.637,241.074,202.122,242.002,202.414z"/>
			</g>
			<path style="fill:#D88D87;" d="M226.762,233.954c0,1.107,2.143,2.004,4.787,2.004c2.644,0,4.787-0.897,4.787-2.004
				c0-1.107-2.143-2.004-4.787-2.004C228.905,231.951,226.762,232.848,226.762,233.954z"/>
			<path style="fill:#8C5C53;" d="M226.518,222.144l-0.492,0.387c0.252,0.303,3.681,4.228,10.758,3.635l-0.6-0.528l0.431-0.489
				l1.704,1.499l-0.72,0.089c-0.809,0.101-1.574,0.146-2.298,0.146c-6.442,0-9.505-3.597-9.788-3.949l-0.73,0.574
				C224.784,223.509,224.585,221.636,226.518,222.144z"/>
			<g>
				<path style="fill:#D88D87;" d="M233.488,220.852L233.488,220.852c1.919,0,3.475-1.556,3.475-3.475v-5.635
					c0-1.919-1.556-3.475-3.475-3.475l0,0c-1.919,0-3.475,1.556-3.475,3.475v5.635C230.013,219.296,231.569,220.852,233.488,220.852
					z"/>
				<path style="fill:#F79C97;" d="M231.642,218.878L231.642,218.878c0.507,0,0.918-0.411,0.918-0.918v-6.523
					c0-0.507-0.411-0.918-0.918-0.918l0,0c-0.507,0-0.918,0.411-0.918,0.918v6.523C230.724,218.467,231.135,218.878,231.642,218.878
					z"/>
			</g>
		</g>
		<path style="fill:#011838;" d="M261.361,173.198c0-4.499-3.714-8.13-8.243-7.993c-4.377,0.131-7.751,3.95-7.751,8.329v0.149
			c0,3.978-3.206,7.187-7.161,7.187h-17.158c-7.031,0-12.731,5.7-12.731,12.73v17.884h1.789c1.986,0,3.597-1.61,3.597-3.597V197.7
			c0-1.656,1.343-2.999,2.999-2.999h30.561c1.656,0,2.999,1.343,2.999,2.999v10.009c0,1.656,1.343,2.999,2.999,2.999h1.536V195.37
			c0-1.672,0.664-3.276,1.847-4.459h0c3.02-3.02,4.716-7.115,4.716-11.386V173.198z"/>
		<g>
			<path style="fill:none;stroke:#FFB692;stroke-width:9;stroke-miterlimit:10;" d="M216.436,266.76
				c27.088,55.239,96.619,14.039,96.619,14.039"/>
			<path style="fill:#0180AB;" d="M233.675,276.428l-10.208-15.937c-3.083-4.332-9.093-5.344-13.425-2.262v0
				c-4.332,3.083-5.344,9.093-2.262,13.424l10.208,15.937L233.675,276.428z"/>
			<g>
				<g>
					<path style="fill:#FFB692;" d="M307.955,285.927l-0.879-1.628c-2.463-4.561-1.134-10.054,2.968-12.268l0,0
						c4.102-2.215,3.378,4.44,11.886,4.248l0.879,1.629c2.463,4.561,1.134,10.053-2.968,12.268l0,0
						C315.74,292.39,310.418,290.488,307.955,285.927z"/>
				</g>
				<path style="fill:#FFB692;" d="M313.265,276.228L313.265,276.228c-0.802-1.036-0.611-2.54,0.425-3.343l12.103-7.62
					c1.036-0.802,2.54-0.611,3.343,0.426l0,0c0.802,1.036,0.611,2.54-0.426,3.342l-12.103,7.621
					C315.571,277.456,314.067,277.265,313.265,276.228z"/>
				<path style="fill:#FFB692;" d="M317.253,279.086L317.253,279.086c-0.732-1.087-0.443-2.575,0.643-3.308l12.576-6.812
					c1.087-0.732,2.575-0.443,3.308,0.644l0,0c0.732,1.086,0.443,2.575-0.644,3.307l-12.576,6.812
					C319.474,280.462,317.985,280.173,317.253,279.086z"/>
				<path style="fill:#FFB692;" d="M319.028,283.201L319.028,283.201c-0.663-1.13-0.282-2.598,0.848-3.261l12.976-6.014
					c1.13-0.663,2.598-0.281,3.261,0.849l0,0c0.663,1.13,0.282,2.598-0.849,3.261l-12.976,6.014
					C321.159,284.713,319.691,284.331,319.028,283.201z"/>
				<path style="fill:#FFB692;" d="M316.431,289.337L316.431,289.337c-0.613-1.158-0.167-2.607,0.991-3.221l13.228-5.436
					c1.158-0.613,2.607-0.167,3.221,0.991l0,0c0.613,1.158,0.167,2.607-0.991,3.22l-13.228,5.437
					C318.494,290.942,317.044,290.496,316.431,289.337z"/>
				<path style="fill:#FFB692;" d="M306.944,275.188l5.763-11.43c0,0,4.971,3.419,2.647,7.617c-2.324,4.198-4.542,8.244-4.542,8.244
					L306.944,275.188z"/>
				<path style="fill:#D88D87;" d="M326.888,270.181c-0.664,0.525-1.352,1.012-2.046,1.489c-0.688,0.487-1.407,0.925-2.109,1.389
					c-0.713,0.448-1.436,0.878-2.162,1.304c-0.735,0.412-1.471,0.821-2.24,1.18c0.658-0.535,1.348-1.019,2.039-1.501
					c0.7-0.468,1.403-0.931,2.116-1.377c0.724-0.429,1.432-0.885,2.17-1.292C325.388,270.956,326.126,270.55,326.888,270.181z"/>
				<path style="fill:#D88D87;" d="M332.946,273.021c-0.875,0.578-1.771,1.118-2.672,1.647c-0.896,0.539-1.82,1.027-2.728,1.543
					c-0.918,0.498-1.846,0.979-2.776,1.455c-0.938,0.461-1.878,0.92-2.846,1.326c0.869-0.589,1.767-1.125,2.665-1.66
					c0.907-0.519,1.816-1.034,2.735-1.53c0.929-0.479,1.842-0.986,2.783-1.442C331.042,273.893,331.984,273.437,332.946,273.021z"/>
				<path style="fill:#D88D87;" d="M334.682,278.306c-0.899,0.522-1.817,1.003-2.74,1.474c-0.918,0.481-1.861,0.91-2.79,1.367
					c-0.938,0.439-1.884,0.861-2.832,1.276c-0.956,0.401-1.912,0.799-2.894,1.143c0.894-0.533,1.813-1.011,2.734-1.487
					c0.927-0.461,1.857-0.917,2.796-1.354c0.947-0.419,1.881-0.867,2.838-1.263C332.746,279.057,333.705,278.661,334.682,278.306z"
					/>
			</g>
		</g>
		<path style="fill:none;stroke:#252538;stroke-width:15;stroke-miterlimit:10;" d="M248.058,338.783
			c49.147,25.092,55.818-2.472,52.776,97.491"/>
		<g>
			<path style="fill:#3EBCE5;" d="M311.359,422.2l-0.096,10.956c0,0,13.682,0.194,17.069,15.539l-37.606-0.033l0.601-26.638
				L311.359,422.2z"/>
			<path style="fill:#FFFFFF;" d="M301.388,433.754c0.045,2.377-1.411,4.333-3.252,4.368c-1.842,0.035-3.371-1.863-3.417-4.241
				c-0.045-2.377,1.411-4.333,3.252-4.368C299.813,429.478,301.342,431.377,301.388,433.754z"/>
		</g>
		<path style="fill:none;stroke:#252538;stroke-width:15;stroke-miterlimit:10;" d="M222.214,341.894
			c17.731,63.556,24.517,68.135-48.372,78.433"/>
		<g>
			<path style="fill:#3EBCE5;" d="M187.386,427.363l-10.683,2.435c0,0,2.968,13.357-11.181,20.194l-8.645-36.599l26.058-5.562
				L187.386,427.363z"/>
			<path style="fill:#FFFFFF;" d="M173.842,420.327c-2.303,0.593-4.542-0.373-5.001-2.157c-0.459-1.784,1.035-3.71,3.338-4.303
				c2.303-0.593,4.542,0.373,5.001,2.156C177.639,417.807,176.145,419.734,173.842,420.327z"/>
		</g>
	</g>
	<g>
		<g>
			
				<ellipse transform="matrix(0.1493 -0.9888 0.9888 0.1493 -17.1043 268.2622)" style="fill:#E59F01;" cx="147.359" cy="144.072" rx="42.565" ry="42.565"/>
			<g>
				<polygon style="fill:#E59F01;" points="180.24,162.631 168.086,163.737 169.193,175.891 185.702,178.413 				"/>
			</g>
		</g>
		
			<text transform="matrix(1 0 0 1 120.8337 152.8085)" style="fill:#FFFFFF; font-family:'Outfit-Black'; font-size:27.7163px; letter-spacing:1;">- 1h</text>
	</g>
	<g>
		<g>
			
				<ellipse transform="matrix(0.1454 -0.9894 0.9894 0.1454 429.9248 703.8097)" style="fill:#3EBCE5;" cx="622.359" cy="103.045" rx="42.565" ry="42.565"/>
			<g>
				<polygon style="fill:#3EBCE5;" points="585.044,121.604 597.198,122.71 596.091,134.864 579.582,137.386 				"/>
			</g>
		</g>
		
			<text transform="matrix(1 0 0 1 591.8294 111.7816)" style="fill:#FFFFFF; font-family:'Outfit-Black'; font-size:27.7163px; letter-spacing:1;">+ 1h</text>
	</g>
</g>
</svg>
