<?xml version="1.0" encoding="utf-8"?>
<!-- Generator: Adobe Illustrator 27.5.0, SVG Export Plug-In . SVG Version: 6.00 Build 0)  -->
<svg version="1.1" xmlns="http://www.w3.org/2000/svg" xmlns:xlink="http://www.w3.org/1999/xlink" x="0px" y="0px"
	 viewBox="0 0 3710 3710" style="enable-background:new 0 0 3710 3710;" xml:space="preserve">
<g id="Background">
	<g>
		<g>
			<rect style="fill:#FFFFFF;" width="3710" height="3710"/>
		</g>
	</g>
</g>
<g id="Illustration">
	<g>
		<linearGradient id="SVGID_1_" gradientUnits="userSpaceOnUse" x1="3397.7388" y1="3565.874" x2="1373.1304" y2="1380.5822">
			<stop  offset="0" style="stop-color:#B37CFF"/>
			<stop  offset="1" style="stop-color:#F895E7"/>
		</linearGradient>
		<path style="opacity:0.3;fill:url(#SVGID_1_);" d="M3125.128,2317.083c-280.356,645.854-1020.406,923.264-1600.246,875.966
			c-158.32-12.914-476.863-38.899-725.585-270.716C321.644,2477.142,395.207,1546.569,852.457,998.7
			c58.884-70.554,466.473-543.26,1101.624-536.933c465.023,4.633,791.418,263.532,831.107,295.786
			c50.137,40.745,160.719,137.569,260.381,291.174C3279.738,1409.645,3300.322,1913.488,3125.128,2317.083z"/>
		<g style="opacity:0.68;">
			
				<linearGradient id="SVGID_00000018938019467272422760000009956133882687773109_" gradientUnits="userSpaceOnUse" x1="742.5833" y1="466.934" x2="842.2622" y2="1012.2338" gradientTransform="matrix(0.9977 0.0678 -0.0678 0.9977 185.4185 44.602)">
				<stop  offset="0" style="stop-color:#B37CFF"/>
				<stop  offset="1" style="stop-color:#F895E7"/>
			</linearGradient>
			<path style="fill:url(#SVGID_00000018938019467272422760000009956133882687773109_);" d="M1397.767,2231.284
				c0,0-43.565-1081.473-441.181-1744.288c-26.729-44.556-92.077-42.119-115.124,4.448
				C687.353,802.825,320.255,1766.872,1397.767,2231.284z"/>
			<path style="opacity:0.5;fill:#FFFFFF;" d="M1307.761,2144.567c2.043,2.958-2.058,6.209-4.479,3.552
				c-89.286-97.981-418.64-558.12-419.6-1347.469c-0.003-2.536,3.77-2.767,3.992-0.241
				C904.031,986.524,984.662,1676.753,1307.761,2144.567z"/>
		</g>
		<g style="opacity:0.78;">
			
				<linearGradient id="SVGID_00000150822618907651522430000008650603207443174544_" gradientUnits="userSpaceOnUse" x1="1316.506" y1="1890.5773" x2="1211.2118" y2="814.2283" gradientTransform="matrix(0.7877 -0.2287 0.2194 0.9718 -742.4283 -74.5398)">
				<stop  offset="0" style="stop-color:#B37CFF"/>
				<stop  offset="1" style="stop-color:#F895E7"/>
			</linearGradient>
			<path style="fill:url(#SVGID_00000150822618907651522430000008650603207443174544_);" d="M1200.981,2498.136
				c0,0-131.615-1136.219-531.188-1808.94c-26.86-45.222-82.833-38.489-98.594,12.024
				C465.809,1038.988,234.118,2077.715,1200.981,2498.136z"/>
			<path style="opacity:0.5;fill:#FFFFFF;" d="M1116.046,2412.545c2.014,2.986-1.229,6.67-3.542,4.026
				c-85.297-97.5-408.532-561.117-478.083-1392.391c-0.223-2.67,3-3.154,3.411-0.508
				C668.099,1218.644,797.519,1940.446,1116.046,2412.545z"/>
		</g>
		<g>
			<g>
				<g>
					
						<linearGradient id="SVGID_00000101065540599744097760000007325970840400140949_" gradientUnits="userSpaceOnUse" x1="2017.1998" y1="3218.9873" x2="1809.709" y2="1526.6434">
						<stop  offset="0" style="stop-color:#2B3582"/>
						<stop  offset="1" style="stop-color:#150E42"/>
					</linearGradient>
					<path style="fill:url(#SVGID_00000101065540599744097760000007325970840400140949_);" d="M552.101,1361.068v1310.392
						c0,107.797,85.901,195.95,193.663,198.729c478.619,12.341,1875.644,42.268,2331.257,35.551
						c78.308-1.154,141.745-63.819,144.004-142.103c8.785-304.422,23.054-1036.455-29.75-1376.31
						c-11.12-71.57-71.531-125.088-143.922-127.403c-401.023-12.829-1898.597-53.565-2353.997-43.338
						C614.817,1218.351,552.101,1282.507,552.101,1361.068z"/>
					
						<linearGradient id="SVGID_00000093155392722770124700000011805873309502887850_" gradientUnits="userSpaceOnUse" x1="2227.894" y1="950.7147" x2="1297.2339" y2="3822.4602">
						<stop  offset="0" style="stop-color:#53D8FF"/>
						<stop  offset="1" style="stop-color:#3840F7"/>
					</linearGradient>
					<path style="fill:url(#SVGID_00000093155392722770124700000011805873309502887850_);" d="M634.325,1358.163v1293.642
						c0,65.399,50.522,118.687,113.453,119.665l2263.697,32.616c62.392,0.969,113.534-51.19,113.766-116.028l4.25-1282.084
						c0.167-46.361-35.379-84.347-79.982-85.475l-2324.202-54.605C675.421,1264.634,634.325,1306.311,634.325,1358.163z"/>
				</g>
			</g>
			<g>
				<path style="opacity:0.31;fill:#FFFFFF;" d="M2943.49,2750.328l-2170.244-24.957c-46.863,1.14-85.16-48.825-84.849-110.701
					l5.524-1099.543c4.788-116.672,56.545-169.068,102.686-168.836l2147.696,69.84c46.142,0.232,83.299,49.803,82.993,110.719
					l-5.205,1035.974C3021.79,2622.784,2988.904,2749.224,2943.49,2750.328z"/>
				<g>
					<path style="fill-rule:evenodd;clip-rule:evenodd;fill:#FFFFFF;" d="M2259.713,1573.556l105.236,0.529
						c3.552,0.018,6.438,2.56,6.495,5.721l0.789,43.687c0.064,3.563,3.686,6.238,7.631,5.638l192.442-29.269
						c0.375-0.057,0.755-0.085,1.136-0.083l132.225,0.664c0.327,0.002,0.654-0.018,0.977-0.06l149.515-19.366
						c1.822-0.236,3.672,0.224,5.094,1.267l32.88,24.113c2.725,1.998,3.174,5.561,1.013,8.042l-40.606,46.622
						c-1.164,1.337-1.615,3.06-1.234,4.718l17.649,76.839c0.282,1.229,0.11,2.505-0.49,3.638l-62.724,118.39
						c-2.075,3.915-8.063,4.501-11.053,1.08l-36.677-41.971c-1.178-1.347-1.631-3.087-1.239-4.756l15.866-67.585
						c1.36-5.792-6.75-9.48-11.22-5.102l-39.215,38.406c-0.742,0.727-1.68,1.275-2.726,1.591l-45.397,13.728
						c-1.562,0.472-2.865,1.455-3.645,2.749l-22.343,37.059c-2.144,3.557,0.346,7.931,4.839,8.5l51.053,6.467
						c3.102,0.393,5.455,2.691,5.606,5.476l6.443,118.839c0.101,1.858-0.804,3.645-2.434,4.807l-48.216,34.387
						c-2.227,1.589-3.033,4.283-1.99,6.65l11.023,25.001c1.608,3.647-1.216,7.632-5.605,7.909l-13.12,0.828
						c-2.204,0.139-4.339-0.724-5.673-2.294l-37.306-43.916c-3.241-3.815-9.979-2.712-11.472,1.878l-3.972,12.206
						c-0.463,1.422-0.297,2.949,0.463,4.268l36.374,63.092c1.281,2.222,0.824,4.923-1.135,6.708l-64.638,58.884
						c-3.118,2.84-7.737,3.926-12.029,2.827l-11.379-2.915c-6.314-1.617-12.922,1.529-14.909,7.098l0,0
						c-1.173,3.287-0.51,6.876,1.783,9.66l32.972,40.022c3.614,4.387,3.004,10.477-1.425,14.218l-18.29,15.446
						c-4.754,4.014-12.236,3.938-16.896-0.172l-101.573-89.592c-4.745-4.185-12.393-4.177-17.116,0.019l-54.742,48.635
						c-1.616,1.436-2.744,3.249-3.252,5.232l-4.554,17.751c-2.29,8.926-15.243,11.412-21.482,4.122l-85.275-99.644
						c-2.302-2.689-5.691-4.475-9.447-4.978l-58.976-7.885c-1.696-0.227-3.335-0.718-4.84-1.452l-24.319-11.847
						c-6.774-3.301-14.372,2.945-11.21,9.216l5.511,10.932c2.019,4.005,6.173,6.833,11.043,7.518l41.074,5.775
						c5.206,0.732,9.566,3.905,11.405,8.301l2.01,4.802c2.404,5.744-0.033,12.198-5.844,15.478l-91.055,51.388
						c-4.088,2.307-9.528,0.903-11.6-2.996l-54.421-102.367c-1.776-3.341-6.113-4.937-10.018-3.686l0,0
						c-4.475,1.434-6.582,5.991-4.538,9.817l46.278,86.658c7.823,14.649,26.149,22.382,43.829,18.494l7.696-1.692
						c11.143-2.451,20.964,6.993,17.356,16.689l-11.689,31.423c-0.889,2.389-2.539,4.496-4.751,6.063l-41.836,29.653
						c-9.683,6.863-15.035,17.473-14.366,28.481l2.109,34.73c0.628,10.335-4.053,20.359-12.723,27.248l-16.831,13.372
						c-7.275,5.78-10.967,14.332-9.915,22.967l0.856,7.033c1.04,8.542-2.561,17.008-9.693,22.788l-63.889,51.78
						c-7.248,5.874-17.25,8.253-26.833,6.383l-12.39-2.418c-10.442-2.038-18.908-8.826-22.271-17.858l-35.215-94.569
						c-3.805-10.218-0.412-21.463,8.628-28.598l0,0c8.926-7.046,12.357-18.109,8.757-28.243l-19.481-54.846
						c-6.798-19.139-28.921-30.48-50.919-26.102l-50.363,10.021c-4.15,0.826-8.494-0.184-11.664-2.712l-70.951-56.573
						c-2.806-2.237-4.402-5.436-4.385-8.787l0.331-65.835c0.089-17.722,7.241-34.835,20.183-48.291l8.727-9.073
						c16.197-16.84,39.007-27.542,63.782-29.924l51.035-4.906l34.439-3.789c6.797-0.748,13.108,3.269,14.513,9.236l2.362,10.03
						c0.839,3.562,3.489,6.577,7.173,8.159l49.323,21.189l6.143-20.141l90.162,9.421l1.457-23.2
						c0.223-3.548-2.508-6.708-6.419-7.429l-38.525-7.097l-16.199-31.332l-29.247-6.324l12.953,38.298l-23.025-25.105l-32.04-29.467
						c-4.59-4.222-11.979-4.771-17.283-1.285l0,0c-6.359,4.18-7.163,12.377-1.713,17.486l29.76,27.902l-17.583-0.039
						c-3.216-0.007-6.32-1.061-8.724-2.965l-34.832-27.569c-5.39-4.266-13.629-3.884-18.48,0.858l-28.765,28.119
						c-1.961,1.917-4.583,3.2-7.453,3.647l-23.006,3.585c-7.112,1.108-13.906-3.09-15.227-9.411l-4.822-23.078
						c-1.585-7.587,5.359-14.434,14.001-13.804l16.655,1.214c9.471,0.69,16.608-7.504,13.497-15.498l-7.622-19.586
						c-1.953-5.021,0.13-10.578,5.077-13.543l57.682-34.565l87.065-5.856l16.903-50.062l-22.255-7.228l8.095-44.437l-16.729,1.556
						l-20.634,37.227l1.386,41.218l-25.696,8.538l-13.568-31.485l-21.511,12.233l-11.302-40.967
						c-0.103-0.375-0.016-0.771,0.238-1.084l86.215-106.039l114.006,30.632l1.197,18.111l-29.571,11.789l-1.79,27.912l48.307-34.342
						l68.765-33.467l1.534-22.045l30.994-0.02c1.254,0,2.481,0.32,3.537,0.924l11.542,6.603c5.201,2.976,11.698-1.548,9.699-6.755
						l-12.858-33.514c-0.677-1.763-0.363-3.706,0.844-5.226l11.201-14.11c1.366-1.721,3.675-2.648,6.031-2.419l28.241,2.742
						c1.202,0.117,2.343,0.528,3.298,1.188l3.54,2.446c5.373,3.713,12.74-1.443,9.949-6.964l0,0c-1.719-3.4,0.552-7.338,4.657-8.072
						l13.191-2.36c5.598-1.001,7.144-7.468,2.492-10.421l-6.857-4.353c-3.418-2.17-3.684-6.602-0.546-9.076l33.354-26.299
						c0.592-0.467,1.274-0.834,2.014-1.083l27.914-9.403c3.635-1.225,5.264-4.99,3.492-8.073l-2.615-4.549
						c-1.397-2.429-4.503-3.668-7.467-2.978l-26.113,6.079c-4.286,0.998-8.424-2.016-8.173-5.953l0.575-9.063
						C2253.364,1575.944,2256.241,1573.538,2259.713,1573.556z"/>
					<path style="fill-rule:evenodd;clip-rule:evenodd;fill:#FFFFFF;" d="M2724.184,2365.537l-60.576,19.61
						c-2.703,0.875-4.967,2.576-6.389,4.801l-17.828,27.887c-1.599,2.503-4.257,4.331-7.382,5.08l-54.345,13.02
						c-5.844,1.4-9.629,6.421-8.872,11.767l9.925,70.098c0.282,1.992-0.066,4.014-1.003,5.839l-8.091,15.742
						c-3.227,6.279,0.911,13.61,8.502,15.061l9.929,1.898c2.47,0.472,5.043,0.247,7.36-0.645l87.708-33.739
						c5.431-2.089,11.767-0.384,14.996,4.034l20.265,27.731c0.586,0.802,1.288,1.53,2.089,2.167l31.588,25.131
						c2.61,2.076,6.098,3.05,9.57,2.672l51.094-5.565c5.926-0.646,10.438-5.032,10.64-10.343l0.834-21.958
						c0.08-2.112,0.854-4.156,2.228-5.878l31.513-39.534c1.443-1.811,2.223-3.973,2.235-6.194l0.154-30.547
						c0.015-2.914-1.295-5.711-3.631-7.757l-42.163-36.904c-1.472-1.289-2.551-2.89-3.135-4.652l-7.732-23.333
						c-3.399-10.258-19.679-10.371-23.231-0.162l-2.801,8.051c-2.496,7.173-12.257,9.935-18.962,5.367l-9.583-6.528
						c-4.611-3.142-6.081-8.747-3.507-13.373l0.123-0.221c2.751-4.945,0.866-10.945-4.371-13.911l-6.483-3.671
						C2731.667,2364.775,2727.725,2364.391,2724.184,2365.537z"/>
					<path style="fill-rule:evenodd;clip-rule:evenodd;fill:#FFFFFF;" d="M2709.11,2297.178l-1.333,3.91
						c-1.443,4.23,0.159,8.819,4.044,11.582l34.764,24.722c1.508,1.072,3.28,1.809,5.17,2.15l65.876,11.888
						c0.666,0.12,1.319,0.29,1.953,0.507l8.588,2.946c10.747,3.685,20.664-6.767,14.785-15.582l-3.446-5.167
						c-1.353-2.027-3.411-3.606-5.864-4.496l-108.355-39.312C2718.677,2287.926,2711.183,2291.1,2709.11,2297.178z"/>
					<path style="fill-rule:evenodd;clip-rule:evenodd;fill:#FFFFFF;" d="M2602.381,2253.867
						c-8.632,8.544-20.266,19.986-26.832,26.438c-3.1,3.046-3.984,7.396-2.282,11.221l14.396,32.351
						c2.238,5.031,8.311,7.816,14.209,6.518l22.186-4.884c4.146-0.913,7.445-3.699,8.685-7.335l8.84-25.914
						c0.988-2.895,0.576-6.011-1.155-8.618c-4.165-6.272-12.323-18.559-18.602-28.014
						C2617.654,2249.344,2607.859,2248.445,2602.381,2253.867z"/>
					<path style="fill-rule:evenodd;clip-rule:evenodd;fill:#FFFFFF;" d="M2490.131,2258.129l50.208,56.726
						c0.156,0.176,0.318,0.347,0.485,0.514l30.927,30.799c2.09,2.082,5.002,3.363,8.128,3.577l59.479,4.069l-0.359,0.999
						c-1.547,4.3-5.937,7.285-11.006,7.486l-83.125,3.281c-4.283,0.169-8.35-1.686-10.701-4.879l-65.281-88.697
						c-3.251-4.417-2.442-10.273,1.913-13.851l1.567-1.287C2477.563,2252.597,2485.75,2253.179,2490.131,2258.129z"/>
					<path style="fill-rule:evenodd;clip-rule:evenodd;fill:#FFFFFF;" d="M1283.138,2203.669l-15.098,19.492
						c-2.092,2.7-5.821,3.992-9.416,3.261l-28.219-5.735c-4.117-0.837-7.033-4.105-7.014-7.862l0.09-17.947
						c0.022-4.3-3.771-7.853-8.598-8.054l-16.309-0.68c-6.633-0.277-10.67-6.625-7.519-11.823l17.631-29.083l-27.41-8.167
						c0,0-20.782,29.776-24.916,29.899c-4.135,0.124-31.196-37.756-31.196-37.756l34.227-38.476l52.564-1.13l25.02,32.435
						l15.927-52.229l58.692-39.293l115.93-72.461c0.839-0.524,1.507-1.234,1.939-2.061l21.7-41.494
						c0.961-1.838,0.635-4.008-0.836-5.559l-34.197-36.048c-0.776-0.818-1.251-1.829-1.359-2.895l-1.979-19.555
						c-0.517-5.114-8.157-6.554-10.949-2.065l0,0c-2.026,3.259-7.134,3.621-9.721,0.688l-23.068-26.146
						c-5.004-5.672-14.6-5.811-19.794-0.288l-29.49,31.36c-0.83,0.883-1.504,1.873-1.999,2.937l-12.922,27.787
						c-4.236,9.11-18.623,9.385-23.318,0.445l-0.682-1.298c-1.246-2.373-3.345-4.274-5.996-5.411
						c-12.646-5.424-50.521-22.234-50.721-29.089c-0.208-7.106,25.484-46.246,32.496-56.791c1.148-1.727,2.778-3.127,4.748-4.102
						l49.304-24.397c0.205-0.101,0.412-0.198,0.623-0.288l46.617-20.158c4.598-1.988,7.412-6.232,7.145-10.778l-0.649-11.083
						c-0.411-7.013-7.811-12.019-15.51-10.492l-22.386,4.439c-2.182,0.433-4.198,1.369-5.843,2.715l-10.001,8.18
						c-6.138,5.021-15.958,3.52-19.877-3.038l-13.922-23.297c-3.586-6.002-12.253-7.875-18.521-4.004l-19.017,11.744
						c-3.194,1.972-7.227,2.537-10.951,1.534l-64.307-17.325c-1.296-0.349-2.521-0.88-3.629-1.571l-55.053-34.357
						c-3.056-1.908-6.897-2.528-10.508-1.698l-43.359,9.968c-4.109,0.944-8.479,0.005-11.655-2.504l-74.571-58.93
						c-3.199-2.528-7.569-3.47-11.7-2.493c-14.017,3.315-46.707,10.863-60.27,12.435c-13.693,1.587-28.584,17.803-34.412,24.781
						c-1.589,1.903-1.789,4.423-0.538,6.52l6.298,10.558c2.217,3.718-0.331,8.27-4.999,8.928l-23.278,3.283
						c-4.819,0.68-7.333,5.48-4.822,9.207l5.456,8.095c0.87,1.291,1.177,2.822,0.862,4.301l-4.311,20.205
						c-0.734,3.44-4.551,5.632-8.378,4.81l-22.278-4.784c-4.487-0.964-8.745,2.193-8.489,6.294l1.949,31.245
						c0.078,1.242,0.578,2.435,1.435,3.42l18.525,21.28c2.524,2.899,1.667,7.095-1.855,8.991
						c-18.252,9.824-67.8,36.452-62.917,33.371c5.974-3.77,60.309,1.01,60.796-7.329s36.589-16.199,39.101-19.083
						c1.888-2.166,15.56-19.758,22.245-28.377c2.062-2.658,6.088-3.432,9.205-1.771l54.862,29.226
						c3.507,1.868,5.797,5.119,6.158,8.742l5.948,59.813c0.167,1.678,0.751,3.301,1.711,4.754l23.415,35.436l26.939,44.9
						c1.682,2.805,1.966,6.108,0.783,9.104l-14.855,37.612c-11.19,28.332-8.716,59.528,6.819,86.215
						c12.646,21.724,25.624,44.206,26.364,46.24c0.244,0.67,1.028,1.896,2.165,3.473c11.055,15.332,26.854,27.5,45.191,35.594
						l85.171,37.598c0.373,0.165,0.733,0.352,1.076,0.561l62.677,38.064c0.602,0.365,1.151,0.794,1.637,1.277l10.488,10.426
						c2.058,2.046,5.149,3.014,8.191,2.566l0,0c7.07-1.042,12.619,5.326,9.724,11.158l-16.654,33.552
						c-0.68,1.369-0.915,2.881-0.678,4.364l10.453,65.595c0.285,1.787,1.239,3.438,2.708,4.684l44.646,37.875
						c1.323,1.123,2.232,2.576,2.606,4.168l15.482,65.869c0.09,0.385,0.149,0.777,0.175,1.169l12.048,181.551
						c0.158,2.383,1.501,4.582,3.663,5.996l41.492,27.138c1.715,1.122,3.819,1.667,5.941,1.542l14.391-0.856
						c7.742-0.461,11.241-8.836,5.723-13.696l-13.894-12.239c-1.588-1.398-2.536-3.271-2.661-5.255l-1.088-17.201
						c-0.011-0.163-0.015-0.325-0.014-0.487l0.159-31.588c0.002-0.493,0.056-0.985,0.16-1.469l5.196-24.199
						c0.032-0.149,0.059-0.299,0.082-0.45l2.524-16.934c0.418-2.803,2.464-5.201,5.386-6.311l35.543-13.505
						c4.604-1.75,6.717-6.508,4.703-10.591l-4.593-9.311c-2.242-4.546,0.645-9.791,6.053-10.995l13.935-3.102
						c2.247-0.5,4.19-1.752,5.426-3.495l28.907-40.785c1.938-2.734,1.839-6.24-0.252-8.887l-0.596-0.756
						c-3.742-4.74-0.783-11.333,5.595-12.467l16.11-2.865c3.227-0.574,5.843-2.668,6.824-5.463l23.615-67.26
						c0.369-1.051,0.978-2.023,1.788-2.855l33.505-34.414c3.487-3.582,2.735-9.064-1.62-11.802l-45.92-28.871
						c-1.63-1.025-3.596-1.54-5.589-1.463l-33.005,1.258c-2.161,0.083-4.284-0.53-5.981-1.724l-19.805-13.943
						c-2.104-1.481-3.359-3.719-3.422-6.105l-0.577-21.663c-0.092-3.459-2.667-6.479-6.387-7.489l-40.317-10.947
						c-1.094-0.297-2.115-0.777-3.008-1.414l-25.077-17.878c-2.546-1.815-5.994-2.266-9.015-1.178l-20.357,7.33
						c-2.46,0.885-5.234,0.76-7.583-0.342l-39.391-18.482C1290.715,2199.239,1285.726,2200.327,1283.138,2203.669z"/>
					<path style="fill-rule:evenodd;clip-rule:evenodd;fill:#FFFFFF;" d="M1321.022,1680.663l5.26-22.63
						c1.064-4.581,5.182-8.106,10.366-8.876l37.035-5.501c2.897-0.431,5.873,0.043,8.425,1.341l45.636,23.213
						c3.07,1.562,3.899,5.169,1.763,7.673l-18.264,21.408c-1.521,1.783-1.59,4.233-0.17,6.084l25.998,33.904
						c0.791,1.031,1.14,2.281,0.983,3.52l-4.937,39.043c-0.097,0.766-0.383,1.503-0.839,2.157l-14.468,20.79
						c-1.329,1.911-3.886,2.844-6.342,2.316l-39.48-8.481c-0.636-0.136-1.259-0.316-1.863-0.538l-3.554-1.302
						c-10.179-3.73-10.631-16.412-0.737-20.688l7.389-3.193c4.93-2.13,7.777-6.805,7.062-11.643
						c-1.461-9.895-4.128-25.865-6.686-30.321c-2.245-3.912-3.664-13.233-4.447-20.17c-0.565-5.008-4.766-9.069-10.323-10.003
						l-27.677-4.65C1324.143,1692.938,1319.578,1686.875,1321.022,1680.663z"/>
					<path style="fill-rule:evenodd;clip-rule:evenodd;fill:#FFFFFF;" d="M1162.079,1608.256l-16.997,12.437
						c-5.295,3.874-6.189,10.787-2.024,15.64l16.233,18.914c0.288,0.336,0.556,0.687,0.801,1.05l21.178,31.404
						c1.456,2.159,3.677,3.826,6.312,4.739l19.955,6.915c4.361,1.511,9.299,0.775,12.863-1.917l13.919-10.513
						c1.261-0.953,2.302-2.115,3.063-3.423l16.209-27.836c0.936-1.607,1.426-3.39,1.427-5.201l0,0
						c0.013-10.098-13.696-15.188-21.735-8.07l-0.865,0.766c-5.128,4.541-13.476,4.368-18.374-0.379l-34.486-33.425
						C1174.979,1604.916,1167.303,1604.433,1162.079,1608.256z"/>
					<path style="fill-rule:evenodd;clip-rule:evenodd;fill:#FFFFFF;" d="M1510.467,1556.417l-61.584,44.137
						c-1.901,1.362-2.65,3.634-1.878,5.697l11.555,30.899c0.603,1.612,2.05,2.861,3.878,3.349l34.457,9.188
						c2.813,0.75,4.853,2.921,5.186,5.516l8.834,68.944c0.135,1.055-0.021,2.122-0.454,3.11l-20.923,47.693
						c-0.564,1.286-0.655,2.697-0.26,4.033l17.138,57.911c0.557,1.881,2.027,3.444,4.01,4.262l14.164,5.846
						c3.487,1.44,7.628,0.239,9.489-2.75l28.436-45.675c0.705-1.132,1.772-2.051,3.067-2.641l46.832-21.33
						c0.588-0.267,1.132-0.604,1.618-1.002l68.746-56.225c1.092-0.893,1.853-2.06,2.183-3.347l24.501-95.594
						c0.253-0.984,0.758-1.903,1.477-2.682l37.921-41.148c1.64-1.779,2.103-4.197,1.219-6.361l-4.327-10.599
						c-1.429-3.499-5.852-5.23-9.711-3.801l-21.16,7.837c-1.299,0.481-2.727,0.619-4.113,0.397l-13.027-2.087
						c-7.783-1.246-8.151-11.061-0.478-12.751l0,0c5.695-1.254,7.499-7.66,3.146-11.166l-4.658-3.751
						c-0.418-0.336-0.791-0.715-1.112-1.127l-16.642-21.405c-1.362-1.753-3.599-2.803-5.993-2.816l-47.155-0.237
						c-1.952-0.01-3.827,0.674-5.209,1.899l-26.632,23.616c-1.712,1.518-2.471,3.69-2.03,5.806l2.634,12.628
						c1.055,5.059-4.578,9.157-9.941,7.231l-14.948-5.367c-1.683-0.604-3.055-1.743-3.851-3.195l-4.336-7.912
						c-1.786-3.258-6.21-4.6-9.855-2.989l-38.883,17.198C1511.326,1555.867,1510.879,1556.121,1510.467,1556.417z"/>
					<path style="fill-rule:evenodd;clip-rule:evenodd;fill:#FFFFFF;" d="M1398.492,1513.514l74.301-17.323
						c0.94-0.219,1.927-0.226,2.872-0.021l66.173,14.388c6.11,1.329,7.635,8.437,2.503,11.665l-9.786,6.153
						c-0.119,0.075-0.235,0.153-0.349,0.234l-90.418,64.375l-40.434,29.262c-2.894,2.095-6.677,2.953-10.348,2.349l-39.922-6.568
						c-4.051-0.666-8.21,0.45-11.168,2.997l-12.413,10.69c-6.177,5.319-16.387,3.77-20.25-3.072l-5.436-9.627
						c-0.224-0.397-0.422-0.806-0.592-1.224l-4.18-10.246c-2.41-5.909,1.035-12.429,7.682-14.54l24.364-7.738
						c3.073-0.976,6.452-0.865,9.438,0.311l18.411,7.248c3.21,1.264,6.861,1.294,10.094,0.085l0.418-0.157
						c7.897-2.955,10.322-11.869,4.821-17.723l-4.732-5.035c-3.306-3.519-3.909-8.461-1.527-12.524l22.422-38.242
						C1392.095,1516.399,1395.021,1514.324,1398.492,1513.514z"/>
					<path style="fill-rule:evenodd;clip-rule:evenodd;fill:#FFFFFF;" d="M1217.661,1560.324l27.054-6.33
						c7.394-1.73,14.831,2.688,15.876,9.432l3.871,24.994c0.788,5.089-2.365,10.011-7.686,11.995l-22.931,8.551
						c-7.15,2.666-15.302-0.925-17.264-7.604l-7.995-27.215C1206.809,1568.097,1210.868,1561.913,1217.661,1560.324z"/>
				</g>
			</g>
		</g>
		
			<linearGradient id="SVGID_00000022559079868737156420000016093842589487607713_" gradientUnits="userSpaceOnUse" x1="1130.3103" y1="1401.3074" x2="1153.6547" y2="1401.3074">
			<stop  offset="0" style="stop-color:#A737D5"/>
			<stop  offset="1" style="stop-color:#EF497A"/>
		</linearGradient>
		<path style="fill:url(#SVGID_00000022559079868737156420000016093842589487607713_);" d="M1143.65,1931.556
			c-5.51,0-9.987-4.458-10.005-9.972l-0.096-30.014c-0.018-5.527,4.447-10.021,9.972-10.037c0.011,0,0.023,0,0.033,0
			c5.51,0,9.987,4.458,10.005,9.972l0.096,30.014c0.018,5.527-4.447,10.021-9.972,10.037
			C1143.671,1931.556,1143.66,1931.556,1143.65,1931.556z M1143.458,1871.528c-5.51,0-9.987-4.458-10.005-9.972l-0.096-30.014
			c-0.018-5.527,4.447-10.021,9.972-10.037c0.011,0,0.023,0,0.033,0c5.51,0,9.987,4.458,10.005,9.972l0.096,30.014
			c0.018,5.527-4.447,10.021-9.972,10.037C1143.479,1871.528,1143.468,1871.528,1143.458,1871.528z M1143.266,1811.5
			c-5.51,0-9.987-4.458-10.005-9.972l-0.096-30.014c-0.018-5.527,4.447-10.021,9.972-10.037c0.011,0,0.023,0,0.033,0
			c5.51,0,9.987,4.458,10.005,9.972l0.096,30.014c0.018,5.527-4.447,10.021-9.972,10.037
			C1143.287,1811.5,1143.275,1811.5,1143.266,1811.5z M1143.073,1751.472c-5.51,0-9.987-4.458-10.005-9.972l-0.098-30.014
			c-0.018-5.527,4.447-10.018,9.972-10.037c0.011,0,0.023,0,0.032,0c5.51,0,9.987,4.458,10.005,9.972l0.098,30.014
			c0.018,5.527-4.447,10.018-9.972,10.037C1143.095,1751.472,1143.083,1751.472,1143.073,1751.472z M1142.88,1691.443
			c-5.51,0-9.987-4.458-10.005-9.972l-0.096-30.014c-0.018-5.527,4.447-10.021,9.972-10.037c0.011,0,0.023,0,0.033,0
			c5.51,0,9.987,4.458,10.005,9.972l0.096,30.014c0.018,5.527-4.447,10.021-9.972,10.037
			C1142.901,1691.443,1142.889,1691.443,1142.88,1691.443z M1142.688,1631.415c-5.51,0-9.987-4.458-10.005-9.972l-0.096-30.011
			c-0.018-5.527,4.447-10.021,9.972-10.037c0.011,0,0.023,0,0.032,0c5.512,0,9.987,4.458,10.005,9.972l0.096,30.011
			c0.018,5.527-4.447,10.021-9.972,10.037C1142.709,1631.415,1142.697,1631.415,1142.688,1631.415z M1142.495,1571.39
			c-5.512,0-9.987-4.458-10.005-9.972l-0.096-30.014c-0.018-5.527,4.447-10.021,9.972-10.037c0.011,0,0.023,0,0.034,0
			c5.51,0,9.985,4.458,10.003,9.972l0.096,30.014c0.018,5.527-4.447,10.021-9.972,10.037
			C1142.516,1571.39,1142.505,1571.39,1142.495,1571.39z M1142.302,1511.362c-5.51,0-9.985-4.458-10.003-9.972l-0.096-30.014
			c-0.018-5.527,4.447-10.021,9.972-10.037c0.011,0,0.023,0,0.033,0c5.512,0,9.987,4.458,10.005,9.972l0.096,30.014
			c0.018,5.527-4.447,10.021-9.972,10.037C1142.324,1511.362,1142.313,1511.362,1142.302,1511.362z M1142.111,1451.334
			c-5.512,0-9.987-4.458-10.005-9.972l-0.096-30.014c-0.018-5.527,4.447-10.021,9.972-10.037c0.011,0,0.023,0,0.034,0
			c5.51,0,9.985,4.458,10.003,9.972l0.096,30.014c0.018,5.527-4.447,10.021-9.972,10.037
			C1142.132,1451.334,1142.121,1451.334,1142.111,1451.334z M1141.917,1391.306c-5.51,0-9.985-4.458-10.003-9.972l-0.096-30.014
			c-0.018-5.527,4.447-10.021,9.972-10.037c0.011,0,0.023,0,0.033,0c5.512,0,9.987,4.458,10.005,9.972l0.096,30.014
			c0.018,5.527-4.447,10.021-9.972,10.037C1141.94,1391.306,1141.929,1391.306,1141.917,1391.306z M1141.725,1331.278
			c-5.512,0-9.987-4.458-10.005-9.972l-0.096-30.014c-0.018-5.527,4.447-10.021,9.972-10.037c0.011,0,0.023,0,0.034,0
			c5.51,0,9.985,4.458,10.003,9.972l0.096,30.014c0.018,5.527-4.447,10.021-9.972,10.037
			C1141.746,1331.278,1141.735,1331.278,1141.725,1331.278z M1141.531,1271.25c-5.51,0-9.985-4.458-10.003-9.972l-0.096-30.014
			c-0.018-5.527,4.447-10.021,9.972-10.037c0.011,0,0.023,0,0.032,0c5.512,0,9.987,4.458,10.005,9.972l0.096,30.014
			c0.018,5.527-4.447,10.021-9.972,10.037C1141.554,1271.25,1141.543,1271.25,1141.531,1271.25z M1141.341,1211.221
			c-5.512,0-9.987-4.458-10.005-9.972l-0.096-30.014c-0.018-5.527,4.447-10.021,9.972-10.037c0.011,0,0.023,0,0.034,0
			c5.51,0,9.985,4.458,10.003,9.972l0.096,30.014c0.018,5.527-4.447,10.021-9.972,10.037
			C1141.362,1211.221,1141.351,1211.221,1141.341,1211.221z M1141.147,1151.193c-5.51,0-9.985-4.459-10.003-9.972l-0.096-30.014
			c-0.018-5.527,4.447-10.021,9.972-10.037c0.011,0,0.023,0,0.032,0c5.512,0,9.987,4.458,10.005,9.972l0.096,30.014
			c0.018,5.527-4.447,10.021-9.972,10.037C1141.17,1151.193,1141.158,1151.193,1141.147,1151.193z M1140.957,1091.165
			c-5.512,0-9.987-4.458-10.005-9.972l-0.096-30.014c-0.018-5.527,4.447-10.021,9.972-10.037c0.011,0,0.023,0,0.033,0
			c5.512,0,9.987,4.458,10.005,9.972l0.096,30.014c0.018,5.527-4.447,10.021-9.972,10.037
			C1140.978,1091.165,1140.966,1091.165,1140.957,1091.165z M1140.764,1031.137c-5.512,0-9.987-4.458-10.005-9.972l-0.096-30.014
			c-0.018-5.527,4.447-10.021,9.972-10.037c0.011,0,0.023,0,0.033,0c5.512,0,9.987,4.458,10.005,9.972l0.096,30.014
			c0.018,5.527-4.447,10.021-9.972,10.037C1140.786,1031.137,1140.774,1031.137,1140.764,1031.137z M1140.572,971.109
			c-5.512,0-9.987-4.458-10.005-9.972l-0.098-30.011c-0.018-5.527,4.447-10.018,9.972-10.037c0.011,0,0.023,0,0.033,0
			c5.51,0,9.987,4.458,10.005,9.972l0.098,30.011c0.018,5.527-4.447,10.018-9.972,10.037
			C1140.593,971.109,1140.582,971.109,1140.572,971.109z M1140.379,911.084c-5.512,0-9.987-4.458-10.005-9.972l-0.063-20.016
			c-0.018-5.527,4.447-10.021,9.974-10.037c0.01,0,0.021,0,0.031,0c5.512,0,9.987,4.458,10.005,9.972l0.063,20.016
			c0.018,5.527-4.447,10.021-9.974,10.037C1140.4,911.084,1140.388,911.084,1140.379,911.084z"/>
		
			<linearGradient id="SVGID_00000172406416826311578510000017527499730159553413_" gradientUnits="userSpaceOnUse" x1="1847.6412" y1="1633.1396" x2="1883.9966" y2="1633.1396">
			<stop  offset="0" style="stop-color:#A737D5"/>
			<stop  offset="1" style="stop-color:#EF497A"/>
		</linearGradient>
		<path style="fill:url(#SVGID_00000172406416826311578510000017527499730159553413_);" d="M1873.989,2228.362
			c-5.46,0-9.925-4.387-10-9.865l-0.418-30.011c-0.078-5.527,4.338-10.067,9.863-10.145c5.401-0.059,10.067,4.338,10.143,9.865
			l0.418,30.011c0.078,5.527-4.338,10.066-9.863,10.145C1874.085,2228.362,1874.036,2228.362,1873.989,2228.362z M1873.151,2168.34
			c-5.46,0-9.923-4.387-10-9.865l-0.418-30.011c-0.078-5.527,4.338-10.067,9.863-10.145c5.481-0.046,10.067,4.338,10.143,9.865
			l0.418,30.011c0.078,5.527-4.338,10.067-9.863,10.145C1873.247,2168.34,1873.198,2168.34,1873.151,2168.34z M1872.312,2108.319
			c-5.46,0-9.923-4.387-10-9.865l-0.419-30.014c-0.078-5.527,4.338-10.067,9.863-10.145c5.37-0.029,10.065,4.338,10.143,9.865
			l0.419,30.014c0.078,5.527-4.338,10.067-9.863,10.145C1872.408,2108.319,1872.359,2108.319,1872.312,2108.319z M1871.475,2048.294
			c-5.46,0-9.923-4.387-10-9.865l-0.42-30.011c-0.078-5.523,4.338-10.067,9.863-10.145c5.448-0.016,10.065,4.338,10.143,9.865
			l0.42,30.011c0.078,5.523-4.338,10.067-9.863,10.145C1871.571,2048.294,1871.522,2048.294,1871.475,2048.294z M1870.636,1988.272
			c-5.46,0-9.923-4.387-10-9.865l-0.42-30.011c-0.078-5.523,4.338-10.067,9.863-10.145c5.528-0.003,10.067,4.338,10.143,9.865
			l0.42,30.011c0.078,5.523-4.338,10.067-9.863,10.145C1870.733,1988.272,1870.684,1988.272,1870.636,1988.272z M1869.798,1928.25
			c-5.46,0-9.923-4.387-10-9.865l-0.418-30.011c-0.078-5.527,4.338-10.067,9.863-10.145c5.416,0.006,10.065,4.338,10.143,9.865
			l0.418,30.011c0.078,5.527-4.338,10.067-9.863,10.145C1869.894,1928.25,1869.845,1928.25,1869.798,1928.25z M1868.959,1868.229
			c-5.46,0-9.925-4.387-10-9.865l-0.418-30.011c-0.078-5.527,4.338-10.067,9.863-10.145c5.494,0.02,10.068,4.338,10.143,9.865
			l0.418,30.011c0.078,5.527-4.338,10.067-9.863,10.145C1869.055,1868.229,1869.006,1868.229,1868.959,1868.229z M1868.121,1808.207
			c-5.46,0-9.923-4.387-10-9.865l-0.419-30.014c-0.078-5.527,4.338-10.067,9.863-10.145c0.047,0,0.096,0,0.143,0
			c5.46,0,9.925,4.387,10,9.865l0.419,30.014c0.078,5.527-4.338,10.067-9.863,10.145
			C1868.217,1808.207,1868.168,1808.207,1868.121,1808.207z M1867.284,1748.182c-5.46,0-9.923-4.387-10-9.865l-0.42-30.011
			c-0.078-5.523,4.338-10.067,9.863-10.145c5.463,0.049,10.065,4.338,10.143,9.865l0.42,30.011
			c0.078,5.523-4.338,10.067-9.863,10.145C1867.38,1748.182,1867.331,1748.182,1867.284,1748.182z M1866.445,1688.161
			c-5.46,0-9.923-4.387-10-9.865l-0.42-30.011c-0.078-5.523,4.338-10.067,9.863-10.145c0.047,0,0.094,0,0.143,0
			c5.46,0,9.923,4.387,10,9.865l0.42,30.011c0.078,5.523-4.338,10.067-9.863,10.145
			C1866.541,1688.161,1866.492,1688.161,1866.445,1688.161z M1865.606,1628.139c-5.46,0-9.923-4.387-10-9.865l-0.42-30.011
			c-0.078-5.523,4.338-10.067,9.863-10.145c0.047,0,0.096,0,0.143,0c5.46,0,9.923,4.387,10,9.865l0.42,30.011
			c0.078,5.523-4.338,10.067-9.863,10.145C1865.702,1628.139,1865.654,1628.139,1865.606,1628.139z M1864.768,1568.117
			c-5.46,0-9.923-4.387-10-9.865l-0.418-30.011c-0.078-5.527,4.338-10.067,9.863-10.145c5.509,0.088,10.067,4.338,10.143,9.865
			l0.418,30.011c0.078,5.527-4.338,10.067-9.863,10.145C1864.864,1568.117,1864.815,1568.117,1864.768,1568.117z M1863.929,1508.096
			c-5.46,0-9.925-4.387-10-9.865l-0.419-30.011c-0.078-5.527,4.338-10.067,9.863-10.145c0.047,0,0.096,0,0.143,0
			c5.46,0,9.925,4.387,10,9.865l0.419,30.011c0.078,5.527-4.338,10.066-9.863,10.145
			C1864.025,1508.096,1863.976,1508.096,1863.929,1508.096z M1863.09,1448.071c-5.46,0-9.923-4.387-10-9.865l-0.418-30.011
			c-0.078-5.527,4.338-10.067,9.863-10.145c0.047,0,0.096,0,0.143,0c5.46,0,9.923,4.387,10,9.865l0.419,30.011
			c0.078,5.527-4.338,10.066-9.863,10.145C1863.187,1448.071,1863.138,1448.071,1863.09,1448.071z M1862.254,1388.049
			c-5.46,0-9.923-4.387-10-9.865l-0.42-30.011c-0.078-5.523,4.338-10.067,9.863-10.145c0.047,0,0.096,0,0.143,0
			c5.46,0,9.923,4.387,10,9.865l0.42,30.011c0.078,5.523-4.338,10.067-9.863,10.145
			C1862.35,1388.049,1862.301,1388.049,1862.254,1388.049z M1861.415,1328.027c-5.46,0-9.923-4.387-10-9.865l-0.42-30.011
			c-0.078-5.523,4.338-10.067,9.863-10.145c0.047,0,0.096,0,0.143,0c5.46,0,9.923,4.387,10,9.865l0.42,30.011
			c0.078,5.523-4.338,10.067-9.863,10.145C1861.511,1328.027,1861.462,1328.027,1861.415,1328.027z M1860.576,1268.006
			c-5.46,0-9.923-4.387-10-9.865l-0.419-30.011c-0.078-5.527,4.338-10.067,9.863-10.145c5.522-0.225,10.067,4.338,10.143,9.865
			l0.418,30.011c0.078,5.527-4.338,10.067-9.863,10.145C1860.672,1268.006,1860.624,1268.006,1860.576,1268.006z M1859.738,1207.984
			c-5.46,0-9.923-4.387-10-9.865l-0.418-30.011c-0.078-5.527,4.338-10.067,9.863-10.145c0.047,0,0.096,0,0.143,0
			c5.46,0,9.923,4.387,10,9.865l0.418,30.011c0.078,5.527-4.338,10.067-9.863,10.145
			C1859.834,1207.984,1859.785,1207.984,1859.738,1207.984z M1858.899,1147.963c-5.46,0-9.925-4.387-10-9.865l-0.418-30.014
			c-0.078-5.527,4.338-10.067,9.863-10.145c5.489-0.195,10.067,4.341,10.143,9.865l0.418,30.014
			c0.078,5.527-4.338,10.067-9.863,10.145C1858.995,1147.963,1858.946,1147.963,1858.899,1147.963z M1858.062,1087.938
			c-5.46,0-9.923-4.387-10-9.865l-0.42-30.011c-0.078-5.523,4.338-10.067,9.863-10.145c0.047,0,0.096,0,0.143,0
			c5.46,0,9.923,4.387,10,9.865l0.42,30.011c0.078,5.523-4.338,10.067-9.863,10.145
			C1858.158,1087.938,1858.111,1087.938,1858.062,1087.938z"/>
		
			<linearGradient id="SVGID_00000162353151870901732390000008208551994792082108_" gradientUnits="userSpaceOnUse" x1="2637.6838" y1="1666.4349" x2="2660.9844" y2="1666.4349">
			<stop  offset="0" style="stop-color:#A737D5"/>
			<stop  offset="1" style="stop-color:#EF497A"/>
		</linearGradient>
		<path style="fill:url(#SVGID_00000162353151870901732390000008208551994792082108_);" d="M2647.69,2171.669
			c-0.013,0-0.023,0-0.034,0c-5.527-0.02-9.99-4.514-9.972-10.037l0.099-30.014c0.018-5.514,4.494-9.972,10.003-9.972
			c0.013,0,0.023,0,0.034,0c5.527,0.02,9.99,4.514,9.972,10.037l-0.099,30.014C2657.676,2167.21,2653.199,2171.669,2647.69,2171.669
			z M2647.889,2111.64c-0.013,0-0.023,0-0.036,0c-5.525-0.019-9.989-4.514-9.97-10.037l0.101-30.014
			c0.018-5.514,4.494-9.972,10.003-9.972c0.013,0,0.023,0,0.036,0c5.525,0.02,9.989,4.514,9.97,10.037l-0.101,30.014
			C2657.874,2107.182,2653.398,2111.64,2647.889,2111.64z M2648.089,2051.612c-0.013,0-0.023,0-0.034,0
			c-5.527-0.02-9.99-4.514-9.972-10.037l0.099-30.014c0.018-5.523,4.602-9.868,10.037-9.972c5.527,0.02,9.99,4.514,9.972,10.037
			l-0.099,30.014C2658.074,2047.154,2653.598,2051.612,2648.089,2051.612z M2648.288,1991.584c-0.013,0-0.023,0-0.036,0
			c-5.525-0.02-9.989-4.514-9.971-10.037l0.101-30.014c0.018-5.514,4.494-9.972,10.005-9.972c0.011,0,0.021,0,0.034,0
			c5.525,0.02,9.989,4.514,9.971,10.037l-0.101,30.014C2658.273,1987.126,2653.797,1991.584,2648.288,1991.584z M2648.488,1931.556
			c-0.013,0-0.023,0-0.034,0c-5.527-0.02-9.99-4.514-9.972-10.037l0.099-30.014c0.018-5.514,4.494-9.972,10.005-9.972
			c0.011,0,0.021,0,0.032,0c5.527,0.02,9.99,4.514,9.972,10.037l-0.099,30.014
			C2658.473,1927.098,2653.997,1931.556,2648.488,1931.556z M2648.685,1871.531c-0.011,0-0.023,0-0.034,0
			c-5.525-0.02-9.989-4.514-9.97-10.037l0.101-30.014c0.018-5.514,4.494-9.972,10.005-9.972c0.011,0,0.023,0,0.034,0
			c5.525,0.02,9.989,4.514,9.971,10.037l-0.101,30.014C2658.672,1867.073,2654.196,1871.531,2648.685,1871.531z M2648.885,1811.503
			c-0.011,0-0.021,0-0.032,0c-5.527-0.02-9.99-4.514-9.972-10.037l0.099-30.014c0.018-5.514,4.494-9.972,10.005-9.972
			c0.011,0,0.021,0,0.033,0c5.527,0.02,9.99,4.514,9.972,10.037l-0.099,30.014
			C2658.872,1807.045,2654.396,1811.503,2648.885,1811.503z M2649.084,1751.475c-0.011,0-0.023,0-0.034,0
			c-5.525-0.02-9.989-4.514-9.97-10.037l0.101-30.014c0.018-5.514,4.494-9.972,10.005-9.972c0.011,0,0.023,0,0.034,0
			c5.525,0.02,9.988,4.514,9.97,10.037l-0.101,30.014C2659.071,1747.016,2654.594,1751.475,2649.084,1751.475z M2649.284,1691.447
			c-0.011,0-0.021,0-0.032,0c-5.527-0.02-9.99-4.514-9.972-10.037l0.099-30.014c0.018-5.514,4.494-9.972,10.005-9.972
			c0.011,0,0.021,0,0.033,0c5.527,0.02,9.99,4.514,9.972,10.037l-0.099,30.014
			C2659.271,1686.988,2654.795,1691.447,2649.284,1691.447z M2649.483,1631.418c-0.011,0-0.021,0-0.032,0
			c-5.527-0.019-9.99-4.514-9.972-10.037l0.099-30.014c0.018-5.514,4.494-9.972,10.005-9.972c0.011,0,0.021,0,0.032,0
			c5.527,0.019,9.99,4.514,9.972,10.037l-0.099,30.014C2659.47,1626.96,2654.994,1631.418,2649.483,1631.418z M2649.684,1571.39
			c-0.011,0-0.021,0-0.033,0c-5.527-0.02-9.99-4.514-9.972-10.037l0.099-30.014c0.018-5.514,4.494-9.972,10.005-9.972
			c0.011,0,0.021,0,0.033,0c5.527,0.02,9.99,4.514,9.972,10.037l-0.099,30.014C2659.67,1566.932,2655.194,1571.39,2649.684,1571.39z
			 M2649.882,1511.362c-0.011,0-0.021,0-0.032,0c-5.527-0.02-9.99-4.514-9.972-10.037l0.099-30.014
			c0.018-5.514,4.494-9.972,10.005-9.972c0.011,0,0.021,0,0.032,0c5.527,0.02,9.99,4.514,9.972,10.037l-0.099,30.014
			C2659.869,1506.904,2655.393,1511.362,2649.882,1511.362z M2650.083,1451.334c-0.011,0-0.021,0-0.033,0
			c-5.527-0.02-9.99-4.514-9.972-10.037l0.099-30.014c0.018-5.514,4.494-9.972,10.005-9.972c0.011,0,0.021,0,0.033,0
			c5.527,0.02,9.99,4.514,9.972,10.037l-0.099,30.014C2660.069,1446.876,2655.593,1451.334,2650.083,1451.334z M2650.281,1391.306
			c-0.011,0-0.021,0-0.032,0c-5.527-0.02-9.99-4.514-9.972-10.037l0.099-30.014c0.018-5.514,4.494-9.972,10.005-9.972
			c0.011,0,0.021,0,0.033,0c5.527,0.02,9.99,4.514,9.972,10.037l-0.099,30.014
			C2660.268,1386.847,2655.792,1391.306,2650.281,1391.306z M2650.481,1331.278c-0.011,0-0.021,0-0.033,0
			c-5.527-0.02-9.99-4.514-9.972-10.037l0.099-30.014c0.018-5.514,4.494-9.972,10.005-9.972c0.011,0,0.021,0,0.032,0
			c5.527,0.02,9.99,4.514,9.972,10.037l-0.099,30.014C2660.468,1326.819,2655.992,1331.278,2650.481,1331.278z M2650.68,1271.25
			c-0.011,0-0.021,0-0.032,0c-5.527-0.02-9.99-4.514-9.972-10.037l0.099-30.014c0.018-5.514,4.494-9.972,10.005-9.972
			c0.011,0,0.021,0,0.033,0c5.527,0.02,9.99,4.514,9.972,10.037l-0.099,30.014C2660.667,1266.791,2656.19,1271.25,2650.68,1271.25z
			 M2650.882,1211.225c-0.013,0-0.023,0-0.034,0c-5.527-0.02-9.99-4.514-9.972-10.037l0.099-30.014
			c0.018-5.514,4.494-9.972,10.005-9.972c0.011,0,0.021,0,0.033,0c5.527,0.02,9.99,4.514,9.972,10.037l-0.099,30.014
			C2660.867,1206.766,2656.391,1211.225,2650.882,1211.225z"/>
		<g>
			<g>
				<g>
					
						<linearGradient id="SVGID_00000092456167594684403420000014579767187988105617_" gradientUnits="userSpaceOnUse" x1="1162.4756" y1="1573.9987" x2="1120.2336" y2="2123.1445">
						<stop  offset="0" style="stop-color:#CB236D"/>
						<stop  offset="0.867" style="stop-color:#5D246D"/>
						<stop  offset="1" style="stop-color:#4C246D"/>
					</linearGradient>
					
						<circle style="fill:url(#SVGID_00000092456167594684403420000014579767187988105617_);" cx="1149.899" cy="1737.494" r="130.404"/>
					
						<linearGradient id="SVGID_00000168830292973605321040000016926922389891358102_" gradientUnits="userSpaceOnUse" x1="1162.2833" y1="1573.9839" x2="1120.0413" y2="2123.1316">
						<stop  offset="0" style="stop-color:#CB236D"/>
						<stop  offset="0.867" style="stop-color:#5D246D"/>
						<stop  offset="1" style="stop-color:#4C246D"/>
					</linearGradient>
					<path style="fill:url(#SVGID_00000168830292973605321040000016926922389891358102_);" d="M1280.065,1730.503h-130.166h-130.404
						c0,0-10.382,72.38,106.002,270.63c5.078,8.65,14.356,13.819,24.386,13.823c10.03,0.005,19.325-5.078,24.402-13.728
						C1290.657,1802.961,1280.065,1730.503,1280.065,1730.503z"/>
				</g>
				<g>
					<path style="opacity:0.8;fill:#FFFFFF;" d="M1149.841,2019.188v0.734h0.04c-11.351,0-21.945-6.245-27.649-15.96
						c-68.03-115.884-92.958-189.156-101.887-230.157c-2.546-9.432-4.009-18.678-4.471-28.157
						c-0.788-9.697-0.185-13.782-0.114-14.214l0.343-2.086c5.254-70.048,63.553-124.563,133.796-124.563
						c71.166,0,129.991,55.288,133.968,125.894c0.1,0.924,0.291,3.268,0.216,7.188l0.006,0.481c0,12.808-1.81,25.494-5.378,37.708
						c-9.238,40.965-34.319,113.515-101.189,227.444C1171.782,2013.277,1161.574,2019.188,1149.841,2019.188z M1023.055,1736.37
						c-0.031,1.956,0.028,4.748,0.371,8.952l0.008-0.014c0.433,8.98,1.821,17.627,4.244,26.578l0.045,0.15
						c8.796,40.444,33.465,112.8,101.039,227.906c4.35,7.411,12.416,12.007,21.094,12.011l-0.016,3.777v-3.786
						c7.822,0,16.765-4.642,21.151-12.115c66.442-113.2,91.247-185.14,100.344-225.557l0.067-0.234
						c3.388-11.557,4.352-23.566,4.352-35.694l-0.761-0.533v-0.043c0-3.775,0.639-5.816,0.578-6.352l0.361-0.219
						c-3.702-66.645-59.04-118.85-126.224-118.85c-67.055,0-122.482,52.941-126.305,120.171l-0.108,3.85H1023.055z"/>
				</g>
				
					<ellipse transform="matrix(0.7071 -0.7071 0.7071 0.7071 -891.3758 1322.176)" style="fill:#FFFFFF;" cx="1150.32" cy="1737.074" rx="75.297" ry="75.297"/>
				<g>
					
						<linearGradient id="SVGID_00000011030585212064562300000001156027964414935449_" gradientUnits="userSpaceOnUse" x1="1403.2439" y1="1534.6207" x2="531.0788" y2="2232.7446">
						<stop  offset="0" style="stop-color:#FDF53F"/>
						<stop  offset="1" style="stop-color:#D93C65"/>
					</linearGradient>
					<path style="fill:url(#SVGID_00000011030585212064562300000001156027964414935449_);" d="M1150.32,1816.578
						c-43.839,0-79.504-35.666-79.504-79.504c0-43.839,35.665-79.504,79.504-79.504s79.504,35.665,79.504,79.504
						C1229.824,1780.912,1194.158,1816.578,1150.32,1816.578z M1150.32,1665.983c-39.2,0-71.091,31.891-71.091,71.091
						c0,39.199,31.891,71.091,71.091,71.091c39.2,0,71.091-31.891,71.091-71.091
						C1221.411,1697.874,1189.519,1665.983,1150.32,1665.983z"/>
				</g>
			</g>
			<g>
				<path style="fill:#FFFFFF;" d="M1078.892,1658.677c-0.355,0-0.708-0.149-0.958-0.44c-0.454-0.529-0.393-1.325,0.136-1.779
					c21.153-18.167,48.178-28.171,76.098-28.171c0.697,0,1.262,0.565,1.262,1.262c0,0.697-0.565,1.262-1.262,1.262
					c-27.317,0-53.759,9.789-74.454,27.562C1079.476,1658.577,1079.183,1658.677,1078.892,1658.677z"/>
			</g>
			<g>
				<path style="fill:#FFFFFF;" d="M1038.572,1746.407c-0.697,0-1.262-0.565-1.262-1.262c0-21.805,6.045-43.076,17.482-61.513
					c0.368-0.593,1.146-0.775,1.738-0.407c0.592,0.368,0.775,1.146,0.407,1.738c-11.189,18.038-17.103,38.849-17.103,60.183
					C1039.833,1745.842,1039.269,1746.407,1038.572,1746.407z"/>
			</g>
		</g>
		<g>
			<g>
				<g>
					
						<linearGradient id="SVGID_00000121995034126121186610000008408024222034394799_" gradientUnits="userSpaceOnUse" x1="1895.7324" y1="1927.2029" x2="1853.4906" y2="2476.3486">
						<stop  offset="0" style="stop-color:#CB236D"/>
						<stop  offset="0.867" style="stop-color:#5D246D"/>
						<stop  offset="1" style="stop-color:#4C246D"/>
					</linearGradient>
					
						<circle style="fill:url(#SVGID_00000121995034126121186610000008408024222034394799_);" cx="1883.156" cy="2090.698" r="130.404"/>
					
						<linearGradient id="SVGID_00000010289969956809502340000002479764651333929657_" gradientUnits="userSpaceOnUse" x1="1895.5402" y1="1927.1881" x2="1853.2981" y2="2476.3357">
						<stop  offset="0" style="stop-color:#CB236D"/>
						<stop  offset="0.867" style="stop-color:#5D246D"/>
						<stop  offset="1" style="stop-color:#4C246D"/>
					</linearGradient>
					<path style="fill:url(#SVGID_00000010289969956809502340000002479764651333929657_);" d="M2013.322,2083.708h-130.166h-130.404
						c0,0-10.381,72.38,106.002,270.63c5.078,8.65,14.356,13.819,24.386,13.823c10.03,0.005,19.325-5.078,24.402-13.728
						C2023.914,2156.166,2013.322,2083.708,2013.322,2083.708z"/>
				</g>
				<g>
					<path style="opacity:0.8;fill:#FFFFFF;" d="M1883.098,2372.392v0.734h0.04c-11.351,0-21.945-6.245-27.649-15.96
						c-68.03-115.884-92.958-189.156-101.887-230.157c-2.546-9.432-4.009-18.678-4.471-28.157
						c-0.788-9.697-0.185-13.782-0.114-14.214l0.343-2.086c5.254-70.048,63.553-124.563,133.796-124.563
						c71.166,0,129.991,55.288,133.968,125.894c0.1,0.924,0.291,3.268,0.216,7.188l0.006,0.481c0,12.808-1.81,25.494-5.378,37.708
						c-9.237,40.965-34.318,113.514-101.189,227.444C1905.038,2366.481,1894.831,2372.392,1883.098,2372.392z M1756.311,2089.574
						c-0.031,1.956,0.028,4.748,0.371,8.952l0.008-0.014c0.433,8.98,1.821,17.627,4.244,26.578l0.045,0.15
						c8.796,40.444,33.465,112.8,101.039,227.906c4.35,7.41,12.416,12.007,21.094,12.011l-0.016,3.777v-3.786
						c7.822,0,16.765-4.642,21.151-12.115c66.442-113.199,91.247-185.14,100.344-225.557l0.068-0.234
						c3.388-11.557,4.352-23.566,4.352-35.694l-0.761-0.533v-0.043c0-3.775,0.639-5.816,0.578-6.352l0.361-0.219
						c-3.702-66.645-59.04-118.85-126.224-118.85c-67.055,0-122.482,52.941-126.305,120.171l-0.108,3.85H1756.311z"/>
				</g>
				
					<ellipse transform="matrix(0.7071 -0.7071 0.7071 0.7071 -926.3629 1944.1179)" style="fill:#FFFFFF;" cx="1883.577" cy="2090.278" rx="75.297" ry="75.297"/>
				<g>
					
						<linearGradient id="SVGID_00000090255770553182520870000010652973604962239120_" gradientUnits="userSpaceOnUse" x1="2136.5007" y1="1887.825" x2="1264.3358" y2="2585.9487">
						<stop  offset="0" style="stop-color:#FDF53F"/>
						<stop  offset="1" style="stop-color:#D93C65"/>
					</linearGradient>
					<path style="fill:url(#SVGID_00000090255770553182520870000010652973604962239120_);" d="M1883.577,2169.782
						c-43.839,0-79.504-35.665-79.504-79.504c0-43.839,35.666-79.504,79.504-79.504c43.839,0,79.504,35.666,79.504,79.504
						C1963.081,2134.117,1927.415,2169.782,1883.577,2169.782z M1883.577,2019.187c-39.2,0-71.091,31.891-71.091,71.091
						s31.891,71.091,71.091,71.091c39.2,0,71.091-31.891,71.091-71.091S1922.776,2019.187,1883.577,2019.187z"/>
				</g>
			</g>
			<g>
				<path style="fill:#FFFFFF;" d="M1812.149,2011.881c-0.355,0-0.708-0.149-0.958-0.44c-0.454-0.529-0.393-1.325,0.136-1.779
					c21.153-18.167,48.178-28.171,76.098-28.171c0.697,0,1.262,0.565,1.262,1.262s-0.565,1.262-1.262,1.262
					c-27.318,0-53.759,9.789-74.454,27.562C1812.733,2011.781,1812.44,2011.881,1812.149,2011.881z"/>
			</g>
			<g>
				<path style="fill:#FFFFFF;" d="M1771.828,2099.611c-0.697,0-1.262-0.565-1.262-1.262c0-21.805,6.045-43.076,17.481-61.513
					c0.368-0.593,1.146-0.775,1.738-0.407c0.592,0.368,0.775,1.146,0.408,1.738c-11.189,18.038-17.103,38.849-17.103,60.183
					C1773.09,2099.046,1772.526,2099.611,1771.828,2099.611z"/>
			</g>
		</g>
		<g>
			<g>
				
					<linearGradient id="SVGID_00000121979816290419110530000009575804333996731797_" gradientUnits="userSpaceOnUse" x1="3065.1064" y1="542.2758" x2="3732.0852" y2="-311.4583">
					<stop  offset="0" style="stop-color:#2B3582"/>
					<stop  offset="1" style="stop-color:#150E42"/>
				</linearGradient>
				<path style="fill:url(#SVGID_00000121979816290419110530000009575804333996731797_);" d="M2278.334,1083.253
					c0,193.159,162.508,349.746,362.972,349.746c200.464,0,371.95-163.429,371.95-356.588c0-193.159-171.486-342.903-371.95-342.903
					C2440.843,733.508,2278.334,890.095,2278.334,1083.253z"/>
				<g>
					<path style="fill:#FFFFFF;" d="M2984.757,998.213c0.216,0,0.431-0.024,0.646-0.08c1.339-0.344,2.135-1.665,1.78-2.958
						c-3.906-14.132-8.895-28.151-14.83-41.665c-0.542-1.226-2.02-1.788-3.285-1.283c-1.275,0.523-1.87,1.938-1.331,3.17
						c5.845,13.302,10.758,27.104,14.601,41.024C2982.635,997.501,2983.651,998.213,2984.757,998.213z"/>
					<path style="fill:#FFFFFF;" d="M2929.291,888.916c0.523,0,1.054-0.161,1.507-0.486c1.104-0.802,1.324-2.32,0.492-3.382
						c-67.25-85.93-175.574-137.227-289.769-137.227c-48.77,0-95.941,9.529-140.2,28.311c-1.265,0.538-1.84,1.967-1.282,3.184
						c0.555,1.221,2.037,1.773,3.305,1.241c43.617-18.519,90.109-27.906,138.178-27.906c112.631,0,219.457,50.58,285.765,135.302
						C2927.781,888.586,2928.529,888.916,2929.291,888.916z"/>
				</g>
				
					<linearGradient id="SVGID_00000133502846668557057270000000429994600672054175_" gradientUnits="userSpaceOnUse" x1="2769.6313" y1="634.1653" x2="2642.9053" y2="1089.9348">
					<stop  offset="0" style="stop-color:#A737D5"/>
					<stop  offset="1" style="stop-color:#EF497A"/>
				</linearGradient>
				<path style="fill:url(#SVGID_00000133502846668557057270000000429994600672054175_);" d="M2327.718,1083.253
					c0,167.201,140.669,302.743,314.192,302.743c173.523,0,321.963-141.465,321.963-308.665c0-167.2-148.44-296.821-321.963-296.821
					C2468.387,780.51,2327.718,916.053,2327.718,1083.253z"/>
				
					<linearGradient id="SVGID_00000179633664015211716510000001997778781281541281_" gradientUnits="userSpaceOnUse" x1="-387.135" y1="885.0432" x2="-1020.1401" y2="1526.6017" gradientTransform="matrix(-1 0 0 1 2062.8765 0)">
					<stop  offset="0" style="stop-color:#A737D5"/>
					<stop  offset="1" style="stop-color:#EF497A"/>
				</linearGradient>
				<path style="fill:url(#SVGID_00000179633664015211716510000001997778781281541281_);" d="M2327.719,1083.253
					c0-167.2,140.668-302.743,314.191-302.743c93.962,0,180.556,38.022,240.223,99.423l-242.031,194.045l-49.756,307.937
					C2441.358,1358.209,2327.719,1233.53,2327.719,1083.253z"/>
				
					<linearGradient id="SVGID_00000150093410348497635220000017293016367889965217_" gradientUnits="userSpaceOnUse" x1="-893.6515" y1="1062.2069" x2="-307.6066" y2="1062.2069" gradientTransform="matrix(-1 0 0 1 2062.8765 0)">
					<stop  offset="0" style="stop-color:#B37CFF"/>
					<stop  offset="1" style="stop-color:#F895E7"/>
				</linearGradient>
				<path style="opacity:0.3;fill:url(#SVGID_00000150093410348497635220000017293016367889965217_);" d="M2370.483,1062.207
					c0,150.895,129.588,273.22,289.443,273.22c159.855,0,296.602-127.669,296.602-278.565
					c0-150.896-136.747-267.875-296.602-267.875C2500.072,788.987,2370.483,911.312,2370.483,1062.207z"/>
				<path style="opacity:0.78;fill:#FFFFFF;" d="M2883.579,1067.552c0.777,12.851,12.217,22.663,25.555,21.914
					c13.336-0.748,23.519-11.772,22.742-24.623c-0.776-12.851-12.218-22.663-25.555-21.914
					C2892.986,1043.676,2882.803,1054.7,2883.579,1067.552z"/>
				<path style="opacity:0.78;fill:#FFFFFF;" d="M2360.982,1096.86c0.775,12.851,12.217,22.662,25.553,21.914
					c13.337-0.748,23.52-11.772,22.743-24.623c-0.776-12.851-12.217-22.662-25.554-21.914
					C2370.388,1072.985,2360.206,1084.009,2360.982,1096.86z"/>
				<path style="opacity:0.78;fill:#FFFFFF;" d="M2689.112,1306.022c-13.142,2.313-21.85,14.454-19.449,27.117
					c2.4,12.663,15,21.054,28.142,18.741c13.142-2.313,21.85-14.454,19.449-27.117
					C2714.854,1312.099,2702.254,1303.709,2689.112,1306.022z"/>
				<path style="opacity:0.78;fill:#FFFFFF;" d="M2595.054,809.824c-13.143,2.313-21.851,14.453-19.45,27.117
					c2.4,12.664,15,21.054,28.142,18.74c13.142-2.313,21.85-14.453,19.45-27.116
					C2620.796,815.901,2608.196,807.511,2595.054,809.824z"/>
				<path style="opacity:0.78;fill:#FFFFFF;" d="M2517.14,1319.344c-2.459,5.976-1.845,11.571,1.371,12.498
					c3.216,0.926,7.816-3.167,10.274-9.142c2.458-5.976,1.844-11.573-1.372-12.499
					C2524.198,1309.275,2519.597,1313.368,2517.14,1319.344z"/>
				<path style="opacity:0.78;fill:#FFFFFF;" d="M2727.381,848.7c-2.458,5.976-1.844,11.571,1.372,12.498
					c3.217,0.927,7.816-3.167,10.275-9.142c2.458-5.976,1.844-11.572-1.372-12.499
					C2734.439,838.631,2729.839,842.725,2727.381,848.7z"/>
				<path style="opacity:0.78;fill:#FFFFFF;" d="M2407.366,1229.875c-5.321,3.878-7.812,8.968-5.562,11.368
					c2.249,2.401,8.386,1.204,13.708-2.673c5.321-3.878,7.811-8.968,5.562-11.368
					C2418.824,1224.802,2412.687,1225.998,2407.366,1229.875z"/>
				<path style="opacity:0.78;fill:#FFFFFF;" d="M2840.656,932.829c-5.321,3.878-7.811,8.967-5.562,11.368
					c2.248,2.402,8.386,1.204,13.707-2.673c5.322-3.877,7.812-8.967,5.562-11.368
					C2852.114,927.755,2845.977,928.952,2840.656,932.829z"/>
				<path style="opacity:0.78;fill:#FFFFFF;" d="M2393.578,963.391c-6.023-2.763-11.859-2.548-13.033,0.483
					c-1.176,3.03,2.755,7.726,8.778,10.489c6.023,2.763,11.859,2.548,13.034-0.482
					C2403.532,970.851,2399.602,966.154,2393.578,963.391z"/>
				<path style="opacity:0.78;fill:#FFFFFF;" d="M2866.843,1197.037c-6.024-2.764-11.859-2.548-13.034,0.482
					c-1.176,3.03,2.755,7.727,8.779,10.49c6.023,2.764,11.859,2.547,13.033-0.482
					C2876.797,1204.498,2872.866,1199.801,2866.843,1197.037z"/>
				<path style="opacity:0.78;fill:#FFFFFF;" d="M2493.573,863.846c-3.658-5.376-8.762-8.111-11.399-6.109
					c-2.637,2.002-1.808,7.982,1.85,13.358c3.659,5.375,8.763,8.11,11.398,6.109
					C2498.061,875.202,2497.232,869.221,2493.573,863.846z"/>
				<path style="opacity:0.78;fill:#FFFFFF;" d="M2772.142,1300.305c-3.658-5.375-8.763-8.11-11.399-6.108
					c-2.636,2.001-1.808,7.981,1.85,13.356c3.658,5.376,8.762,8.111,11.399,6.109
					C2776.629,1311.661,2775.8,1305.681,2772.142,1300.305z"/>
				
					<linearGradient id="SVGID_00000124880124552883267170000000508607813531495320_" gradientUnits="userSpaceOnUse" x1="2902.8345" y1="1210.5842" x2="2500.4248" y2="1012.7145">
					<stop  offset="0" style="stop-color:#FDF53F"/>
					<stop  offset="1" style="stop-color:#D93C65"/>
				</linearGradient>
				<path style="fill:url(#SVGID_00000124880124552883267170000000508607813531495320_);" d="M2651.694,1073.871l194.319,93.383
					c3.765,1.809,8.171-0.908,8.043-4.96l-0.763-24.103c-0.148-4.688,5.583-7.286,9.237-4.185l140.5,119.197
					c4.298,3.647,0.763,10.418-4.837,9.265l-180.957-37.231c-4.33-0.891-5.897-6.063-2.744-9.058l21.185-20.129
					c2.618-2.488,2.055-6.696-1.131-8.463l-188.108-104.272c-2.62-1.452-3.557-4.654-2.11-7.212l0,0
					C2645.76,1073.571,2649.015,1072.585,2651.694,1073.871z"/>
				<path style="fill:#FFFFFF;" d="M2981.181,1252.647c1.806,0,3.442-0.971,4.267-2.608c0.986-1.958,0.479-4.198-1.261-5.585
					l-30.745-24.491c-1.065-0.849-2.649-0.703-3.528,0.325c-0.883,1.028-0.732,2.547,0.336,3.401l30.745,24.491
					c-40.966-9.015-136.913-29.161-138.903-29.354c-1.344-0.15-2.607,0.826-2.749,2.156c-0.136,1.311,0.837,2.482,2.184,2.642
					c2.876,0.443,76.404,15.84,138.592,28.91C2980.476,1252.609,2980.831,1252.647,2981.181,1252.647z"/>
				
					<linearGradient id="SVGID_00000168095553162026149840000003817886806614371498_" gradientUnits="userSpaceOnUse" x1="2629.5686" y1="770.0945" x2="2660.6943" y2="1179.1759">
					<stop  offset="0" style="stop-color:#FDF53F"/>
					<stop  offset="1" style="stop-color:#D93C65"/>
				</linearGradient>
				<path style="fill:url(#SVGID_00000168095553162026149840000003817886806614371498_);" d="M2626.924,1065.3l0.34-161.405
					c-0.056-3.574-4.051-5.795-7.29-4.055l-19.272,10.35c-3.749,2.013-8.184-1.256-7.147-5.27l39.859-154.321
					c1.219-4.721,8.154-4.801,9.489-0.108l43.142,151.595c1.032,3.627-2.534,6.907-6.247,5.743l-24.946-7.816
					c-3.083-0.967-6.273,1.165-6.416,4.286l-11.708,161.136c-0.117,2.565-2.338,4.571-5.003,4.517l0,0
					C2629.086,1069.899,2626.965,1067.843,2626.924,1065.3z"/>
				<path style="fill:#FFFFFF;" d="M2672.805,887.287c0.27,0,0.542-0.046,0.807-0.146c1.123-0.424,1.681-1.635,1.267-2.72
					c-0.803-2.337-18.115-64.048-32.719-116.264c-0.518-1.846-2.147-3.061-4.186-3.015c-1.99,0.049-3.608,1.343-4.03,3.218
					l-7.428,33.124c-0.257,1.148,0.501,2.284,1.694,2.529c1.18,0.254,2.365-0.478,2.626-1.63l7.428-33.124
					c9.292,34.559,31.839,115.092,32.484,116.676C2671.09,886.776,2671.923,887.287,2672.805,887.287z"/>
				
					<linearGradient id="SVGID_00000129175871024705641520000007932742873973626038_" gradientUnits="userSpaceOnUse" x1="2673.186" y1="977.6635" x2="2564.2461" y2="1333.3857">
					<stop  offset="0" style="stop-color:#FDF53F"/>
					<stop  offset="1" style="stop-color:#D93C65"/>
				</linearGradient>
				
					<ellipse style="fill:url(#SVGID_00000129175871024705641520000007932742873973626038_);" cx="2643.533" cy="1074.49" rx="25.834" ry="24.894"/>
			</g>
		</g>
		<g>
			<g>
				
					<linearGradient id="SVGID_00000065757401412080059380000017604755453192537532_" gradientUnits="userSpaceOnUse" x1="2303.1995" y1="782.3627" x2="3284.0513" y2="-265.2156">
					<stop  offset="0" style="stop-color:#2B3582"/>
					<stop  offset="1" style="stop-color:#150E42"/>
				</linearGradient>
				<path style="fill:url(#SVGID_00000065757401412080059380000017604755453192537532_);" d="M1484.8,1268.014
					c0,193.159,162.508,349.746,362.972,349.746s371.95-163.429,371.95-356.588c0-193.159-171.486-342.903-371.95-342.903
					S1484.8,1074.855,1484.8,1268.014z"/>
				<g>
					<path style="fill:#FFFFFF;" d="M2191.222,1182.973c0.216,0,0.431-0.024,0.646-0.08c1.339-0.344,2.134-1.665,1.78-2.958
						c-3.907-14.132-8.895-28.151-14.831-41.665c-0.541-1.226-2.019-1.788-3.285-1.283c-1.275,0.523-1.87,1.938-1.331,3.17
						c5.845,13.302,10.757,27.104,14.601,41.024C2189.101,1182.261,2190.116,1182.973,2191.222,1182.973z"/>
					<path style="fill:#FFFFFF;" d="M2135.756,1073.676c0.524,0,1.054-0.16,1.507-0.486c1.104-0.802,1.324-2.321,0.492-3.382
						c-67.25-85.93-175.574-137.227-289.769-137.227c-48.769,0-95.941,9.529-140.2,28.311c-1.266,0.538-1.84,1.967-1.282,3.184
						c0.555,1.221,2.037,1.773,3.305,1.241c43.617-18.519,90.109-27.906,138.178-27.906c112.631,0,219.457,50.58,285.765,135.302
						C2134.246,1073.346,2134.995,1073.676,2135.756,1073.676z"/>
				</g>
				
					<linearGradient id="SVGID_00000093857541912657814750000017592770438044293264_" gradientUnits="userSpaceOnUse" x1="226.1729" y1="1249.1493" x2="-164.9334" y2="1721.4287" gradientTransform="matrix(-1 0 0 1 2062.8765 0)">
					<stop  offset="0" style="stop-color:#FDF53F"/>
					<stop  offset="1" style="stop-color:#D93C65"/>
				</linearGradient>
				<path style="fill:url(#SVGID_00000093857541912657814750000017592770438044293264_);" d="M1534.183,1268.014
					c0,167.201,140.669,302.743,314.192,302.743s321.963-141.465,321.963-308.665c0-167.2-148.44-296.821-321.963-296.821
					S1534.183,1100.813,1534.183,1268.014z"/>
				
					<linearGradient id="SVGID_00000127005453043254681080000003364565570196212885_" gradientUnits="userSpaceOnUse" x1="406.3997" y1="1069.8033" x2="-226.6053" y2="1711.3618" gradientTransform="matrix(-1 0 0 1 2062.8765 0)">
					<stop  offset="0" style="stop-color:#FDF53F"/>
					<stop  offset="1" style="stop-color:#D93C65"/>
				</linearGradient>
				<path style="fill:url(#SVGID_00000127005453043254681080000003364565570196212885_);" d="M1534.184,1268.014
					c0-167.2,140.668-302.743,314.191-302.743c93.962,0,180.556,38.022,240.223,99.423l-242.031,194.045l-49.756,307.937
					C1647.823,1542.97,1534.184,1418.29,1534.184,1268.014z"/>
				<path style="opacity:0.25;fill:#FFFFFF;" d="M1576.948,1246.967c0,150.895,129.589,273.22,289.443,273.22
					c159.855,0,296.602-127.67,296.602-278.565c0-150.896-136.747-267.875-296.602-267.875
					C1706.537,973.747,1576.948,1096.072,1576.948,1246.967z"/>
				<path style="opacity:0.78;fill:#FFFFFF;" d="M2090.044,1252.312c0.777,12.851,12.217,22.663,25.555,21.914
					c13.336-0.748,23.519-11.772,22.742-24.623c-0.776-12.851-12.218-22.663-25.554-21.914
					C2099.451,1228.436,2089.268,1239.46,2090.044,1252.312z"/>
				<path style="opacity:0.78;fill:#FFFFFF;" d="M1567.447,1281.621c0.776,12.851,12.218,22.662,25.554,21.914
					c13.337-0.748,23.52-11.772,22.743-24.623c-0.776-12.851-12.217-22.662-25.554-21.914
					C1576.853,1257.746,1566.671,1268.769,1567.447,1281.621z"/>
				<path style="opacity:0.78;fill:#FFFFFF;" d="M1895.577,1490.782c-13.142,2.313-21.85,14.454-19.449,27.117
					c2.4,12.663,15,21.054,28.142,18.741c13.142-2.313,21.85-14.454,19.449-27.117
					C1921.319,1496.859,1908.719,1488.469,1895.577,1490.782z"/>
				<path style="opacity:0.78;fill:#FFFFFF;" d="M1801.519,994.584c-13.143,2.313-21.851,14.453-19.45,27.117
					c2.4,12.664,14.999,21.054,28.142,18.74c13.142-2.313,21.85-14.453,19.45-27.116
					C1827.261,1000.661,1814.661,992.271,1801.519,994.584z"/>
				<path style="opacity:0.78;fill:#FFFFFF;" d="M1723.606,1504.104c-2.459,5.976-1.845,11.571,1.371,12.498
					c3.216,0.926,7.816-3.167,10.274-9.142c2.458-5.976,1.844-11.573-1.372-12.499
					C1730.663,1494.035,1726.063,1498.129,1723.606,1504.104z"/>
				<path style="opacity:0.78;fill:#FFFFFF;" d="M1933.846,1033.46c-2.458,5.976-1.844,11.571,1.372,12.498
					c3.217,0.927,7.816-3.167,10.275-9.142c2.458-5.976,1.844-11.572-1.372-12.499
					C1940.904,1023.391,1936.304,1027.485,1933.846,1033.46z"/>
				<path style="opacity:0.78;fill:#FFFFFF;" d="M1613.831,1414.636c-5.321,3.878-7.812,8.967-5.562,11.368
					c2.249,2.401,8.386,1.204,13.708-2.673c5.321-3.878,7.811-8.968,5.562-11.368
					C1625.289,1409.562,1619.152,1410.759,1613.831,1414.636z"/>
				<path style="opacity:0.78;fill:#FFFFFF;" d="M2047.121,1117.589c-5.321,3.878-7.811,8.967-5.562,11.368
					c2.248,2.402,8.386,1.204,13.707-2.673c5.321-3.877,7.812-8.967,5.562-11.368
					C2058.579,1112.515,2052.442,1113.712,2047.121,1117.589z"/>
				<path style="opacity:0.78;fill:#FFFFFF;" d="M1600.043,1148.151c-6.023-2.763-11.859-2.547-13.033,0.483
					c-1.176,3.03,2.755,7.726,8.778,10.489c6.024,2.764,11.859,2.548,13.034-0.482
					C1609.997,1155.611,1606.067,1150.915,1600.043,1148.151z"/>
				<path style="opacity:0.78;fill:#FFFFFF;" d="M2073.309,1381.797c-6.024-2.763-11.859-2.548-13.034,0.482
					c-1.176,3.03,2.755,7.727,8.779,10.49c6.023,2.764,11.859,2.547,13.033-0.482
					C2083.262,1389.258,2079.331,1384.561,2073.309,1381.797z"/>
				<path style="opacity:0.78;fill:#FFFFFF;" d="M1700.039,1048.606c-3.658-5.376-8.762-8.111-11.399-6.109
					c-2.637,2.002-1.808,7.982,1.85,13.358c3.658,5.375,8.763,8.11,11.398,6.109
					C1704.526,1059.962,1703.697,1053.981,1700.039,1048.606z"/>
				<path style="opacity:0.78;fill:#FFFFFF;" d="M1978.607,1485.065c-3.658-5.375-8.763-8.109-11.399-6.108
					c-2.636,2.001-1.808,7.981,1.851,13.356c3.658,5.376,8.762,8.111,11.399,6.109
					C1983.095,1496.421,1982.266,1490.441,1978.607,1485.065z"/>
				<g>
					
						<linearGradient id="SVGID_00000094617982687406531760000016007160144343892371_" gradientUnits="userSpaceOnUse" x1="2000.928" y1="869.1795" x2="1851.9694" y2="1218.2324">
						<stop  offset="0" style="stop-color:#CB236D"/>
						<stop  offset="0.867" style="stop-color:#5D246D"/>
						<stop  offset="1" style="stop-color:#4C246D"/>
					</linearGradient>
					<path style="fill:url(#SVGID_00000094617982687406531760000016007160144343892371_);" d="M1838.471,1267.09l65.242-205.485
						c1.264-3.981-2.044-7.963-6.037-7.269l-23.758,4.132c-4.621,0.803-7.996-4.507-5.438-8.559l98.34-155.812
						c3.009-4.766,10.208-2.215,9.851,3.492l-11.515,184.388c-0.276,4.412-5.177,6.688-8.584,3.986l-22.899-18.157
						c-2.83-2.244-6.918-1.097-8.221,2.306l-76.894,200.86c-1.071,2.797-4.11,4.174-6.845,3.1l0,0
						C1839.004,1273.007,1837.572,1269.922,1838.471,1267.09z"/>
					<path style="fill:#FFFFFF;" d="M1969.327,915.807c-0.253-1.789-1.444-3.272-3.18-3.859c-2.077-0.702-4.224,0.113-5.353,2.031
						l-19.942,33.873c-0.691,1.174-0.325,2.721,0.816,3.447c1.142,0.731,2.625,0.368,3.32-0.809l19.943-33.873
						c-3.187,41.825-9.694,139.648-9.607,141.646c0.039,1.352,1.183,2.466,2.52,2.42c1.318-0.048,2.34-1.177,2.31-2.532
						c0.036-2.909,4.981-77.87,9.21-141.275C1969.388,916.511,1969.376,916.154,1969.327,915.807z"/>
				</g>
				<g>
					
						<linearGradient id="SVGID_00000019647057993881402710000004078235826512757665_" gradientUnits="userSpaceOnUse" x1="2087.9412" y1="1559.9404" x2="1845.6049" y2="1242.0129">
						<stop  offset="0" style="stop-color:#CB236D"/>
						<stop  offset="0.867" style="stop-color:#5D246D"/>
						<stop  offset="1" style="stop-color:#4C246D"/>
					</linearGradient>
					<path style="fill:url(#SVGID_00000019647057993881402710000004078235826512757665_);" d="M1846.398,1258.371l114.308,113.953
						c2.576,2.478,6.966,1.208,8.014-2.317l6.232-20.969c1.212-4.079,6.657-4.923,8.775-1.36l81.439,137.008
						c2.491,4.191-2.338,9.169-6.608,6.811l-137.979-76.184c-3.301-1.823-3.116-6.665,0.325-8.479l23.121-12.197
						c2.859-1.507,3.593-5.272,1.478-7.573l-106.108-121.832c-1.738-1.89-1.597-4.879,0.319-6.733l0,0
						C1841.611,1256.666,1844.565,1256.609,1846.398,1258.371z"/>
					<path style="fill:#FFFFFF;" d="M1940.408,1416.346c-0.19,0.191-0.349,0.417-0.465,0.675c-0.49,1.096-0.025,2.345,1.038,2.816
						c2.224,1.076,58.216,32.267,105.563,58.689c1.676,0.933,3.685,0.633,5.089-0.847c1.367-1.447,1.589-3.507,0.555-5.127
						l-18.275-28.608c-0.634-0.991-1.973-1.253-2.988-0.579c-1.012,0.659-1.327,2.015-0.693,3.012l18.275,28.608
						c-31.072-17.753-104.11-58.488-105.689-59.146C1941.98,1415.489,1941.03,1415.719,1940.408,1416.346z"/>
				</g>
				
					<linearGradient id="SVGID_00000121972960145254035690000014412504138583908266_" gradientUnits="userSpaceOnUse" x1="1868.5044" y1="1225.708" x2="1797.3597" y2="1354.6575">
					<stop  offset="0" style="stop-color:#CB236D"/>
					<stop  offset="0.867" style="stop-color:#5D246D"/>
					<stop  offset="1" style="stop-color:#4C246D"/>
				</linearGradient>
				
					<ellipse style="fill:url(#SVGID_00000121972960145254035690000014412504138583908266_);" cx="1849.998" cy="1259.25" rx="25.834" ry="24.894"/>
			</g>
		</g>
		<g>
			<g>
				
					<linearGradient id="SVGID_00000054265847941578484420000011931284044930735766_" gradientUnits="userSpaceOnUse" x1="1590.2559" y1="350.1923" x2="2530.6953" y2="-910.3972">
					<stop  offset="0" style="stop-color:#2B3582"/>
					<stop  offset="1" style="stop-color:#150E42"/>
				</linearGradient>
				<path style="fill:url(#SVGID_00000054265847941578484420000011931284044930735766_);" d="M722.646,1024.907
					c0,193.159,162.508,349.746,362.972,349.746s371.95-163.429,371.95-356.588c0-193.159-171.486-342.903-371.95-342.903
					S722.646,831.749,722.646,1024.907z"/>
				<g>
					<path style="fill:#FFFFFF;" d="M1429.069,939.867c0.216,0,0.431-0.024,0.646-0.08c1.339-0.345,2.134-1.666,1.78-2.958
						c-3.906-14.132-8.895-28.151-14.831-41.665c-0.541-1.227-2.019-1.788-3.285-1.283c-1.275,0.523-1.87,1.938-1.331,3.169
						c5.845,13.302,10.757,27.104,14.6,41.024C1426.947,939.155,1427.963,939.867,1429.069,939.867z"/>
					<path style="fill:#FFFFFF;" d="M1373.602,830.57c0.524,0,1.054-0.16,1.507-0.486c1.104-0.802,1.324-2.321,0.492-3.382
						c-67.25-85.93-175.574-137.227-289.769-137.227c-48.769,0-95.941,9.529-140.2,28.311c-1.266,0.538-1.841,1.967-1.283,3.184
						c0.555,1.221,2.037,1.773,3.305,1.241c43.617-18.519,90.109-27.906,138.178-27.906c112.631,0,219.457,50.58,285.765,135.302
						C1372.092,830.24,1372.841,830.57,1373.602,830.57z"/>
				</g>
				
					<linearGradient id="SVGID_00000174595964793361802570000011211791376936296842_" gradientUnits="userSpaceOnUse" x1="1074.7408" y1="427.1521" x2="1090.3033" y2="1029.6569">
					<stop  offset="0" style="stop-color:#A737D5"/>
					<stop  offset="1" style="stop-color:#EF497A"/>
				</linearGradient>
				<path style="fill:url(#SVGID_00000174595964793361802570000011211791376936296842_);" d="M772.029,1024.907
					c0,167.201,140.669,302.743,314.192,302.743s321.963-141.465,321.963-308.665c0-167.2-148.44-296.821-321.963-296.821
					S772.029,857.707,772.029,1024.907z"/>
				
					<linearGradient id="SVGID_00000109023865874121610900000007143263421489948047_" gradientUnits="userSpaceOnUse" x1="1168.5533" y1="826.6973" x2="535.5483" y2="1468.2557" gradientTransform="matrix(-1 0 0 1 2062.8765 0)">
					<stop  offset="0" style="stop-color:#A737D5"/>
					<stop  offset="1" style="stop-color:#EF497A"/>
				</linearGradient>
				<path style="fill:url(#SVGID_00000109023865874121610900000007143263421489948047_);" d="M772.03,1024.907
					c0-167.2,140.668-302.743,314.191-302.743c93.962,0,180.556,38.022,240.223,99.423l-242.031,194.045l-49.755,307.937
					C885.67,1299.864,772.03,1175.184,772.03,1024.907z"/>
				
					<linearGradient id="SVGID_00000129168673134048763580000003576713568221077130_" gradientUnits="userSpaceOnUse" x1="662.037" y1="1003.861" x2="1248.0819" y2="1003.861" gradientTransform="matrix(-1 0 0 1 2062.8765 0)">
					<stop  offset="0" style="stop-color:#B37CFF"/>
					<stop  offset="1" style="stop-color:#F895E7"/>
				</linearGradient>
				<path style="opacity:0.3;fill:url(#SVGID_00000129168673134048763580000003576713568221077130_);" d="M814.795,1003.861
					c0,150.895,129.589,273.22,289.443,273.22c159.855,0,296.602-127.67,296.602-278.565c0-150.896-136.747-267.875-296.602-267.875
					C944.383,730.641,814.795,852.966,814.795,1003.861z"/>
				<path style="opacity:0.78;fill:#FFFFFF;" d="M1327.891,1009.206c0.777,12.851,12.217,22.663,25.555,21.914
					c13.336-0.748,23.519-11.772,22.743-24.623c-0.776-12.851-12.218-22.663-25.555-21.914
					C1337.297,985.33,1327.115,996.354,1327.891,1009.206z"/>
				<path style="opacity:0.78;fill:#FFFFFF;" d="M805.294,1038.515c0.775,12.851,12.217,22.662,25.554,21.914
					c13.337-0.748,23.52-11.772,22.743-24.623c-0.776-12.851-12.217-22.662-25.554-21.914
					C814.7,1014.64,804.517,1025.663,805.294,1038.515z"/>
				<path style="opacity:0.78;fill:#FFFFFF;" d="M1133.424,1247.676c-13.142,2.313-21.85,14.454-19.449,27.117
					s15.001,21.054,28.142,18.741c13.142-2.313,21.849-14.454,19.449-27.117C1159.165,1253.753,1146.566,1245.363,1133.424,1247.676
					z"/>
				<path style="opacity:0.78;fill:#FFFFFF;" d="M1039.366,751.478c-13.143,2.313-21.851,14.453-19.45,27.117
					c2.4,12.664,14.999,21.054,28.142,18.74c13.142-2.313,21.85-14.453,19.45-27.116
					C1065.108,757.555,1052.507,749.165,1039.366,751.478z"/>
				<path style="opacity:0.78;fill:#FFFFFF;" d="M961.452,1260.998c-2.459,5.976-1.845,11.571,1.371,12.498
					c3.216,0.926,7.816-3.167,10.274-9.142c2.458-5.976,1.844-11.573-1.372-12.499
					C968.509,1250.929,963.909,1255.022,961.452,1260.998z"/>
				<path style="opacity:0.78;fill:#FFFFFF;" d="M1171.692,790.354c-2.458,5.976-1.844,11.571,1.372,12.498
					c3.217,0.927,7.816-3.167,10.275-9.142c2.458-5.976,1.844-11.572-1.372-12.499
					C1178.75,780.285,1174.15,784.379,1171.692,790.354z"/>
				<path style="opacity:0.78;fill:#FFFFFF;" d="M851.677,1171.53c-5.321,3.878-7.812,8.968-5.562,11.368
					c2.249,2.401,8.386,1.204,13.708-2.673c5.321-3.878,7.811-8.968,5.561-11.368
					C863.135,1166.455,856.998,1167.652,851.677,1171.53z"/>
				<path style="opacity:0.78;fill:#FFFFFF;" d="M1284.968,874.483c-5.321,3.878-7.811,8.967-5.562,11.368
					c2.248,2.402,8.386,1.204,13.707-2.673c5.321-3.877,7.812-8.967,5.562-11.368
					C1296.425,869.409,1290.289,870.606,1284.968,874.483z"/>
				<path style="opacity:0.78;fill:#FFFFFF;" d="M837.89,905.045c-6.023-2.763-11.859-2.547-13.033,0.483
					c-1.175,3.03,2.755,7.726,8.778,10.489c6.024,2.763,11.859,2.548,13.034-0.482C847.844,912.505,843.913,907.808,837.89,905.045z
					"/>
				<path style="opacity:0.78;fill:#FFFFFF;" d="M1311.155,1138.691c-6.024-2.763-11.859-2.548-13.034,0.482
					c-1.176,3.03,2.755,7.727,8.779,10.49c6.023,2.764,11.859,2.547,13.033-0.482
					C1321.109,1146.151,1317.177,1141.455,1311.155,1138.691z"/>
				<path style="opacity:0.78;fill:#FFFFFF;" d="M937.885,805.5c-3.658-5.376-8.762-8.111-11.399-6.109
					c-2.637,2.002-1.808,7.982,1.85,13.358c3.659,5.375,8.763,8.11,11.398,6.109C942.372,816.856,941.543,810.875,937.885,805.5z"/>
				<path style="opacity:0.78;fill:#FFFFFF;" d="M1216.454,1241.959c-3.659-5.375-8.763-8.11-11.399-6.108
					c-2.637,2.001-1.808,7.981,1.85,13.356c3.658,5.376,8.762,8.111,11.399,6.109
					C1220.941,1253.315,1220.112,1247.335,1216.454,1241.959z"/>
				<g>
					
						<linearGradient id="SVGID_00000122682711024671122270000005066744652041102770_" gradientUnits="userSpaceOnUse" x1="1320.1864" y1="1237.7566" x2="828.8453" y2="735.2986">
						<stop  offset="0" style="stop-color:#FDF53F"/>
						<stop  offset="1" style="stop-color:#D93C65"/>
					</linearGradient>
					<path style="fill:url(#SVGID_00000122682711024671122270000005066744652041102770_);" d="M1086.304,1005.423l163.513,140.514
						c3.168,2.722,8.128,1.238,9.053-2.708l5.504-23.478c1.071-4.566,7.279-5.592,10.005-1.651l104.844,151.511
						c3.207,4.636-1.961,10.26-7.072,7.696l-165.145-82.817c-3.952-1.982-4.126-7.383-0.305-9.46l25.675-13.957
						c3.173-1.725,3.719-5.935,1.099-8.468l-154.693-149.423c-2.154-2.081-2.231-5.417-0.171-7.513l0,0
						C1080.65,1003.596,1084.05,1003.487,1086.304,1005.423z"/>
					<path style="fill:#FFFFFF;" d="M1358.264,1263.416c1.745,0.468,3.576-0.047,4.796-1.415c1.46-1.636,1.55-3.931,0.228-5.721
						l-23.355-31.616c-0.809-1.096-2.376-1.365-3.492-0.599c-1.119,0.764-1.367,2.271-0.556,3.372l23.355,31.617
						c-37.235-19.315-124.693-63.618-126.565-64.319c-1.259-0.493-2.732,0.123-3.214,1.37c-0.471,1.231,0.166,2.614,1.425,3.117
						c2.663,1.173,69.697,35.083,126.38,63.81C1357.593,1263.197,1357.926,1263.326,1358.264,1263.416z"/>
				</g>
				<g>
					
						<linearGradient id="SVGID_00000008828535372379892490000016332189980186421653_" gradientUnits="userSpaceOnUse" x1="809.2632" y1="1174.2235" x2="1305.0514" y2="896.3152">
						<stop  offset="0" style="stop-color:#FDF53F"/>
						<stop  offset="1" style="stop-color:#D93C65"/>
					</linearGradient>
					<path style="fill:url(#SVGID_00000008828535372379892490000016332189980186421653_);" d="M1092.715,1031.008l-141.342,77.938
						c-3.099,1.781-3.105,6.352-0.013,8.342l18.395,11.84c3.578,2.303,2.868,7.767-1.145,8.806l-154.3,39.938
						c-4.72,1.221-8.151-4.805-4.694-8.247l111.685-111.215c2.672-2.661,7.27-1.131,8.051,2.68l5.255,25.608
						c0.649,3.166,4.059,4.922,6.859,3.534l146.616-67.864c2.3-1.141,5.131-0.17,6.376,2.187l0,0
						C1095.69,1026.888,1094.92,1029.74,1092.715,1031.008z"/>
					<path style="fill:#FFFFFF;" d="M914.773,1077.162c-0.131-0.236-0.303-0.452-0.518-0.635c-0.915-0.776-2.245-0.678-2.993,0.21
						c-1.655,1.835-47.241,46.889-85.833,84.974c-1.364,1.348-1.636,3.362-0.608,5.123c1.008,1.717,2.923,2.505,4.768,1.964
						l32.573-9.559c1.129-0.332,1.755-1.545,1.391-2.708c-0.35-1.156-1.565-1.837-2.699-1.507l-32.573,9.559
						c25.724-24.879,85.235-83.635,86.308-84.968C915.157,1078.91,915.201,1077.934,914.773,1077.162z"/>
				</g>
				
					<linearGradient id="SVGID_00000040567236317017768610000003850935811664060047_" gradientUnits="userSpaceOnUse" x1="1109.1434" y1="935.1147" x2="1006.8736" y2="1324.1862">
					<stop  offset="0" style="stop-color:#FDF53F"/>
					<stop  offset="1" style="stop-color:#D93C65"/>
				</linearGradient>
				
					<ellipse style="fill:url(#SVGID_00000040567236317017768610000003850935811664060047_);" cx="1087.844" cy="1016.144" rx="25.834" ry="24.894"/>
			</g>
		</g>
		<g>
			
				<linearGradient id="SVGID_00000029036036874840275640000017796736175667464068_" gradientUnits="userSpaceOnUse" x1="2841.011" y1="2443.3137" x2="2827.6711" y2="1814.1285">
				<stop  offset="0" style="stop-color:#2B3582"/>
				<stop  offset="1" style="stop-color:#150E42"/>
			</linearGradient>
			<polygon style="fill:url(#SVGID_00000029036036874840275640000017796736175667464068_);" points="2766.911,2011.922 
				2883.633,2299.784 2902.808,2294.454 2783.586,2006.591 			"/>
			
				<linearGradient id="SVGID_00000085932598225088833490000001348019811418009752_" gradientUnits="userSpaceOnUse" x1="2075.4167" y1="1492.9133" x2="2181.0605" y2="1757.9186" gradientTransform="matrix(1 0 0 1 579.8614 0)">
				<stop  offset="0" style="stop-color:#CB236D"/>
				<stop  offset="0.867" style="stop-color:#5D246D"/>
				<stop  offset="1" style="stop-color:#4C246D"/>
			</linearGradient>
			<path style="fill:url(#SVGID_00000085932598225088833490000001348019811418009752_);" d="M2717.919,1635.465
				c0,0,35.615,17.324,42.164,37.224c5.254,15.968,44.635,18.026,48.525,49.429c2.009,16.214,14.007,29.199,30.156,31.674
				c40.221,6.165,102.205,27.051,112.123,96.883c7.57,53.302-19.603,73.514-48.12,80.51c-20.945,5.138-34.864,25.511-30.627,46.656
				c4.063,20.282-1.996,43.729-37.134,62.27c-78.74,41.548-157.374-98.431-157.374-98.431l-16.115-244.414L2717.919,1635.465z"/>
			
				<linearGradient id="SVGID_00000071548720809612075150000006543622357394653613_" gradientUnits="userSpaceOnUse" x1="1649.9558" y1="2205.2813" x2="1845.1238" y2="2649.332" gradientTransform="matrix(0.9776 -0.2106 0.2106 0.9776 329.4415 -113.5247)">
				<stop  offset="0" style="stop-color:#F9B776"/>
				<stop  offset="1" style="stop-color:#F47960"/>
			</linearGradient>
			<path style="fill:url(#SVGID_00000071548720809612075150000006543622357394653613_);" d="M2289.471,1577.522
				c0,0,157.215,248.671,344.163,296.702c0,0-36.427,103.752-64.544,115.626c0,0-229.998-191.907-289.104-376.993L2289.471,1577.522
				z"/>
			
				<linearGradient id="SVGID_00000158020992994204700890000001832596857722247814_" gradientUnits="userSpaceOnUse" x1="2461.6052" y1="3189.5042" x2="2551.187" y2="3189.5042" gradientTransform="matrix(1 0 0 1 579.8614 0)">
				<stop  offset="0" style="stop-color:#2B3582"/>
				<stop  offset="1" style="stop-color:#150E42"/>
			</linearGradient>
			<path style="fill:url(#SVGID_00000158020992994204700890000001832596857722247814_);" d="M3041.573,3168.02l5.096,41.888
				c0.967,7.947,7.223,14.23,15.176,15.138c13.428,1.534,34.977,3.106,56.06,0.877c9.254-0.978,15.262-10.349,12.443-19.218
				c-5.139-16.17-14.542-40.444-28.099-54.729h-46.467C3047.192,3151.977,3040.536,3159.491,3041.573,3168.02z"/>
			
				<linearGradient id="SVGID_00000122693205947042769160000013455988513512585896_" gradientUnits="userSpaceOnUse" x1="2690.114" y1="3313.9209" x2="2726.9275" y2="2883.6633">
				<stop  offset="0" style="stop-color:#F9B776"/>
				<stop  offset="1" style="stop-color:#F47960"/>
			</linearGradient>
			<path style="fill:url(#SVGID_00000122693205947042769160000013455988513512585896_);" d="M2699.191,3067.201
				c0.635,10.459,1.156,20.112,1.532,28.711c0.733,16.684-3.582,33.172-12.34,47.39l-45.669,74.162l116.067-68.489l2.311-14.164
				l-19-26.124l2.944-35.269C2729.641,3071.879,2714.341,3069.795,2699.191,3067.201z"/>
			
				<linearGradient id="SVGID_00000091705607430495229100000016765168290041023382_" gradientUnits="userSpaceOnUse" x1="2045.4155" y1="3173.1487" x2="2190.366" y2="3173.1487" gradientTransform="matrix(1 0 0 1 579.8614 0)">
				<stop  offset="0" style="stop-color:#2B3582"/>
				<stop  offset="1" style="stop-color:#150E42"/>
			</linearGradient>
			<path style="fill:url(#SVGID_00000091705607430495229100000016765168290041023382_);" d="M2635.071,3228.209h37.039
				c6.933,0,13.471-3.183,17.699-8.677c11.547-15.004,35.47-44.276,46.91-45.04c15.399-1.029,13.429,53.717,13.429,53.717h8.632
				l10.934-68.028c2.751-17.116-5.761-34.073-21.131-42.092c0,0-3.52,26.033-22.608,37.548
				c-19.087,11.515-77.673,52.753-77.673,52.753s-7.176-1.023-15.054,0.401C2621.563,3210.903,2623.195,3228.209,2635.071,3228.209z
				"/>
			
				<linearGradient id="SVGID_00000006700646981306767060000017517836062180631680_" gradientUnits="userSpaceOnUse" x1="3040.5063" y1="3332.8137" x2="3086.6169" y2="2793.8958">
				<stop  offset="0" style="stop-color:#F9B776"/>
				<stop  offset="1" style="stop-color:#F47960"/>
			</linearGradient>
			<path style="fill:url(#SVGID_00000006700646981306767060000017517836062180631680_);" d="M3065.414,3072.264
				c-3.813-9.52-8.972-29.333-14.712-53.627c-15.465,4.506-30.794,9.324-45.941,14.611c4.384,9.883,7.854,18.198,10.164,24.495
				c24.46,66.638,33.027,122.227,33.355,127.491c0.513,8.225,10.744,16.116,38.944,16.116c14.554,0,21.683-5.834,25.173-11.481
				c2.978-4.819,3.131-10.847,0.622-15.924C3104.12,3155.933,3075.875,3098.371,3065.414,3072.264z"/>
			
				<linearGradient id="SVGID_00000098941679684640808190000009472577619115698309_" gradientUnits="userSpaceOnUse" x1="2068.938" y1="2057.6182" x2="2093.1543" y2="1880.4583" gradientTransform="matrix(1 0 0 1 579.8614 0)">
				<stop  offset="0" style="stop-color:#F9B776"/>
				<stop  offset="1" style="stop-color:#F47960"/>
			</linearGradient>
			<path style="fill:url(#SVGID_00000098941679684640808190000009472577619115698309_);" d="M2693.336,1757.959l32.269,144.944
				c3.09,12.767-8.549,10.677-21.457,8.244c-21.138-3.985-48.383-12.193-57.49-28.641c-0.927-1.674-1.39-3.567-1.651-5.462
				l-13.863-100.508c-1.1-7.974,3.211-15.713,10.569-18.976l26.752-11.862C2678.764,1741.13,2690.686,1747.007,2693.336,1757.959z"
				/>
			<g>
				
					<linearGradient id="SVGID_00000108268313872471954050000004253292207378055577_" gradientUnits="userSpaceOnUse" x1="1834.368" y1="2344.7085" x2="2045.6647" y2="1968.6715" gradientTransform="matrix(0.9809 -0.1943 0.1943 0.9809 350.7713 -99.2406)">
					<stop  offset="0" style="stop-color:#F9B776"/>
					<stop  offset="1" style="stop-color:#F47960"/>
				</linearGradient>
				<path style="fill:url(#SVGID_00000108268313872471954050000004253292207378055577_);" d="M2631.529,1625.827
					c0,0-34.354,23.254-49.115,82.475c-14.762,59.221,9.228,80.463,33.818,79.161c24.59-1.302,60.245-8.906,91.137-51.391
					C2738.26,1693.587,2676.546,1597.411,2631.529,1625.827z"/>
				
					<linearGradient id="SVGID_00000033335027453689717710000001775024915999562886_" gradientUnits="userSpaceOnUse" x1="1879.8092" y1="2017.24" x2="1985.4574" y2="2282.2561" gradientTransform="matrix(0.9809 -0.1943 0.1943 0.9809 350.7713 -99.2406)">
					<stop  offset="0" style="stop-color:#CB236D"/>
					<stop  offset="0.867" style="stop-color:#5D246D"/>
					<stop  offset="1" style="stop-color:#4C246D"/>
				</linearGradient>
				<path style="fill:url(#SVGID_00000033335027453689717710000001775024915999562886_);" d="M2676.216,1712.186
					c0,0,12.587-84.858-57.866-71.878l-14.246,14.832c0,0-34.485-38.836,3.678-68.193c38.163-29.357,91.12-21.839,120.419,31.606
					c29.299,53.445,39.933,91,15.375,124.21s-43.03,4.727-43.03,4.727s11.262-28.743,1.917-41.077
					c-9.345-12.334-21.402,7.173-21.402,7.173L2676.216,1712.186z"/>
				
					<linearGradient id="SVGID_00000140735991760985528600000007883315106816987829_" gradientUnits="userSpaceOnUse" x1="1872.3799" y1="2376.5371" x2="2083.6763" y2="2000.5007" gradientTransform="matrix(0.9809 -0.1943 0.1943 0.9809 350.7713 -99.2406)">
					<stop  offset="0" style="stop-color:#F9B776"/>
					<stop  offset="1" style="stop-color:#F47960"/>
				</linearGradient>
				<path style="fill:url(#SVGID_00000140735991760985528600000007883315106816987829_);" d="M2680.286,1727.235
					c0,0,6.215-43.659,28.512-31.178c22.297,12.481-8.036,40.783-20.198,50.413L2680.286,1727.235z"/>
			</g>
			<g>
				
					<linearGradient id="SVGID_00000078012436805915370410000016413460867726337213_" gradientUnits="userSpaceOnUse" x1="1611.3871" y1="2222.2332" x2="1806.5549" y2="2666.2842" gradientTransform="matrix(0.9776 -0.2106 0.2106 0.9776 329.4415 -113.5247)">
					<stop  offset="0" style="stop-color:#F9B776"/>
					<stop  offset="1" style="stop-color:#F47960"/>
				</linearGradient>
				<path style="fill:url(#SVGID_00000078012436805915370410000016413460867726337213_);" d="M2290.551,1628.715
					c-0.476,5.13,18.599,8.675,24.67-13.193c-1.669-9.494-4.633-51.07-11.912-57.528c-38.771-34.401-107.906-73.1-107.906-73.1
					c-7.732,11.805,2.408,19.58,2.408,19.58l34.511,23.29c-3.6,11.924-8.854,22.465-9.448,36.078
					c-0.45,10.309,3.358,20.402,10.201,28.221c6.868,7.848,16.114,17.98,24.449,25.673
					C2273.3,1632.296,2290.551,1628.715,2290.551,1628.715z"/>
				
					<linearGradient id="SVGID_00000146459971075231049360000003746890769078949037_" gradientUnits="userSpaceOnUse" x1="-2879.8384" y1="1576.2566" x2="-2827.2852" y2="1576.2566" gradientTransform="matrix(-1 0 0 1 -585.5718 0)">
					<stop  offset="0" style="stop-color:#F9B776"/>
					<stop  offset="1" style="stop-color:#F47960"/>
				</linearGradient>
				<path style="fill:url(#SVGID_00000146459971075231049360000003746890769078949037_);" d="M2271.805,1611.767l5.274-2.17
					c-0.701-1.707-17.262-41.951-25.272-50.322c-3.044-3.176-4.513-5.896-4.378-8.089c0.068-1.187,0.656-2.358,1.771-3.553
					l27.924,14.934l12.335,19.312l4.807-3.074l-13.133-20.57l-32.709-17.489l-1.477,1.202c-3.308,2.705-5.018,5.61-5.214,8.887
					c-0.241,3.903,1.703,7.953,5.945,12.387C2253.714,1569.526,2267.141,1600.4,2271.805,1611.767z"/>
			</g>
			
				<linearGradient id="SVGID_00000046305716735280140340000012420591736617809067_" gradientUnits="userSpaceOnUse" x1="2882.1284" y1="3245.9971" x2="2486.9629" y2="2060.4966">
				<stop  offset="0" style="stop-color:#CB236D"/>
				<stop  offset="0.867" style="stop-color:#5D246D"/>
				<stop  offset="1" style="stop-color:#4C246D"/>
			</linearGradient>
			<path style="fill:url(#SVGID_00000046305716735280140340000012420591736617809067_);" d="M2601.543,2234.439l-10.548,58.954
				c14.558,135.939,38.778,279.353,78.792,430.073c12.377,124,21.319,243.249,26.257,356.963
				c11.207,4.349,24.084,7.876,56.693,1.667c11.672-161.742,41.709-317.396-15.007-365.171l-13.34-298.473l-46.688-178.417
				L2601.543,2234.439z"/>
			
				<linearGradient id="SVGID_00000003093678377083428720000012473339847176759186_" gradientUnits="userSpaceOnUse" x1="3048.9023" y1="3190.405" x2="2653.7371" y2="2004.9054">
				<stop  offset="0" style="stop-color:#CB236D"/>
				<stop  offset="0.867" style="stop-color:#5D246D"/>
				<stop  offset="1" style="stop-color:#4C246D"/>
			</linearGradient>
			<path style="fill:url(#SVGID_00000003093678377083428720000012473339847176759186_);" d="M2676.035,2233.364l40.019,211.766
				c46.964,115.267,93.774,229.556,130.061,276.796c53.484,76.787,106.795,203.102,160.075,338.492
				c19.179,3.35,37.532-2.078,55.026-16.675c-19.921-158.014-58.776-290.753-150.071-353.499
				c-18.829-218.41-46.654-422.3-171.739-469.235L2676.035,2233.364z"/>
			
				<linearGradient id="SVGID_00000069377483423764886760000002449855449322023068_" gradientUnits="userSpaceOnUse" x1="2086.2603" y1="2023.3595" x2="2150.7205" y2="2621.4116" gradientTransform="matrix(1 0 0 1 579.8614 0)">
				<stop  offset="0" style="stop-color:#FDF53F"/>
				<stop  offset="1" style="stop-color:#D93C65"/>
			</linearGradient>
			<path style="fill:url(#SVGID_00000069377483423764886760000002449855449322023068_);" d="M2739.406,2221.01
				c-39.689-168.181,60.856-263.303,60.856-263.303c-63.442-60.898-179.034-88.609-179.034-88.609s-110.3,80.639-97.215,143.757
				c7.669,36.994,77.53,221.584,77.53,221.584S2666.143,2265.012,2739.406,2221.01z"/>
			
				<linearGradient id="SVGID_00000023252727920664833030000015600736094452163464_" gradientUnits="userSpaceOnUse" x1="2791.9917" y1="2091.4304" x2="2869.8057" y2="2625.0151">
				<stop  offset="0" style="stop-color:#2B3582"/>
				<stop  offset="1" style="stop-color:#150E42"/>
			</linearGradient>
			<path style="fill:url(#SVGID_00000023252727920664833030000015600736094452163464_);" d="M2743.894,2312.33l136.963-47.038
				c8.205-2.818,17.057,2.021,19.115,10.448l28.03,114.79c1.792,7.338-2.252,14.844-9.366,17.385l-135.613,48.433
				c-8.192,2.926-17.123-1.839-19.256-10.272l-29.38-116.185C2732.507,2322.456,2736.64,2314.821,2743.894,2312.33z"/>
			
				<linearGradient id="SVGID_00000156583595804059153220000005378110295529100928_" gradientUnits="userSpaceOnUse" x1="2823.7395" y1="2443.6799" x2="2810.3997" y2="1814.4961">
				<stop  offset="0" style="stop-color:#2B3582"/>
				<stop  offset="1" style="stop-color:#150E42"/>
			</linearGradient>
			<path style="fill:url(#SVGID_00000156583595804059153220000005378110295529100928_);" d="M2741.411,2357.664l104.704,19.101
				l62.098-67.273l-8.241-33.751c-2.058-8.428-10.91-13.266-19.115-10.449l-136.962,47.039c-7.254,2.49-11.387,10.125-9.506,17.56
				L2741.411,2357.664z"/>
			
				<linearGradient id="SVGID_00000114042427279805410740000002352136578258216635_" gradientUnits="userSpaceOnUse" x1="2755.0215" y1="2445.137" x2="2741.6814" y2="1815.9524">
				<stop  offset="0" style="stop-color:#2B3582"/>
				<stop  offset="1" style="stop-color:#150E42"/>
			</linearGradient>
			<path style="fill:url(#SVGID_00000114042427279805410740000002352136578258216635_);" d="M2749.403,2343.138
				c-22.706-178.553-58.958-379.681-1.667-424.921l25.845,14.868c-66.975,24.149-38.919,212.649-9.171,406.141L2749.403,2343.138z"
				/>
			
				<linearGradient id="SVGID_00000166665662547497231630000015720889119191319209_" gradientUnits="userSpaceOnUse" x1="2168.7449" y1="2143.9495" x2="2329.6111" y2="2143.9495" gradientTransform="matrix(1 0 0 1 579.8614 0)">
				<stop  offset="0" style="stop-color:#F9B776"/>
				<stop  offset="1" style="stop-color:#F47960"/>
			</linearGradient>
			<path style="fill:url(#SVGID_00000166665662547497231630000015720889119191319209_);" d="M2800.262,1957.707
				c0,0,225.219,161.132,28.804,330.449c0,0-7.49,8.473-22.223,12.877c-7.438,2.223-29.442,18.871-40.598,27.551
				c-3.586,2.79-8.768,1.841-11.179-2.011c-1.889-3.018-2.111-6.79-0.589-10.009l27.882-58.959
				c7.743-7.226,19.594-7.739,27.933-1.209c5.319,4.166,13.112,2.421,16.089-3.644c15.183-30.925,43.854-121.876-73.493-224.648
				c-4.411-3.863-5.527-10.253-2.82-15.455C2758.313,1996.811,2777.169,1965.359,2800.262,1957.707z"/>
		</g>
		<g>
			<g>
				
					<linearGradient id="SVGID_00000034079492361079489030000002864082484516416678_" gradientUnits="userSpaceOnUse" x1="1061.6853" y1="2571.3127" x2="1268.4484" y2="3188.2676">
					<stop  offset="0" style="stop-color:#CB236D"/>
					<stop  offset="0.867" style="stop-color:#5D246D"/>
					<stop  offset="1" style="stop-color:#4C246D"/>
				</linearGradient>
				<path style="fill:url(#SVGID_00000034079492361079489030000002864082484516416678_);" d="M1318.561,2900.691
					c0,0-126.313,139.257-231.805,80.402c-84.783-47.301,35.67-34.941,137.844-57.291c8.019-1.754,5.919-13.739-2.218-12.66
					c-79.942,10.599-201.921,19.262-223.108-22.421c-31.984-62.925-0.967-42.517,96.375-33.428
					c97.342,9.09,116.098-14.947,52.558-29.917c-63.54-14.97-164.62,18.142-188.166-12.648
					c-23.546-30.79-36.417-91.909-45.803-118.193c-9.385-26.285,121.17-65.725,156.466-31.219s63.958,111.525,105.845,125.587
					c41.887,14.062-3.171-54.068-30.951-89.233c-27.78-35.165-38.793-61.3,16.708-52.912c55.502,8.388,84.84,76.126,90.691,126.689
					c5.851,50.563,25.399,78.844,24.514,53.829s-9.963-101.729-27.702-124.794
					C1232.072,2679.416,1358.707,2707.563,1318.561,2900.691z"/>
				<path style="opacity:0.53;fill:#FFFFFF;" d="M1308.281,2902.019c-0.556,0.211-1.206,0.118-1.685-0.303
					c-108.418-94.85-290.259-163.792-292.083-164.476c-0.859-0.323-1.293-1.278-0.971-2.139c0.322-0.854,1.28-1.291,2.138-0.969
					c1.83,0.685,184.225,69.832,293.103,165.087c0.689,0.602,0.759,1.651,0.156,2.341
					C1308.754,2901.773,1308.526,2901.926,1308.281,2902.019z"/>
			</g>
			<g>
				
					<linearGradient id="SVGID_00000142175652386577792180000008628993439142830238_" gradientUnits="userSpaceOnUse" x1="1485.3888" y1="3071.9548" x2="1185.2473" y2="2531.7">
					<stop  offset="0" style="stop-color:#A737D5"/>
					<stop  offset="1" style="stop-color:#EF497A"/>
				</linearGradient>
				<path style="fill:url(#SVGID_00000142175652386577792180000008628993439142830238_);" d="M1394.819,2989.631
					c0,0-230.678,7.611-268.914-135.671c-30.73-115.153,61.277,1.597,168.267,72.58c8.397,5.571,17.169-6.519,9.267-12.771
					c-77.638-61.421-189.483-161.558-170.835-215.846c28.151-81.954,36.657-37.175,111.803,56.406s112.359,89.582,71.275,20.777
					c-41.084-68.806-156.628-129.63-149.6-176.692c7.029-47.063,49.915-110.623,65.07-141.353
					c15.154-30.729,161.459,50.675,161.192,111.27c-0.267,60.595-43.681,151.662-20.294,200.602
					c23.387,48.94,44.957-48.985,52.226-103.518c7.269-54.532,20.901-86.569,60.922-30.473
					c40.021,56.095,5.367,139.829-34.211,188.183c-39.578,48.354-47.81,89.749-26.512,67.598
					c21.297-22.151,81.172-95.69,86.351-131.034C1516.006,2724.346,1599.376,2860.033,1394.819,2989.631z"/>
				<path style="opacity:0.53;fill:#FFFFFF;" d="M1384.866,2981.702c-0.661-0.31-1.134-0.962-1.172-1.745
					c-9.003-176.612-103.572-395.819-104.526-398.011c-0.45-1.033,0.023-2.231,1.057-2.684c1.028-0.447,2.231,0.025,2.681,1.058
					c0.959,2.199,95.82,222.07,104.859,399.433c0.058,1.122-0.807,2.08-1.931,2.138
					C1385.486,2981.909,1385.158,2981.839,1384.866,2981.702z"/>
			</g>
		</g>
	</g>
</g>
</svg>
